<svg xmlns="http://www.w3.org/2000/svg" viewBox="0 0 600 600">
	<path style="fill:white;fill-opacity:0.75;stroke:black;stroke-width:1px;stroke-opacity:0.8" d="M-5,-5 v550 h5 Q10,545 20,549 C54,541 44,541 79,550 Q91,552 106,553 112,548 128,548 134,546 139,547 164,537 170,545 180,557 188,559 198,568 197,573 203,580 200,589 203,594 200,600 v5 h200 v-5 Q400,590 406,586 409,580 410,576 412,570 420,565 423,558 427,558 434,544 460,550 480,555 497,570 508,569 510,575 520,569 525,570 532,566 537,568 541,565 545,565 551,554 600,550 h5 v-555 Z"/>
</svg>
