<svg xmlns="http://www.w3.org/2000/svg" viewBox="0 0 600 600">
	<path style="fill:white;fill-opacity:0.75;stroke:black;stroke-width:1px;stroke-opacity:0.8" d="M0,-5 v5 Q3,5 4,12 8,16 12,32 15,38 18,54 20,66 26,81 32,90 36,105 41,120 40,140 38,145 42,154 48,163 46,168 62,175 61,195 65,215 72,231 110,300 108,315 120,320 113,330 115,345 112,350 113,355 113,361 116,366 114,371 112,385 115,405 152,428 156,460 182,476 175,516 184,530 183,542 184,554 192,562 196,570 200,600 v5 h200 v-5 Q399,586 424,582 440,574 456,578 462,580 478,567 505,550 528,552 542,540 566,543 580,541 600,550 h5 v-555 Z"/>
</svg>
