<svg xmlns="http://www.w3.org/2000/svg" viewBox="0 0 600 600">
	<path style="fill:white;fill-opacity:0.75;stroke:black;stroke-width:1px;stroke-opacity:0.8" d="M-5,-5 v555 h5 Q20,548 24,554 35,552 42,551 50,546 63,549 87,538 102,548 118,551 117,555 121,563 130,563 148,564 157,574 178,570 183,579 191,577 200,600 v5 h200 v-5 Q403,584 425,587 432,591 438,587 446,580 452,581 475,572 493,574 510,561 518,569 529,574 532,578 551,586 563,575 572,560 581,557 584,556 585,555 593,548 600,545 h5 v-550 Z"/>
</svg>
