<svg xmlns="http://www.w3.org/2000/svg" viewBox="0 0 600 600">
	<path style="fill:white;fill-opacity:0.75;stroke:black;stroke-width:1px;stroke-opacity:0.8" d="M-5,-5 v555 h5 Q2,551 5,550 8,548 22,547 40,536 59,539 65,543 80,537 94,530 101,528 132,505 157,537 178,538 184,563 194,566 196,585 201,590 200,600 v5 h200 v-5 Q402,585 406,576 409,570 409,560 407,545 428,515 439,511 445,495 449,494 454,486 466,484 466,463 465,460 467,455 470,450 467,445 466,420 470,416 468,390 469,377 459,360 476,330 475,320 485,306 489,290 523,260 L535,232 Q536,230 534,228 530,225 531,170 548,150 535,130 530,105 539,92 533,77 568,41 567,34 581,21 581,12 592,8 596,4 600,0 v-5 Z"/>
</svg>
