<svg xmlns="http://www.w3.org/2000/svg" viewBox="0 0 600 600">
	<path style="fill:white;fill-opacity:0.75;stroke:black;stroke-width:1px;stroke-opacity:0.8" d="M-5,-5 v555 h5 Q15,548 25,568 54,566 57,575 72,574 78,580 83,581 88,580 103,577 120,584 140,588 158,587 171,586 179,590 184,590 192,593 202,596 200,600 v5 h200 v-5 Q398,594 409,589 413,578 428,579 434,579 442,582 451,567 467,566 478,561 484,554 486,544 497,540 506,537 518,539 530,543 538,543 552,543 564,550 576,547 585,548 594,545 600,547 h5 v-552 Z"/>
</svg>
