<svg xmlns="http://www.w3.org/2000/svg" viewBox="0 0 600 600">
	<path style="fill:white;fill-opacity:0.75;stroke:black;stroke-width:1px;stroke-opacity:0.8" d="M200,-5 v5 Q205,5 200,15 194,38 180,42 162,55 155,70 154,74 149,80 145,85 144,90 144,98 137,108 127,115 129,120 134,130 130,137 121,148 151,189 168,194 172,215 177,217 180,228 198,236 200,243 200,246 203,247 206,248 208,252 212,259 218,262 228,267 240,280 250,283 248,297 256,296 256,306 v10 Q253,324 253,330 255,335 250,344 244,356 247,364 248,375 238,377 228,377 225,385 223,395 205,410 196,420 180,425 147,439 145,457 130,457 131,464 126,485 143,503 160,507 160,524 161,530 180,550 192,560 193,564 195,580 199,585 201,590 200,600 v5 h200 v-5 Q403,596 400,592 393,586 411,563 422,560 425,550 425,547 428,545 435,530 429,515 418,496 453,470 460,460 485,450 502,442 508,434 510,405 600,400 h5 v-200 h-5 Q551,198 556,163 550,162 552,158 561,120 530,118 512,118 508,120 495,131 485,130 472,130 470,124 460,114 450,117 415,115 407,80 L402,50 Q398,30 400,25 402,17 400,0 v-5 Z"/>
</svg>
