<svg xmlns="http://www.w3.org/2000/svg" viewBox="0 0 600 600">
	<path style="fill:white;fill-opacity:0.75;stroke:black;stroke-width:1px;stroke-opacity:0.8" d="M200,-5 v5 Q198,15 200,30 202,50 191,62 182,75 184,78 184,82 176,100 168,123 173,127 179,132 178,139 189,160 190,176 197,182 199,195 203,201 206,204 208,206 209,209 211,218 226,226 237,232 238,245 242,255 252,267 251,273 255,288 260,318 257,330 255,345 260,349 263,356 258,370 256,375 258,380 259,385 254,395 250,402 251,428 252,432 243,450 230,465 235,480 236,490 227,500 218,507 217,524 216,530 207,547 198,560 200,575 202,581 200,582 198,593 202,595 201,598 200,600 v5 h200 v-5 Q400,593 403,590 408,582 410,584 413,574 422,578 428,580 430,575 440,568 453,567 457,564 464,564 474,557 510,549 521,527 533,529 538,521 560,514 560,501 572,481 567,474 569,462 571,460 569,458 565,448 571,440 573,438 572,435 570,430 577,420 580,417 578,415 578,402 600,400 h5 v-200 h-5 Q595,200 590,203 586,204 581,205 560,213 555,200 550,193 540,196 535,198 525,196 h-25 Q492,196 484,188 472,184 460,175 C444,174 452,180 444,163 Q444,158 432,147 430,140 424,140 416,136 416,130 417,127 415,124 401,110 407,80 412,70 405,60 396,50 399,22 403,15 400,0 v-5 Z"/>
</svg>
