<svg xmlns="http://www.w3.org/2000/svg" viewBox="0 0 600 600">
	<path style="fill:white;fill-opacity:0.75;stroke:black;stroke-width:1px;stroke-opacity:0.8" d="M200,-5 v5 Q205,10 202,18 200,22 203,32 209,50 205,60 195,80 205,100 216,118 199,136 160,160 162,175 160,204 168,204 176,205 180,220 179,235 200,250 210,256 213,270 217,278 225,280 248,285 245,328 250,340 244,350 237,360 240,370 244,420 220,440 205,460 206,476 212,488 206,497 190,550 200,600 v5 h200 v-5 Q403,590 400,575 410,550 403,530 400,505 407,495 410,488 407,483 400,465 422,442 420,435 433,428 440,420 450,420 461,417 465,422 473,418 484,427 508,450 526,420 550,394 600,400 h5 v-200 h-5 Q594,200 590,198 585,196 582,198 579,200 570,194 563,187 555,185 v-5 Q540,163 543,140 543,132 538,126 528,116 529,90 530,78 524,70 518,65 515,57 505,46 495,47 455,42 447,35 435,22 420,22 400,18 400,0 v-5 Z"/>
</svg>
