<svg xmlns="http://www.w3.org/2000/svg" viewBox="0 0 600 600">
	<path style="fill:white;fill-opacity:0.75;stroke:black;stroke-width:1px;stroke-opacity:0.8" d="M200,-5 v22 Q195,30 200,33 212,54 182,86 178,100 177,120 180,135 160,155 130,190 127,200 100,212 103,228 103,232 90,240 70,270 82,289 87,295 85,315 80,340 94,361 105,362 117,380 128,403 150,403 156,403 160,405 168,410 174,407 178,404 183,408 200,414 202,419 h9 Q225,440 210,476 206,484 209,486 213,490 208,510 200,560 202,570 197,577 200,584 202,588 200,600 v5 h200 v-5 Q402,597 398,590 398,580 400,578 406,560 404,554 395,534 410,503 v-27 C398,450 398,458 403,446 Q406,430 398,415 390,390 429,391 C480,370 470,370 507,385 Q512,390 517,389 530,388 540,397 555,399 566,405 585,400 600,400 h5 v-200 h-5 Q560,195 555,180 552,170 543,160 538,155 532,145 530,140 524,138 522,136 514,126 508,121 502,113 503,110 489,100 470,90 465,80 466,68 432,45 410,44 409,20 400,10 400,0 v-5 Z"/>
</svg>
