<svg xmlns="http://www.w3.org/2000/svg" viewBox="0 0 600 600">
	<path style="fill:white;fill-opacity:0.75;stroke:black;stroke-width:1px;stroke-opacity:0.8" d="M200,-5 v5 Q198,8 200,16 205,22 201,28 v25 Q211,75 208,98 202,110 209,120 234,164 205,188 194,200 198,220 203,250 203,260 200,270 203,278 207,288 197,300 182,335 200,350 211,360 212,370 212,374 216,376 224,386 220,394 218,398 222,404 238,420 224,450 218,472 209,480 205,484 203,490 205,502 195,506 182,525 190,532 196,545 195,560 200,580 200,600 v5 h200 v-5 Q400,576 406,570 404,548 420,540 431,530 436,520 440,510 461,501 461,497 468,490 475,480 478,467 495,462 519,435 518,430 525,425 535,423 536,420 536,405 550,405 565,405 580,400 590,398 600,400 h5 v-200 h-5 Q598,202 596,200 592,198 588,200 580,205 576,204 570,207 560,206 550,214 541,214 536,214 530,218 520,227 514,221 490,227 465,213 449,207 449,195 445,180 425,170 398,157 401,135 402,130 399,125 390,105 394,100 397,95 394,90 390,85 393,65 390,60 393,55 395,51 393,48 392,28 400,17 404,8 400,0 v-5 Z"/>
</svg>
