<svg xmlns="http://www.w3.org/2000/svg" viewBox="0 0 600 600">
	<path style="fill:white;fill-opacity:0.75;stroke:black;stroke-width:1px;stroke-opacity:0.8" d="M200,-5 v5 Q196,25 200,35 205,50 200,80 200,100 193,113 187,133 180,145 171,153 173,200 171,221 190,230 200,236 198,250 197,253 200,260 v42 Q218,325 203,350 193,365 197,380 202,393 193,400 180,410 185,450 197,489 196,510 206,530 199,550 198,583 200,600 v5 h200 v-5 Q400,593 406,585 L408,531 Q405,529 405,510 426,497 426,465 429,454 435,446 440,425 457,412 468,394 475,396 510,385 550,395 560,400 600,400 h5 v-200 h-5 Q580,202 575,199 555,199 551,196 521,196 503,180 475,158 474,145 470,125 460,119 438,104 440,80 438,55 426,50 407,36 406,15 399,5 400,0 v-5 Z"/>
</svg>
