<svg xmlns="http://www.w3.org/2000/svg" viewBox="0 0 600 600">
	<path style="fill:white;fill-opacity:0.75;stroke:black;stroke-width:1px;stroke-opacity:0.8" d="M200,-5 v5 Q199,7 202,27 204,43 200,77 177,89 175,135 173,148 175,175 176,185 174,192 174,205 180,215 190,250 205,270 205,277 210,285 217,290 215,310 218,330 220,340 228,353 221,370 218,380 222,390 225,398 224,416 226,435 228,445 231,450 228,454 228,464 223,484 215,495 215,510 200,540 200,570 195,577 200,585 v20 h200 v-5 Q400,593 403,588 407,585 411,578 418,558 435,550 443,543 452,538 464,533 468,525 480,510 498,498 510,490 517,477 517,467 550,436 556,430 556,422 563,417 563,412 565,403 600,400 h5 v-200 h-5 Q595,202 587,199 585,202 580,204 570,229 555,239 553,244 550,245 530,255 515,255 512,257 505,257 495,257 493,254 485,250 478,253 473,255 465,250 452,238 460,220 463,212 462,205 467,180 480,160 484,118 470,100 467,73 450,70 431,71 421,60 410,60 406,40 409,30 399,20 L400,0 v-5 Z"/>
</svg>
