<svg xmlns="http://www.w3.org/2000/svg" viewBox="0 0 600 600">
	<path style="fill:white;fill-opacity:0.75;stroke:black;stroke-width:1px;stroke-opacity:0.8" d="M200,-5 v5 Q198,15 211,34 211,39 215,40 220,40 225,50 228,60 231,62 236,67 235,80 238,81 237,94 244,110 232,125 225,145 211,152 202,167 185,171 C178,196 190,184 165,204 155,210 157,203 158,220 Q160,224 155,230 150,235 150,240 148,247 145,251 140,257 145,267 150,272 150,282 153,293 152,300 152,310 160,320 172,337 173,345 175,356 185,354 200,360 208,371 213,372 215,378 218,381 221,382 235,400 245,415 257,430 253,437 250,443 255,445 264,458 255,472 254,478 251,485 256,493 240,510 235,517 228,523 224,525 224,535 212,540 210,558 196,573 200,575 202,585 200,600 v5 h200 v-5 Q400,590 405,580 405,570 408,560 406,555 410,547 412,541 412,532 411,526 413,523 415,515 413,510 410,503 415,490 430,463 426,457 425,450 430,445 435,438 440,433 453,419 450,413 450,411 452,409 L454,393 Q453,389 458,387 462,383 468,375 475,372 480,372 492,364 500,368 L523,370 Q559,402 600,400 h5 v-200 h-5 Q580,200 579,185 579,175 565,168 557,165 555,162 545,156 540,159 510,149 501,125 502,122 500,121 495,110 490,105 477,97 476,81 468,68 450,68 438,64 437,50 436,20 417,18 410,17 410,10 405,7 400,0 v-5 Z"/>
</svg>
