<svg xmlns="http://www.w3.org/2000/svg" viewBox="0 0 600 600">
	<path style="fill:white;fill-opacity:0.75;stroke:black;stroke-width:1px;stroke-opacity:0.8" d="M200,-5 v5 Q204,18 200,35 196,45 203,50 208,70 204,90 196,104 197,120 195,125 190,130 175,145 177,160 178,167 170,175 154,190 165,210 170,220 170,225 170,229 175,231 195,240 200,260 203,270 210,280 215,285 215,308 213,318 215,332 215,337 210,343 198,348 192,365 183,391 166,400 143,443 157,465 165,474 165,494 164,500 180,526 190,545 188,554 200,574 200,585 203,593 200,600 v5 h200 v-5 Q400,590 410,585 423,574 439,575 463,559 485,561 500,550 505,540 506,525 512,520 513,515 525,505 529,500 529,495 536,487 535,482 537,472 545,465 544,461 550,460 563,450 567,430 570,406 600,400 h5 v-200 h-5 Q580,202 550,199 535,195 530,190 522,182 500,177 490,173 480,163 464,145 464,137 463,130 455,115 453,95 435,92 425,85 420,75 418,60 410,45 403,33 405,25 v-10 Q398,10 400,0 v-5 Z"/>
</svg>
