<svg xmlns="http://www.w3.org/2000/svg" viewBox="0 0 600 600">
	<path style="fill:white;fill-opacity:0.75;stroke:black;stroke-width:1px;stroke-opacity:0.8" d="M200,-5 v5 Q198,4 200,6 202,8 200,16 198,24 200,32 201,35 200,38 194,52 199,64 204,74 197,86 187,117 190,127 L177,138 Q178,141 170,154 157,180 159,189 140,215 148,233 151,237 147,240 138,250 136,265 134,275 128,285 118,295 120,305 128,335 121,350 118,358 127,370 190,450 181,508 208,570 200,600 v5 h200 v-5 Q400,590 410,570 410,555 411,550 412,536 421,536 C440,506 424,512 461,499 Q474,485 484,482 484,475 491,471 487,456 491,432 487,426 494,420 500,416 500,405 503,400 520,396 540,384 600,400 h5 v-200 h-5 Q590,196 583,204 560,210 545,219 h-8 Q515,226 490,238 474,252 462,247 455,242 440,250 436,253 412,253 401,262 386,251 L373,240 Q373,230 360,215 347,195 353,185 356,180 354,165 360,140 373,130 371,110 383,104 387,65 393,62 395,60 395,40 394,30 396,25 404,10 400,0 v-5 Z"/>
</svg>
