<svg xmlns="http://www.w3.org/2000/svg" viewBox="0 0 600 600">
	<path style="fill:white;fill-opacity:0.75;stroke:black;stroke-width:1px;stroke-opacity:0.8" d="M200,-5 v5 Q203,15 201,28 199,32 202,36 210,50 210,65 210,70 215,80 222,92 221,105 223,111 228,115 232,120 235,125 238,136 250,146 263,160 263,168 261,175 304,207 309,207 312,215 317,238 335,250 v43 Q335,295 328,303 317,310 310,325 290,346 284,334 281,333 278,334 250,350 235,365 230,367 220,362 210,361 200,355 184,350 178,355 h-14 Q143,374 145,380 145,384 140,390 135,400 139,410 140,425 148,428 152,433 154,444 159,462 157,475 156,483 160,490 167,497 169,506 173,518 185,520 205,545 200,600 v5 h200 v-5 Q400,585 405,575 410,561 420,557 433,552 435,545 459,518 454,513 452,502 455,490 455,475 462,470 473,450 480,452 523,415 550,413 568,398 600,400 h5 v-200 h-5 Q590,203 570,196 554,191 555,175 553,169 548,164 537,155 530,148 526,140 515,137 503,130 500,118 493,93 480,90 470,85 463,75 457,67 450,65 425,55 421,46 418,40 410,35 405,25 407,20 406,13 400,10 398,5 400,0 v-5 Z"/>
</svg>
