<svg xmlns="http://www.w3.org/2000/svg" viewBox="0 0 600 600">
	<path style="fill:white;fill-opacity:0.75;stroke:black;stroke-width:1px;stroke-opacity:0.8" d="M200,-5 v5 Q200,5 205,10 206,24 212,40 229,74 196,99 197,116 170,130 v11 Q138,168 140,185 140,193 130,194 111,196 110,220 108,227 110,235 97,250 100,275 93,290 100,305 113,325 111,350 110,400 130,400 140,405 140,420 146,453 175,460 188,465 195,480 205,495 215,498 225,500 225,510 227,515 226,535 224,540 225,546 220,550 211,561 208,565 208,575 199,590 200,600 v5 h200 v-5 Q398,585 403,565 404,561 400,555 398,549 405,540 421,507 418,485 412,475 420,467 430,430 475,420 483,418 485,412 482,405 495,395 508,387 511,394 525,392 530,398 540,399 555,396 560,397,560,400 570,402 580,400 590,398 600,400 h5 v-200 h-5 Q593,198 588,200 584,203 580,200 575,200 570,204 565,204 565,214 550,220 550,225 540,226 535,230 530,227 526,233 515,237 510,225 490,212 476,190 471,183 472,177 475,170 470,158 460,140 460,130 458,115 450,106 445,102 435,100 428,95 427,90 428,86 426,80 424,75 430,70 431,60 430,46 420,40 415,31 406,29 404,20 399,8 400,0 v-5 Z"/>
</svg>
