<svg xmlns="http://www.w3.org/2000/svg" viewBox="0 0 600 600">
	<path style="fill:white;fill-opacity:0.75;stroke:black;stroke-width:1px;stroke-opacity:0.8" d="M200,-5 v5 Q204,28 180,45 L150,65 Q138,70 130,80 125,88 117,92 108,93 100,110 100,113 90,135 81,149 95,170 99,180 98,210 99,221 108,232 107,250 115,270 122,287 110,310 80,335 68,383 75,415 75,445 85,460 86,475 88,493 100,492 110,492 123,503 124,497 140,497 151,496 158,490 171,485 180,490 194,497 195,505 195,510 200,513 204,535 200,560 198,580 200,600 v5 h200 v-5 Q400,583 408,583 410,583 411,579 413,571 430,568 441,566 450,560 460,555 475,555 501,549 510,528 552,479 537,460 531,444 550,430 560,420 570,415 575,414 578,406 579,401 600,400 h5 v-200 h-5 Q535,195 520,170 525,140 495,125 490,127 485,125 475,115 460,110 445,105 426,65 424,55 415,52 405,35 400,15 402,7 400,0 v-5 Z"/>
</svg>
