<svg xmlns="http://www.w3.org/2000/svg" viewBox="0 0 600 600">
	<path style="fill:white;fill-opacity:0.75;stroke:black;stroke-width:1px;stroke-opacity:0.8" d="M200,-5 v5 Q203,10 200,20 197,30 200,45 200,55 195,75 190,85 187,95 177,108 177,125 175,140 160,155 150,181 153,190 155,195 152,204 148,225 150,240 157,248 153,265 150,277 154,290 157,315 170,340 175,360 185,365 199,373 200,390 202,415 220,420 234,432 225,465 218,493 210,510 203,524 208,536 215,545 207,558 203,570 205,578 198,583 202,594 201,598 200,600 v5 h200 v-5 Q398,592 402,585 400,575 405,570 414,561 420,565 428,570 435,567 440,565 445,567 450,568 462,565 470,554 480,557 531,532 535,515 536,500 550,487 558,483 557,455 L568,436 Q568,427 575,417 590,399 600,400 h5 v-200 h-5 Q592,199 588,200 585,202 575,200 560,194 550,195 544,193 533,195 520,193 505,195 480,205 458,192 445,162 421,154 422,138 415,125 405,95 407,80 409,67 400,45 402,32 400,25 397,18 400,0 v-5 Z"/>
</svg>
