<svg xmlns="http://www.w3.org/2000/svg" viewBox="0 0 600 600">
	<path style="fill:white;fill-opacity:0.75;stroke:black;stroke-width:1px;stroke-opacity:0.8" d="M200,-5 v5 Q202,5 200,10 198,15 200,25 196,40 200,58 206,88 177,108 115,110 105,129 80,130 75,150 75,175 49,185 46,195 28,195 15,200 0,200 h-5 v200 h5 Q5,402 10,400 25,397 50,398 65,397 90,400 105,407 115,408 122,410 130,415 133,419 150,421 157,422 180,450 182,458 215,455 230,450 270,450 282,450 301,438 321,431 330,420 343,410 370,410 375,409 387,408 393,411 410,405 L470,403 Q475,403 481,400 496,392 517,400 555,402 600,400 h5 v-200 h-5 Q585,202 570,202 557,206 500,201 h-5 Q480,209 460,200 455,195 450,195 442,194 435,188 417,185 417,175 418,171 413,165 404,147 410,130 414,118 410,105 407,95 410,85 412,75 406,60 398,30 400,16 403,11 400,0 v-5 Z"/>
</svg>
