<svg xmlns="http://www.w3.org/2000/svg" viewBox="0 0 600 600">
	<path style="fill:white;fill-opacity:0.75;stroke:black;stroke-width:1px;stroke-opacity:0.8" d="M200,-5 v5 Q205,17 204,25 203,28 205,35 212,55 205,70 203,78 204,90 204,95 200,110 198,116 189,130 180,150 160,155 147,159 135,172 133,175 128,177 90,196 80,193 65,191 45,198 20,198 0,200 h-5 v200 h5 Q3,402 15,395 L37,394 Q47,387 74,383 75,377 83,376 115,363 125,364 135,364 155,360 h30 Q197,363 197,370 208,380 235,378 258,378 290,415 290,420 305,425 320,429 332,427 332,441 365,435 h29 Q397,441 405,435 420,428 430,429 452,424 465,424 480,420 500,420 525,416 550,402 560,403 570,401 578,403 588,398 592,402 600,400 h5 v-200 h-5 Q580,202 575,205 568,206 555,215 510,245 495,243 480,241 450,260 435,263 420,260 380,262 380,250 L353,237 Q330,202 350,175 356,165 356,160 371,137 368,120 381,105 388,85 387,68 395,50 395,35 400,18 398,8 400,0 v-5 Z"/>
</svg>
