<svg xmlns="http://www.w3.org/2000/svg" viewBox="0 0 600 600">
	<path style="fill:white;fill-opacity:0.75;stroke:black;stroke-width:1px;stroke-opacity:0.8" d="M200,-5 v5 Q197,7 203,15 206,20 205,25 205,30 209,35 213,45 212,60 210,63 215,85 216,93 220,100 222,115 225,120 231,132 228,140 T228,153 Q236,167 225,185 212,198 210,225 201,247 180,253 175,252 172,249 163,248 155,242 145,242 145,235 138,228 127,225 117,217 118,212 118,207 115,205 110,205 110,200 89,175 68,177 L37,188 Q28,198 15,198 5,202 0,200 h-5 v200 h5 Q15,400 25,402 33,402 35,405 42,412 51,411 57,411 60,415 80,430 127,440 132,453 150,462 185,488 225,500 240,495 262,495 275,492 290,495 298,495 306,490 320,485 330,485 335,485 350,481 L420,465 Q437,461 445,450 470,430 500,424 516,422 525,410 540,397 583,396 586,401 600,400 h5 v-200 h-5 Q583,203 575,208 570,210 560,210 549,216 535,214 525,212 520,204 514,193 520,185 525,182 524,165 525,140 530,130 534,122 527,110 523,102 510,100 502,95 490,97 483,98 475,95 465,94 455,95 443,97 430,90 395,74 399,51 393,32 400,15 402,8 400,0 v-5 Z"/>
</svg>
