<svg xmlns="http://www.w3.org/2000/svg" viewBox="0 0 600 600">
	<path style="fill:white;fill-opacity:0.75;stroke:black;stroke-width:1px;stroke-opacity:0.8" d="M200,-5 v5 Q202,4 200,10 197,17 199,30 200,35 193,45 183,54 174,69 165,72 163,88 137,125 112,115 106,113 100,115 85,120 78,132 78,138 70,140 55,145 49,155 48,166 43,170 38,174 37,180 32,194 15,196 9,200 0,200 h-5 v200 h5 Q13,396 25,400 40,402 57,400 96,393 111,406 h30 Q185,444 205,420 216,408 230,406 243,403 250,395 263,382 270,390 282,396 295,386 320,384 345,375 365,354 385,361 L405,363 Q416,363 423,375 425,380 434,383 v10 Q458,405 479,405 500,397 530,405 550,409 567,405 580,401 600,400 h5 v-200 h-5 Q590,204 580,200 563,198 550,210 540,219 530,217 L515,225 488,224 Q482,229 476,219 454,214 450,190 449,182 445,180 447,156 445,145 456,127 445,110 445,90 435,85  430,78 432,74 420,65 415,45 414,41 410,40 399,29 403,15 404,11 400,9 v-14 Z"/>
</svg>
