<svg xmlns="http://www.w3.org/2000/svg" viewBox="0 0 600 600">
	<path style="fill:white;fill-opacity:0.75;stroke:black;stroke-width:1px;stroke-opacity:0.8" d="M200,-5 v5 Q197,7 199,11 202,18 199,25 196,35 200,54 209,79 195,100 184,104 175,115 158,124 150,120 112,108 110,145 105,165 85,177 70,195 62,192 50,190 25,200 10,199 0,200 h-5 v200 h5 Q15,398 27,402 46,404 55,410 65,412 75,420 L100,427 Q110,431 105,440 101,450 115,470 122,485 119,500 115,512 130,520 155,526 175,522 188,518 200,526 240,526 260,543 275,546 283,552 312,555 350,547 365,540 375,540 412,534 420,517 427,500 450,495 471,486 470,485 483,482 485,470 493,447 501,435 509,420 512,410 525,391 548,392 561,405 600,400 h5 v-200 h-5 Q594,198 586,203 537,194 535,140 532,120 525,110 523,98 517,88 505,80 500,70 497,61 485,60 420,45 408,20 398,8 400,0 v-5 Z"/>
</svg>
