<svg xmlns="http://www.w3.org/2000/svg" viewBox="0 0 600 600">
	<path style="fill:white;fill-opacity:0.75;stroke:black;stroke-width:1px;stroke-opacity:0.8" d="M200,-5 v5 Q203,8 194,25 194,43 183,50 183,57 165,60 153,60 151,70 150,75 130,75 116,87 125,92 130,100 127,110 139,135 135,145 128,161 130,175 130,180 125,185 120,195 105,200 97,204 90,201 84,201 75,207 60,215 35,205 23,206 20,201 13,199 8,201 4,203 0,200 h-5 v200 h15 Q21,408 40,395 57,375 65,375 75,368 85,369 90,371 95,370 100,370 110,380 L125,390 Q123,407 154,427 v13 Q180,461 190,475 196,486 230,477 240,475 245,465 265,435 285,430 300,418 315,413 328,405 335,409 354,414 366,412 387,417 400,428 420,434 440,432 446,434 455,430 L471,428 Q485,418 515,415 557,415 589,398 594,401 600,400 h5 v-200 h-5 Q595,199 590,202 585,205 580,205 v5 Q570,222 550,223 510,232 503,200 500,192 503,180 507,168 505,160 503,156 508,145 520,127 512,100 510,90 500,86 495,81 492,77 490,70 475,70 460,65 445,70 432,75 418,68 406,58 406,50 405,40 400,35 398,14 400,10 402,5 400,0 v-5 Z"/>
</svg>
