<svg xmlns="http://www.w3.org/2000/svg" viewBox="0 0 600 600">
	<path style="fill:white;fill-opacity:0.75;stroke:black;stroke-width:1px;stroke-opacity:0.8" d="M200,-5 v5 Q199,8 200,14 202,18 200,30 197,36 200,40 205,52 205,68 222,91 204,107 v10 Q206,124 200,132 180,158 160,161 140,170 135,160 113,146 100,155 L76,163 Q63,180 41,188 17,204 0,200 h-5 v200 h5 Q24,398 29,402 45,400 50,405 67,413 75,422 94,419 100,435 125,435 155,425 167,424 170,430 L180,443 Q183,449 180,452 167,474 185,488 191,491 190,500 202,527 239,515 245,525 275,530 300,530 310,540 320,545 330,540 350,535 370,540 408,542 425,527 460,510 482,483 473,452 500,442 512,435 524,397 530,398 535,395 549,387 560,395 575,402 600,400 h5 v-200 h-5 Q593,202 582,200 577,197 561,199 550,194 547,190 544,186 535,185 515,178 512,165 510,156 505,150 496,141 498,135 495,125 498,117 501,107 489,96 L470,70 Q426,67 405,35 405,15 400,10 v-15 h-200 M300,270 C305,282 319,282 324,270 Q348,272 345,260 353,250 380,260 383,263 380,267 v10 Q401,302 380,320 370,335 355,335 344,340 335,338 325,348 305,335 290,337 285,334 266,330 275,315 278,308 277,295 284,278 296,271 298,269 300,270"/>
</svg>
