<svg xmlns="http://www.w3.org/2000/svg" viewBox="0 0 600 600">
	<path style="fill:white;fill-opacity:0.75;stroke:black;stroke-width:1px;stroke-opacity:0.8" d="M200,-5 v5 Q203,9 200,17 196,28 203,35 208,75 204,90 202,95 206,105 217,122 210,152 215,158 214,172 218,176 208,190 191,229 150,215 145,214 135,215 128,222 100,210 80,208 55,210 35,198 30,200 15,203 0,200 h-5 v200 h5 Q15,398 30,400 34,406 40,405 50,407 55,415 75,438 100,446 122,439 155,460 163,474 192,467 L235,445 Q244,439 243,430 243,424 250,420 L270,405 Q278,395 276,385 277,371 295,363 312,363 315,367 T325,370 337,372 350,373 Q364,370 365,375 390,390 420,390 434,387 442,395 465,408 496,402 502,401 525,400 542,398 545,395 554,388 600,400 h5 v-200 h-5 Q588,202 580,198 T560,197 Q545,200 530,180 525,150 495,145 470,130 455,100 450,87 430,85 415,80 415,60 414,50 407,35 399,20 401,13 403,7 400,0 v-5 Z"/>
</svg>
