<svg xmlns="http://www.w3.org/2000/svg" viewBox="0 0 600 600">
	<path style="fill:white;fill-opacity:0.75;stroke:black;stroke-width:1px;stroke-opacity:0.8" d="M200,-5 v5 Q213,35 200,62 L184,82 Q174,87 156,89 122,108 97,134 95,140 75,150 45,164 28,185 25,190 15,195 9,201 0,200 h-5 v200 h5 Q8,402 15,400 58,399 100,370 120,355 135,355 140,355 150,348 172,336 202,337 L257,355 Q257,362 265,363 288,386 300,383 L340,392 Q355,400 375,396 410,406 425,405 440,407 450,415 485,417 500,420 550,403 565,405 570,392 600,400 h5 v-200 h-5 Q582,205 565,200 552,195 545,196 538,193 525,200 L490,210 Q481,210 470,216 458,219 448,218 442,215 430,220 422,222 413,218 407,217 400,220 389,228 370,225 356,225 350,220 344,215 335,216 326,214 318,205 302,186 320,165 355,149 349,125 350,115 357,105 362,99 360,95 358,84 360,82 L380,60 Q385,56 384,50 384,47 398,30 403,28 398,18 L400,0 v-5 Z"/>
</svg>
