<svg xmlns="http://www.w3.org/2000/svg" viewBox="0 0 600 600">
	<path style="fill:white;fill-opacity:0.75;stroke:black;stroke-width:1px;stroke-opacity:0.8" d="M200,-5 v5 Q202,8 200,14 197,20 200,30 204,46 200,58 197,67 199,73 201,78 190,105 185,112 185,125 184,133 160,150 151,157 143,156 L113,171 Q90,167 65,195 50,195 42,200 25,204 0,200 h-5 v200 h5 Q25,395 44,396 70,390 90,397 124,401 139,410 147,413 150,416 153,419 165,420 175,424 185,425 194,426 200,432 h40 Q245,430 258,431 272,422 295,423 320,418 335,406 380,385 440,380 450,382 475,380 487,385 500,385 510,387 515,391 525,396 535,395 550,400 565,400 574,397 585,400 h20 v-200 h-5 Q588,207 560,200 L543,178 v-20 Q530,132 505,133 500,132 497,129 475,130 470,140 460,143 451,150 420,149 410,125 406,118 410,105 411,99 405,90 v-15 Q401,60 404,45 405,41 400,35 398,26 400,18 v-23 Z"/>
</svg>
