<svg xmlns="http://www.w3.org/2000/svg" viewBox="0 0 600 600">
	<path style="fill:white;fill-opacity:0.75;stroke:black;stroke-width:1px;stroke-opacity:0.8" d="M200,-5 v5 Q200,15 195,30 190,35 190,50 180,75 165,85 160,86 155,95 145,105 125,110 120,110 115,115 110,120 101,120 93,127 90,140 85,150 77,155 70,160 65,170 55,180 30,185 25,185 25,190 18,199 0,200 h-5 v200 h5 Q15,401 30,397 38,397 50,405 75,420 85,435 90,446 120,450 135,455 150,450 h7 Q170,455 185,451 h12 Q206,449 210,445 220,443 235,435 260,412 300,406 357,377 425,400 h19 Q454,396 465,400 h50 Q525,402 535,400 540,405 550,405 h30 Q590,400 600,400 h5 v-200 h-10 Q586,206 568,200 560,197 540,200 530,205 518,204 507,214 500,210 489,210 482,220 450,225 424,218 412,222 400,215 388,212 389,200 385,190 387,180 388,175 386,170 v-17 Q390,146 386,140 383,130 390,110 388,101 390,95 392,90 390,80 390,58 400,40 v-15 Q396,12 400,0 v-5 Z"/>
</svg>
