<svg xmlns="http://www.w3.org/2000/svg" viewBox="0 0 600 600">
	<path style="fill:white;fill-opacity:0.75;stroke:black;stroke-width:1px;stroke-opacity:0.8" d="M200,-5 v5 Q199,10 201,20 203,28 200,40 191,63 200,85 205,95 200,108 185,125 185,145 178,166 165,165 145,170 140,180 135,185 112,194 104,197 95,190 83,188 70,195 63,199 52,198 48,198 40,200 30,206 16,200 h-21 v200 h15 Q32,385 40,387 47,384 52,380 55,371 73,363 92,362 110,345 120,337 127,323 178,312 195,321 205,325 215,320 259,303 270,260 271,248 285,245 296,244 305,230 315,221 335,223 370,218 380,225 393,227 402,232 C439,242 429,232 440,260 Q448,271 447,280 447,283 450,285 467,299 475,315 477,324 486,330 493,338 500,350 511,354 515,360 518,367 525,371 532,375 532,380 540,397 565,399 571,397 575,400 h13 Q592,397 600,400 h5 v-200 h-5 Q564,200 565,146 563,138 566,133 v-12 Q550,93 556,85 562,73 550,65 540,53 520,50 502,48 500,40 496,24 475,34 460,35 456,30 457,25 435,25 415,25 415,15 415,9 405,8 400,6 400,0 v-5 Z"/>
</svg>
