<svg xmlns="http://www.w3.org/2000/svg" viewBox="0 0 600 600">
	<path style="fill:white;fill-opacity:0.75;stroke:black;stroke-width:1px;stroke-opacity:0.8" d="M200,-5 v10 Q217,37 200,50 184,66 188,75 190,118 150,127 126,131 110,150 109,162 98,163 70,165 55,186 L26,198 Q18,197 0,200 h-5 v200 h5 Q15,395 30,400 L77,406 Q90,400 118,402 134,399 150,405 h10 Q185,425 200,425 217,433 225,426 290,427 295,440 328,445 360,443 401,428 420,435 455,430 500,415 525,407 535,410 550,404 560,405 590,399 600,400 h5 v-200 h-5 Q591,199 550,212 525,220 519,220 500,230 480,232 465,236 450,234 436,235 400,216  386,215 384,200 L370,170 Q365,160 370,148 368,135 370,125 374,113 375,100 376,95 381,85 386,80 385,65 386,50 395,30 395,17 400,8 v-13 Z"/>
</svg>
