<svg xmlns="http://www.w3.org/2000/svg" viewBox="0 0 600 600">
	<path style="fill:white;fill-opacity:0.75;stroke:black;stroke-width:1px;stroke-opacity:0.8" d="M200,-5 v5 Q199,8 202,12 210,32 196,50 199,58 195,65 183,73 180,90 170,102 150,113 h-15 Q122,119 113,114 104,112 95,115 68,120 50,140 40,140 38,150 36,170 28,176 26,201 0,200 h-5 v200 h5 Q12,400 15,405 17,408 30,410 32,415 45,415 65,436 58,458 L70,472 115,475 Q150,485 147,542 165,565 190,570 200,585 200,600 v5 h200 v-5 Q401,595 400,593 392,585 395,570 393,555 396,540 395,525 385,510 366,498 372,475 373,470 370,461 360,456 359,455 365,438 320,425 307,414 310,405 320,393 295,380 266,358 271,336 265,325 270,315 265,304 270,298 268,290 270,285 L272,280 Q285,270 288,250 302,248 307,235 325,238 335,220 L350,215 h10 Q365,198 373,201 390,192 405,195 420,195 420,185 L430,176 Q433,170 430,160 423,146 435,120 439,115 435,110 430,100 432,95 435,85 430,75 425,65 427,60 431,50 415,40 410,33 400,39 397,40 395,35 391,27 401,13 398,5 400,0 v-5 Z"/>
</svg>
