<svg xmlns="http://www.w3.org/2000/svg" viewBox="0 0 600 600">
	<path style="fill:white;fill-opacity:0.75;stroke:black;stroke-width:1px;stroke-opacity:0.8" d="M200,-5 v5 Q200,16 205,25 214,43 210,55 208,60 210,65 218,80 216,87 215,90 218,93 225,133 205,155 193,170 192,175 186,186 170,190 150,193 135,205 125,215 115,212 100,212 90,210 70,204 45,204 38,206 20,200 h-25 v200 h5 Q35,400 40,415 41,419 50,421 60,422 70,445 70,455 75,470 78,485 75,493 90,518 125,520 h20 Q155,520 165,530 L185,550 Q202,570 200,600 v5 h200 v-5 Q401,595 400,590 396,573 400,570 406,560 405,540 408,515 425,490 L430,435 Q436,420 430,400 423,386 455,330 469,305 465,295 460,285 465,260 v-30 Q465,220 450,200 440,175 436,147 420,110 425,100 L403,50 400,0 v-5 Z"/>
</svg>
