<svg xmlns="http://www.w3.org/2000/svg" viewBox="0 0 600 600">
	<path style="fill:white;fill-opacity:0.75;stroke:black;stroke-width:1px;stroke-opacity:0.8" d="M200,-5 v5 Q203,10 201,25 208,37 200,50 191,72 172,84 173,94 165,95 160,97 150,94 125,96 110,111 95,112 95,116 90,125 81,130 75,133 75,145 75,158 61,158 50,166 45,180 40,195 28,200 23,202 15,200 10,199 0,200 h-5 v200 h5 Q4,397 10,400 25,404 35,402 64,408 66,430 75,437 88,442 92,475 120,466 135,471 146,481 146,495 165,515 v16 Q175,545 190,551 197,552 200,560 206,580 199,590 202,595 200,600 v5 h200 v-5 Q398,593 400,588 403,584 403,575 405,565 410,560 423,533 435,536 442,522 456,518 L462,503 Q460,477 476,459 v-7 Q470,445 460,445 460,430 435,430 418,427 421,421 L410,400 Q406,392 395,396 397,372 392,350 397,335 380,330 369,321 377,306 393,288 330,285 326,276 315,280 304,280 300,270 296,253 285,250 276,242 285,220 v-20 Q277,194 286,181 290,165 296,161 301,141 310,140 L340,125 Q367,135 382,115 400,106 411,90 410,75 413,60 L400,25 Q396,11 400,0 v-5 Z"/>
</svg>
