<svg xmlns="http://www.w3.org/2000/svg" viewBox="0 0 600 600">
	<path style="fill:white;fill-opacity:0.75;stroke:black;stroke-width:1px;stroke-opacity:0.8" d="M200,-5 v5 Q203,5 200,10 v10 Q199,27 195,30 193,40 195,50 196,56 185,85 L174,108 Q173,140 140,140 123,136 105,150 95,155 87,156 79,157 66,176 40,200 25,200 13,198 0,200 h-5 v200 h5 Q29,392 35,395 50,397 65,395 73,394 75,390 76,387 100,390 125,395 150,390 175,390 180,400 185,408 205,408 217,414 227,410 250,420 250,450 253,456 250,465 248,473 250,479 243,488 240,498 236,505 221,505 215,513 210,515 208,524 200,525 v10 Q205,544 202,548 v11 Q205,562,200,580 198,590 200,600 v5 h200 v-5 Q401,595 400,590 398,585 400,580 404,565 402,560 401,550 410,535 410,525 412,515 415,507 413,502 410,494 420,475 427,462 435,450 440,440 440,415 443,377 450,365 455,350 455,335 458,325 455,315 v-20 Q445,264 450,250 458,220 450,200 441,177 443,170 v-18 Q427,121 430,115 413,85 415,75 414,67 407,50 402,32 402,25 402,15 400,0 v-5 Z"/>
</svg>
