<svg xmlns="http://www.w3.org/2000/svg" viewBox="0 0 600 600">
	<path style="fill:white;fill-opacity:0.75;stroke:black;stroke-width:1px;stroke-opacity:0.8" d="M200,-5 v5 Q201,20 205,25 v16 Q210,58 208,65 206,85 211,100 221,123 216,135 L220,150 Q227,163 215,185 205,210 176,222 150,235 130,235 118,231 100,230 71,205 50,205 45,202 10,202 5,200 0,200 h-5 v200 h5 Q12,401 14,405 17,408 25,409 30,425 40,435 L44,452 Q75,480 100,490 113,494 112,500 124,526 145,535 158,545 165,560 166,564 170,565 180,570 185,580 190,586 192,587 200,594 200,600 v5 h200 v-5 Q391,555 400,525 400,515 404,510 402,500 412,470 C412,436 405,454 438,420 Q448,410 450,410 464,390 465,370 h2 Q464,345 466,318 452,302 446,290 437,287 439,277 T432,268 430,250 L415,220 Q414,211 410,210 404,185 405,180 409,173 405,165 403,155 403,150 404,136 397,130 388,120 382,99 384,93 380,85 L390,64 Q395,58 400,45 398,22 400,10 402,8 400,0 v-5 Z"/>
</svg>
