<svg xmlns="http://www.w3.org/2000/svg" viewBox="0 0 600 600">
	<path style="fill:white;fill-opacity:0.75;stroke:black;stroke-width:1px;stroke-opacity:0.8" d="M200,-5 v5 Q202,5 205,7 208,10 207,17 218,35 215,50 v20 Q218,80 215,94 214,104 200,114 L181,124 Q162,126 150,145 130,162 110,169 h-14 Q90,170 88,179 L60,200 Q45,206 25,200 h-30 v200 h5 Q14,400 15,405 16,409 25,410 35,420 35,425 41,436 50,440 56,444 57,450 69,473 85,475 100,481 103,500 125,525 150,533 h15 Q173,543 180,545 195,555 195,570 196,584 200,582 202,593 200,600 v5 h200 v-5 Q401,595 398,590 397,587 398,584 398,581 396,578 394,575 397,570 398,566 395,559 395,548 410,519 414,515 412,507 418,493 426,486 L437,460 Q435,450 440,435 445,410 443,400 433,383 425,360 425,355 420,355 415,350 410,340 405,330 397,323 397,310 391,295 394,288 390,280 392,266 400,265 408,258 411,250 415,245 423,240 424,225 438,219 L445,190 v-14 Q436,160 435,143 423,135 426,120 429,105 420,88 426,82 415,65 415,60 410,50 400,30 402,25 404,20 400,15 v-20 Z"/>
</svg>
