<svg xmlns="http://www.w3.org/2000/svg" viewBox="0 0 600 600">
	<path style="fill:white;fill-opacity:0.75;stroke:black;stroke-width:1px;stroke-opacity:0.8" d="M200,-5 v5 Q202,20 200,40 186,85 195,105 197,113 195,125 188,150 190,170 192,178 190,185 L180,205 Q180,233 150,236 140,240 125,236 120,235 117,230 115,222 105,224 96,225 92,220 80,213 65,210 50,200 25,203 10,199 0,200 h-5 v200 h5 Q5,399 10,400 15,403 20,404 29,411 35,420 40,426 50,432 60,437 65,445 65,452 90,465 96,467 100,476 L125,502 Q134,507 140,520 146,525 150,535 158,541 160,545 163,548 170,550 178,551 180,555 185,565 195,570 202,580 204,590 200,595 200,600 v5 h200 v-5 Q402,580 395,560 390,545 391,533 C368,482 368,500 380,475 Q386,460 385,450 381,436 382,425 383,420 380,415 381,404 377,395 v-10 Q370,372 372,365 365,335 367,330 364,320 370,305 L371,275 C355,230 355,250 379,205 Q382,185 380,165 374,145 391,100 390,85 395,75 395,60 397,52 390,26 400,0 v-5 Z"/>
</svg>
