<svg xmlns="http://www.w3.org/2000/svg" viewBox="0 0 600 600">
	<path style="fill:white;fill-opacity:0.75;stroke:black;stroke-width:1px;stroke-opacity:0.8" d="M200,-5 v15 Q181,27 184,32 185,35 180,40 170,50 168,49 162,48 150,65 141,67 136,76 107,102 95,85 68,73 50,95 49,100 44,101 45,120 40,140 36,142 35,150 35,175 25,179 20,200 13,197 8,202 0,200 h-5 v200 h5 Q8,397 15,400 h5 Q25,398 31,400 47,410 60,400 65,396 77,396 80,390 85,392 h15 Q108,392 115,400 121,406 129,407 129,413 140,412 152,419 165,410 197,403 200,435 213,441 211,475 L207,505 Q200,530 205,535 210,560 200,600 v5 h200 v-5 Q402,591 400,582 395,579 395,575 v-20 Q387,540 380,530 372,504 381,477 v-22 Q379,450 381,445 383,416 400,415 415,415 414,400 416,388 425,386 433,385 433,375 434,360 438,340 440,323 430,318 C410,290 425,295 400,300 Q370,300 370,280 370,260 355,250 340,245 340,230 340,215 332,215 327,213 325,200 323,180 315,175 313,170 315,145 320,130 317,125 315,113 325,110 332,101 340,100 351,96 360,85 h5 v-5 Q375,64 373,52 L382,40 Q395,34 394,21 400,15 400,0 v-5 Z"/>
</svg>
