<svg xmlns="http://www.w3.org/2000/svg" viewBox="0 0 600 600">
	<path style="fill:white;fill-opacity:0.75;stroke:black;stroke-width:1px;stroke-opacity:0.8" d="M200,-5 v10 Q203,12 201,17 v12 Q205,48 203,65 201,68 204,72 214,90 214,106 v42 Q212,153 213,157 214,162 210,170 203,180 210,190 211,195 210,200 204,278 163,253 149,256 140,250 125,245 120,235 102,218 90,220 80,220 75,215 65,208 50,204 43,200 38,202 33,204 25,200 18,198 12,200 h-17 v200 h15 Q20,397 27,400 34,402 41,410 60,410 70,420 85,436 83,441 93,456 95,470 105,482 125,485 135,492 145,493 175,505 184,525 185,531 191,534 L200,555 Q204,563 200,570 196,575 200,583 202,590 200,600 v5 h200 v-5 Q397,595 400,591 402,578 401,562 410,550 408,540 v-28 Q420,487 435,480 L440,475 Q451,468 451,460 451,450 457,445 v-4 Q464,435 465,427 v-29 Q472,365 468,360 L471,313 Q463,300 466,288 453,270 450,250 450,240 445,238 435,235 432,215 430,190 410,180 400,175 400,162 400,155 395,149 395,135 390,130 390,115 385,105 384,98 386,95 388,90 390,75 390,70 395,55 398,47 398,35 398,30 400,23 401,18 400,13 v-18 Z"/>
</svg>
