<svg xmlns="http://www.w3.org/2000/svg" viewBox="0 0 600 600">
	<path style="fill:white;fill-opacity:0.75;stroke:black;stroke-width:1px;stroke-opacity:0.8" d="M200,-5 v5 Q204,8 200,16 V45 Q211,58 206,70 208,75 205,82 204,90 207,95 211,99 212,110 215,120 214,126 211,130 212,135 210,151 196,154 182,157 176,170 161,170 161,175 156,183 150,187 144,189 140,198 123,217 115,213 93,220 85,218 77,222 72,220 67,217 60,217 57,220 50,215 41,200 0,200 h-5 v200 h5 Q18,401 20,395 21,393 25,392 35,390 40,385 60,377 75,383 77,387 81,387 90,390 95,394 95,401 100,404 120,420 113,445 110,455 115,460 123,466 125,472 134,485 150,486 h10 Q185,491 185,500 186,515 190,525 201,555 195,560 192,570 195,575 201,580 200,600 v5 h200 v-5 Q402,590 400,581 398,567 394,560 392,544 385,535 377,525 375,510 374,497 360,490 351,480 342,475 325,445 330,440 333,433 330,420 L325,390 Q321,373 325,365 326,360 325,355 314,337 330,325 350,312 356,300 360,290 366,285 372,283 375,277 380,270 385,269 395,265 400,255 404,247 410,244 413,242 415,235 L425,212 Q429,205 425,200 415,188 430,155 433,145 430,133 420,110 425,95 417,83 415,75 413,70 410,65 400,49 403,45 404,42 400,35 v-20 Q403,10 400,0 v-5 Z"/>
</svg>
