<svg xmlns="http://www.w3.org/2000/svg" viewBox="0 0 600 600">
	<path style="fill:white;fill-opacity:0.75;stroke:black;stroke-width:1px;stroke-opacity:0.8" d="M200,-5 v5 Q199,5 200,8 203,20 202,34 202,38 205,45 207,50 210,58 v12 Q220,88 219,103 222,115 219,127 220,140 213,153 210,165 190,175 177,182 167,180 157,183 149,180 145,177 140,177 135,177 130,174 126,172 118,175 103,175 85,186 75,191 60,195 51,198 45,196 40,195 20,200 12,198 0,200 h-5 v200 h15 Q14,401 15,405 h5 Q24,406 25,410 35,420 48,426 62,435 65,445 79,471 100,475 108,477 114,483 114,489 120,496 125,510 137,520 135,535 150,545 157,553 167,557 L188,576 Q200,583 200,600 v5 h200 v-5 Q400,589 405,587 405,570 410,563 413,558 413,550 L422,537 Q424,508 438,492 440,480 445,475 444,464 450,455 450,445 455,440 464,416 460,410 457,407 460,400 460,386 467,383 v-20 Q470,355 465,335 v-40 Q462,289 463,270 464,265 463,260 461,250 462,245 461,234 455,225 448,217 449,205 445,196 448,190 450,185 447,175 449,170 440,150 L431,130 Q426,123 427,115 429,107 425,100 L412,65 Q413,60 410,55 405,48 405,40 400,30 401,25 403,17 400,10 v-15 Z"/>
</svg>
