<svg xmlns="http://www.w3.org/2000/svg" viewBox="0 0 600 600">
	<path style="fill:white;fill-opacity:0.75;stroke:black;stroke-width:1px;stroke-opacity:0.8" d="M200,-5 v55 Q210,85 207,100 206,115 210,123 215,137 210,150 208,159 200,164 194,169 190,178 185,185 168,190 158,192 145,190 129,180 108,183 99,177 90,185 L62,195 Q55,198 50,195 31,191 14,200 h-19 v200 h5 Q8,402 15,400 20,398 35,400 h7 Q56,392 65,393 91,390 105,373 116,362 135,364 145,364 146,360 165,353 180,352 194,348 210,355 215,358 220,357 225,360 228,367 240,380 250,400 263,429 245,457 246,480 241,490 235,493 225,530 224,534 220,535 215,540 214,551 214,564 205,575 L200,600 v5 h200 v-5 Q402,595 401,589 404,584 403,575 404,560 409,550 413,540 415,522 420,500 419,481 420,470 425,460 432,450 430,440 427,435 435,425 440,421 439,407 432,400 440,390 445,380 440,365 436,358 436,345 v-25 Q433,305 435,295 430,284 440,270 465,244 455,225 455,215 450,210 448,205 448,200 448,193 445,190 443,185 444,175 438,170 443,160 445,154 436,150 431,143 433,138 435,133 430,127 427,122 428,118 430,110 419,90 415,80 405,66 408,45 399,20 L400,0 v-5 Z"/>
</svg>
