<svg xmlns="http://www.w3.org/2000/svg" viewBox="0 0 600 600">
	<path style="fill:white;fill-opacity:0.75;stroke:black;stroke-width:1px;stroke-opacity:0.8" d="M200,-5 v5 Q202,7 200,10 196,22 200,26 201,30 200,34 199,42 200,50 207,65 205,74 200,81 201,85 v15 Q198,105 200,110 v4 Q195,120 195,123 175,141 180,145 184,152 175,160 170,165 165,165 158,165 152,175 146,176 145,180 137,187 130,190 124,190 110,200 h-15 Q75,207 65,204 58,200 50,205 41,214 0,200 h-5 v200 h5 Q12,402 17,400 25,395 35,395 48,388 50,390 h10 Q105,370 110,375 115,377 120,375 L160,361 h5 Q177,357 185,360 192,360 195,365 205,359 213,365 225,367 231,371 231,380 240,380 247,382 247,385 247,394 250,395 261,404 268,417 v25 Q265,450 265,455 264,459 260,461 255,463 255,480 250,500 236,505 232,513 227,515 221,516 222,525 218,540 210,543 207,550 209,555 210,560 204,575 199,590 200,600 v5 h200 v-22 Q415,560 445,542 460,540 467,527 467,523 470,520 472,513 475,510 479,506 477,496 476,491 482,486 L486,475 Q484,469 489,461 v-23 Q491,432 487,432 484,433 482,418 482,405 475,403 v-10 Q471,388 473,383 475,375 473,367 470,360 471,349 C482,320 482,330 475,320 Q465,303 467,300 470,295 467,290 465,287 466,283 440,262 448,240 451,228 445,229 437,229 440,210 438,193 425,184 418,182 416,175 415,170 410,165 410,159 407,153 408,142 400,140 382,130 400,108 403,90 401,82 400,76 405,70 411,60 405,45 405,30 400,20 398,12 400,0 v-5 Z"/>
</svg>
