<svg xmlns="http://www.w3.org/2000/svg" viewBox="0 0 600 600">
	<path style="fill:white;fill-opacity:0.75;stroke:black;stroke-width:1px;stroke-opacity:0.8" d="M-5,200 h10 Q10,203 20,200 25,199 30,200 38,194 45,197 50,198 55,198 65,198 70,203 74,211 80,213 87,216 83,225 81,233 85,240 89,241 92,244 101,250 110,245 117,243 125,245 137,233 145,238 151,241 156,239 174,233 187,234 190,215 200,215 212,202 200,190 212,178 217,185 222,190 230,190 240,188 243,195 245,202 250,202 263,202 270,208 285,214 300,215 307,218 325,215 335,211 340,212 346,211 350,207 360,197 370,194 377,193 382,180 390,165 395,165 401,164 404,160 406,157 410,159 418,155 422,157 429,160 440,155 450,152 460,151 h25 Q491,158 495,158 500,157 503,160 506,162 510,160 526,150 535,160 548,173 555,173 563,173 565,177 568,183 570,185 578,187 578,190 580,198 600,200 h5 v200 h-5 Q565,410 560,425 555,433 545,435 537,435 525,445 515,455 518,460 519,462 514,467 512,479 500,483 493,485 489,500 C485,515 490,513 485,525 v10 Q480,543 471,545 464,556 450,555 435,560 425,570 v5 Q400,584 400,600 v5 h-200 v-5 Q200,572 205,570 215,550 205,540 199,530 205,520 210,500 195,481 188,477 190,465 L180,450 Q178,442 165,440 h-15 Q138,440 125,435 L98,425 Q90,418 80,424 61,424 55,415 51,408 40,407 35,404 25,405 20,405 15,400 8,398 0,400 h-5 Z"/>
</svg>
