<svg xmlns="http://www.w3.org/2000/svg" viewBox="0 0 600 600">
	<path style="fill:white;fill-opacity:0.75;stroke:black;stroke-width:1px;stroke-opacity:0.8" d="M-5,200 h15 Q35,199 43,195 h7 Q80,200 85,197 90,196 105,200 119,205 135,205 165,210 167,215 170,223 200,230 213,237 217,250 229,265 220,280 206,305 230,330 238,338 238,345 240,355 245,360 249,361 250,365 255,375 262,377 C265,385 268,380 272,385 Q282,392 290,388 295,386 300,388 335,390 340,375 350,360 365,355 375,350 380,340 388,318 400,307 417,287 419,250 420,226 435,217 449,199 445,185 443,176 455,168 462,165 465,168 468,169 475,165 482,160 500,163 505,164 520,160 535,155 547,157 545,162 550,175 C555,184 550,181 555,190 Q558,210 600,200 h5 v200 h-5 Q585,402 580,405 572,413 565,413 556,416 545,425 542,433 535,435 512,448 499,471 499,475 495,478 495,485 490,492 478,499 470,515 466,521 467,525 462,537 450,545 440,552 440,557 428,570 415,575 401,585 400,600 v5 h-200 v-5 Q200,590 205,585 205,580 210,580 215,575 214,565 216,552 222,544 221,527 224,506 220,505 217,500 210,498 195,500 175,515 170,513 164,513 155,520 137,533 125,530 115,530 110,535 78,540 68,508 68,495 60,490 58,485 59,480 59,465 50,455 45,445 45,435 40,420 25,416 12,401 0,400 h-5 Z"/>
</svg>
