<svg xmlns="http://www.w3.org/2000/svg" viewBox="0 0 600 600">
	<path style="fill:white;fill-opacity:0.75;stroke:black;stroke-width:1px;stroke-opacity:0.8" d="M-5,200 h5 Q5,202 10,200 20,199 30,200 40,201 50,206 60,206 65,210 74,215 85,214 98,218 130,204 145,201 155,195 175,188 185,192 193,195 202,192 232,206 245,190 255,185 259,175 260,170 270,163 280,155 284,140 290,130 300,126 312,118 315,121 325,123 335,122 341,126 350,125 375,125 380,130 415,142 421,138 444,134 445,145 451,163 465,165 489,170 500,185 510,192 525,195 548,213 600,200 h5 v200 h-15 Q547,393 535,400 528,398 525,400 515,401 500,415 v5 Q496,425 498,430 496,436 497,444 493,446 490,452 477,464 465,458 460,455 440,465 432,471 424,466 412,473 405,486 419,501 398,520 394,540 400,560 402,575 400,600 v5 h-200 v-10 Q207,580 200,578 v-5 Q188,550 185,535 182,522 178,520 180,491 175,486 165,480 160,465 157,458 150,456 135,455 125,456 113,464 90,452 h-12 Q61,430 35,409 23,407 15,400 h-20 Z"/>
</svg>
