<svg xmlns="http://www.w3.org/2000/svg" viewBox="0 0 600 600">
	<path style="fill:white;fill-opacity:0.75;stroke:black;stroke-width:1px;stroke-opacity:0.8" d="M-5,200 h5 Q3,202 7,200 11,199 20,200 60,185 80,195 105,203 130,190 145,180 180,182 190,184 200,180 220,176 235,185 255,192 275,190 h10 Q299,191 300,195 308,203 320,205 326,207 331,210 345,218 380,210 400,207 410,208 420,192 450,195 465,193 480,194 501,188 510,190 525,194 540,193 566,198 575,195 583,193 586,195 592,201 600,200 h5 v200 h-25 Q573,404 565,405 h-45 Q512,404 508,400 500,396 485,395 465,391 445,395 435,395 432,397 424,396 414,399 h-5 Q394,409 385,430 v18 Q370,480 383,500 389,507 387,525 C387,532 392,532 393,542 Q400,550 400,560 395,575 400,590 v15 h-200 v-15 Q193,585 194,580 193,575 187,570 175,555 170,540 168,533 165,530 160,523 162,515 163,507 155,490 146,480 150,475 152,460 150,450 148,445 150,440 152,430 150,420 142,400 144,390 145,382 135,375 123,363 100,357 91,355 80,360 L64,369 Q60,380 45,383 33,393 20,395 10,401 0,400 h-5 Z"/>
</svg>
