<svg xmlns="http://www.w3.org/2000/svg" viewBox="0 0 600 600">
	<path style="fill:white;fill-opacity:0.75;stroke:black;stroke-width:1px;stroke-opacity:0.8" d="M-5,200 h5 Q25,200 35,215 40,219 45,215 50,213 66,214 70,208 80,210 90,214 100,210 113,206 130,207 135,210 150,205 170,192 200,190 217,188 217,180 225,170 250,170 277,167 285,157 300,145 316,155 330,163 340,163 350,161 357,170 369,180 380,183 392,182 400,190 404,201 415,205 425,205 430,210 L460,213 Q473,212 475,220 476,230 490,230 527,230 543,210 558,200 565,205 575,209 585,205 592,198 600,200 h5 v200 h-9 Q588,398 580,400 h-10 Q560,402 549,400 542,397 535,400 L519,409 Q513,433 500,440 L490,450 Q492,455 490,460 489,470 485,475 v7 Q477,489 470,489 465,490 463,497 460,500 458,505 426,526 430,550 425,565 420,567 413,568 411,575 410,580 405,582 400,590 400,600 v5 h-200 v-5 Q198,587 200,580 204,570 203,560 203,555 210,545 230,535 229,500 230,493 225,485 213,463 218,455 218,445 220,440 227,425 220,420 210,415 205,405 197,399 185,401 173,405 155,400 154,404 150,405 145,406 141,410 136,415 130,417 128,417 125,421 110,452 90,425 79,412 50,420 37,419 39,413 30,412 25,405 15,400 0,400 h-5 Z"/>
</svg>
