<svg xmlns="http://www.w3.org/2000/svg" viewBox="0 0 600 600">
	<path style="fill:white;fill-opacity:0.75;stroke:black;stroke-width:1px;stroke-opacity:0.8" d="M-5,200 h10 C25,192 19,207 55,185 80,170 70,185 100,170 133,150 122,162 127,150 136,127 133,129 165,129 195,126 175,117 214,114 Q231,124 244,140 249,161 260,170 273,173 275,195 278,200 280,205 C281,215 287,220 300,223 Q320,230 333,239 356,238 372,250 388,270 435,260 443,255 450,258 h22 C495,246 505,250 520,235 570,190 563,225 590,200 h15 v200 h-9 Q580,403 565,402 557,405 550,404 530,410 525,420 526,425 515,430 485,444 475,465 C475,490 467,478 467,490 Q468,495 465,500 v16 Q460,525 462,535 452,554 435,560 401,565 400,600 v5 h-200 v-5 Q200,580 219,561 217,546 250,528 263,517 258,500 268,480 280,465 C282,440 273,442 275,416 250,405 265,405 240,395 225,388 240,386 210,380 h-35 Q158,370 135,380 C108,382 112,388 90,388 Q80,382 65,391 C45,405 25,395 4,400 h-9 Z"/>
</svg>
