<svg xmlns="http://www.w3.org/2000/svg" viewBox="0 0 600 600">
	<path style="fill:white;fill-opacity:0.75;stroke:black;stroke-width:1px;stroke-opacity:0.8" d="M-5,200 h13 Q17,196 37,197 53,186 60,190 70,193 85,185 91,177 102,173 106,166 120,170 h15 Q147,182 150,180 160,172 170,180 187,190 183,205 181,209 187,215 L205,230 Q210,235 220,235 235,240 235,250 236,258 250,264 C260,270 250,272 270,272 Q275,270 280,272 287,275 305,270 314,261 328,260 339,246 357,245 370,249 375,247 382,246 388,247 L411,239 h15 Q445,230 464,223 475,190 520,185 530,191 540,190 550,193 560,194 580,203 600,200 h5 v200 h-5 Q570,409 540,400 530,400 520,398 510,398 500,396 490,396 480,394 465,395 450,389 h-9 Q435,386 425,389 415,387 407,391 398,391 392,396 375,405 370,425 365,435 369,441 370,445 368,454 384,480 380,500 376,520 380,525 381,549 391,560 C395,590 400,580 400,600 v5 h-200 v-5 Q202,593 200,585 C195,575 198,568 193,556 Q196,536 205,525 208,518 205,505 201,495 203,470 204,467 200,460 195,455 193,444 175,427 150,431 140,436 126,430 115,428 100,417 h-38 Q50,415 44,410 38,406 25,405 15,400 0,400 h-5 Z"/>
</svg>
