<svg xmlns="http://www.w3.org/2000/svg" viewBox="0 0 600 600">
	<path style="fill:white;fill-opacity:0.75;stroke:black;stroke-width:1px;stroke-opacity:0.8" d="M-5,200 h15 Q25,195 40,195 50,192 60,195 70,197 85,194 102,183 105,185 115,187 150,179 177,164 187,180 194,180 198,185 212,186 215,193 244,203 280,190 303,177 325,180 350,165 380,165 389,160 400,165 409,170 425,168 432,168 435,171 440,177 455,180 475,180 500,185 510,186 512,190 516,194 525,194 535,194 550,200 560,201 575,199 579,203 600,200 h5 v200 h-5 Q580,400 546,392 532,393 530,390 h-10 Q516,385 510,388 499,391 485,385 475,383 465,387 460,392 445,395 427,394 424,405 424,415 420,420 417,426 425,439 430,442 428,450 430,455 429,464 427,471 429,478 428,482 430,487 440,502 425,510 410,520 406,540 405,548 398,550 397,555 400,575 403,583 400,600 v5 h-200 v-5 Q198,590 201,575 206,565 200,546 222,499 205,480 198,475 197,465 197,458 190,455 170,450 167,425 169,408 150,403 140,401 130,395 122,388 102,389 88,385 55,399 25,403 0,400 h-5 Z"/>
</svg>
