<svg xmlns="http://www.w3.org/2000/svg" viewBox="0 0 600 600">
	<path style="fill:white;fill-opacity:0.75;stroke:black;stroke-width:1px;stroke-opacity:0.8" d="M-5,200 h30 Q28,202 32,202 39,208 50,209 63,214 75,210 88,205 103,204 114,200 121,202 125,204 137,203 149,208 160,204 170,203 180,204 186,206 192,205 196,203 200,205 h17 Q242,215 260,208 267,206 273,209 300,208 315,210 330,200 350,201 370,198 395,200 413,210 425,209 435,211 445,215 465,215 470,218 478,222 495,215 505,210 526,209 550,209 557,203 585,204 600,200 h5 v200 h-5 Q575,402 570,412 565,420 550,430 538,436 529,450 527,477 500,493 498,498 495,500 485,525 470,536 463,537 460,545 454,555 440,559 425,565 415,575 405,576 400,600 v5 h-200 v-5 Q199,585 200,575 204,560 203,552 212,525 210,491 190,475 177,450 175,435 138,438 125,435 120,425 120,416 110,415 100,413 95,405 73,397 55,400 40,404 0,400 h-5 Z"/>
</svg>
