<svg xmlns="http://www.w3.org/2000/svg" viewBox="0 0 600 600">
	<path style="fill:white;fill-opacity:0.75;stroke:black;stroke-width:1px;stroke-opacity:0.8" d="M-5,200 h5 C15,197 15,204 25,201 38,198 45,205 50,215 53,245 65,215 68,248 75,267 87,280 115,280 130,277 125,282 149,281 Q172,287 180,280 200,272 226,270 225,263 260,240 268,237 270,230 278,213 290,200 C305,175 308,175 306,150 315,130 305,140 331,129 Q347,129 355,125 358,123 361,125 378,125 385,130 C405,137 425,137 435,130 h12 C465,133 455,138 480,138 510,138 490,132 510,150 Q520,179 541,189 C540,205 550,215 600,200 h5 v200 h-5 C590,402 580,398 575,400 552,409 510,390 460,400 450,400 440,408 430,403 420,410 413,422 420,430 430,440 416,470 427,500 430,505 420,525 415,530 413,548 405,547 405,555 405,575 397,590 400,600 v5 h-200 v-15 Q193,580 195,565 186,548 165,550 144,550 127,535 123,528 110,525 75,504 81,500 82,492 80,480 65,451 69 445 65,408 35,408 C27,403 17,404 11,400 Q8,398 0,400 h-5 Z"/>
</svg>
