<svg xmlns="http://www.w3.org/2000/svg" viewBox="0 0 600 600">
	<path style="fill:white;fill-opacity:0.75;stroke:black;stroke-width:1px;stroke-opacity:0.8" d="M-5,200 h13 Q11,195 20,195 35,191 45,185 L52,183 Q58,174 65,170 70,165 75,160 85,150 103,148 125,130 150,120 167,112 175,100 182,93 190,91 192,73 245,73 250,83 300,84 313,86 318,91 332,104 350,112 361,119 365,125 369,136 380,140 382,141 385,145 387,150 400,155 412,164 425,170 434,188 475,184 480,188 495,188 513,190 533,199 550,199 560,200 580,202 600,200 h5 v200 h-5 Q560,405 557,448 549,459 546,467 v6 Q539,479 537,485 537,490 535,492 531,495 530,500 525,505 523,510 520,526 500,529 490,530 486,535 480,544 470,545 460,546 450,556 442,556 435,561 416,566 415,572 398,584 400,600 v5 h-200 v-40 Q198,557 200,553 217,515 203,500 200,495 204,478 203,470 204,460 205,455 200,445 185,430 175,425 160,415 157,397 148,397 135,390 117,385 95,390 87,387 82,393 75,393 55,400 42,396 35,400 25,402 10,400 5,398 0,400 h-5 Z"/>
</svg>
