<svg xmlns="http://www.w3.org/2000/svg" viewBox="0 0 600 600">
	<path style="fill:white;fill-opacity:0.75;stroke:black;stroke-width:1px;stroke-opacity:0.8" d="M-5,200 h15 Q25,203 35,210 46,215 50,214 57,214 70,225 77,225 85,230 100,234 110,230 122,227 130,229 135,231 142,229 150,227 157,229 179,230 190,250 199,262 211,264 230,268 250,279 284,294 300,285 310,283 320,285 345,296 375,280 407,267 433,245 441,235 455,237 498,227 505,215 513,203 525,200 542,194 560,200 h45 v200 h-20 Q578,403 570,400 560,398 550,400 C540,397 540,403 530,400 Q525,395 510,400 505,395 495,401 C484,400 465,405 465,423 Q458,432 461,439 451,448 448,457 450,470 413,483 408,493 405,497 397,512 402,530 v10 Q405,558 399,569 v13 Q402,590 400,600 v5 h-200 v-5 C201,574 207,590 208,565 Q208,553 210,545 213,525 210,515 200,505 205,500 208,494 200,480 C188,473 169,463 150,487 Q136,496 135,510 134,514 130,513 L120,525 Q106,529 90,525 85,525 85,520 68,520 65,495 L55,485 Q55,453 50,445 40,432 40,425 25,410 13,400 h-18 Z"/>
</svg>
