<svg xmlns="http://www.w3.org/2000/svg" viewBox="0 0 600 600">
	<path style="fill:white;fill-opacity:0.75;stroke:black;stroke-width:1px;stroke-opacity:0.8" d="M-5,200 h9 C13,195 34,213 60,200 77,192 113,202 123,190 Q128,192 130,186 195,188 200,175 C204,169 245,163 260,150 275,140 300,140 315,140 333,136 327,136 350,140 400,133 401,160 415,160 445,160 427,192 500,189 524,185 504,222 555,200 563,198 580,208 600,200 h5 v200 h-5 C565,398 585,405 570,416 565,425 545,425 523,445 523,454 515,458 500,456 484,454 470,475 460,469 441,482 425,459 415,465 410,466 403,458 395,460 Q365,465 360,500 C355,520 370,516 372,530 375,545 393,552 390,570 393,590 402,595 400,600 v5 h-200 v-5 C199,595 204,588 200,580 196,572 209,547 200,527 Q194,515 195,507 L180,495 Q170,488 150,490 C132,488 133,481 120,481 110,481 105,489 85,489 75,489 43,485 40,475 37,466 25,460 30,445 Q35,402 0,400 h-5 Z"/>
</svg>
