<svg xmlns="http://www.w3.org/2000/svg" viewBox="0 0 600 600">
	<path style="fill:white;fill-opacity:0.75;stroke:black;stroke-width:1px;stroke-opacity:0.8" d="M-5,200 h5 C13,202 12,196 20,198 35,199 35,177 50,177 65,177 53,171 76,172 Q85,181 95,187 97,200 104,208 107,234 126,243 126,267 150,276 C162,276 160,280 175,280 Q190,285 205,280 C222,272 218,282 236,272 250,265 245,260 255,255 270,248 265,256 285,250 305,232 301,241 299,225 295,200 309,200 315,180 Q322,182 328,178 322,160 335,150 L350,138 C355,133 360,137 362,130 370,117 375,130 400,131 Q412,132 420,140 C430,147 413,155 425,165 435,168 440,170 440,180 Q445,201 465,200 480,205 490,203 501,202 510,210 525,225 535,215 550,208 546,205 552,207 555,205 560,200 600,200 h5 v200 h-9 C586,398 580,395 573,395 568,395 560,400 550,395 Q545,388 500,385 C485,385 480,400 450,400 435,400 437,408 430,410 Q420,416 413,428 401,438 390,455 v10 C399,506 383,494 386,510 389,535 395,525 395,545 395,560 403,580 400,600 v5 h-200 v-45 C200,550 192,545 192,530 189,485 180,485 165,487 149,483 155,485 150,484 132,480 126,472 124,457 125,435 130,450 120,435 105,405 105,430 90,410 50,396 40,405 25,400 Q13,402 0,400 h-5 Z"/>
</svg>
