<svg xmlns="http://www.w3.org/2000/svg" viewBox="0 0 600 600">
	<path style="fill:white;fill-opacity:0.75;stroke:black;stroke-width:1px;stroke-opacity:0.8" d="M-5,200 h5 C15,205 25,192 50,192 80,196 92,190 100,180 140,163 110,160 150,150 160,144 164,149 185,149 200,148 190,146 216,146 250,125 228,153 279,118 Q290,120 315,109 h15 Q360,122 390,129 425,130 436,150 C457,178 470,165 475,180 485,190 475,187 490,187 505,195 515,187 520,198 548,210 555,201 574,201 583,206 590,199 600,200 h5 v200 h-5 C575,404 585,410 570,423 Q563,426 560,435 C541,439 543,465 530,483 Q522,492 510,500 495,530 460,530 425,527 407,548 C407,560 402,565 403,580 403,590 399,585 400,600 v5 h-200 v-25 C191,550 200,530 195,500 194,480 213,470 215,440 215,415 235,420 219,400 212,392 200,387 185,387 h-40 C125,389 150,378 100,390 85,395 87,388 73,395 h-15 C30,395 40,404 0,400 h-5 Z"/>
</svg>
