<svg xmlns="http://www.w3.org/2000/svg" viewBox="0 0 600 600">
	<path style="fill:white;fill-opacity:0.75;stroke:black;stroke-width:1px;stroke-opacity:0.8" d="M-5,200 h5 Q4,202 8,198 C20,205 35,198 50,200 Q75,198 85,189 110,187 125,173 155,170 180,160 C206,140 215,158 230,158 265,162 268,193 290,185 320,188 320,198 345,198 370,212 390,198 405,198 418,204 423,198 435,198 445,198 455,202 475,195 492,190 525,187 542,199 555,198 580,204 600,200 h5 v200 h-5 C585,400 582,392 575,392 570,392 573,387 560,387 h-10 C535,387 540,382 525,382 Q503,380 490,390 467,398 450,420 C435,445 445,450 437,468 v5 L416,506 Q400,520 401,550 396,572 400,600 v5 h-200 v-30 C200,558 197,578 195,550 Q183,503 145,510 130,520 90,506 65,510 65,480 C60,475 65,463 60,460 57,457 55,442 50,445 30,425 42,398 0,400 h-5 Z"/>
</svg>
