<svg xmlns="http://www.w3.org/2000/svg" viewBox="0 0 600 600">
	<path style="fill:white;fill-opacity:0.75;stroke:black;stroke-width:1px;stroke-opacity:0.8" d="M400,-5 v5 C399,10 406,13 407,20 410,29 434,37 440,60 443,81 464,82 470,100 L480,130 C487,148 502,148 515,160 530,170 540,185 560,190 569,192 580,202 600,200 h5 v200 h-5 C594,403 570,391 550,401 Q530,414 502,412 C490,418 473,416 465,421 435,420 420,435 400,432 387,425 333,446 300,435 290,438 284,418 250,415 190,410 184,360 195,320 203,298 185,290 185,280 187,270 177,255 180,240 186,229 177,205 178,185 v-30 C175,144 196,128 190,110 185,98 200,72 195,50 199,40 195,30 200,20 202,12 199,6 200,0 v-5 Z"/>
</svg>
