<svg xmlns="http://www.w3.org/2000/svg" viewBox="0 0 600 600">
	<path style="fill:white;fill-opacity:0.75;stroke:black;stroke-width:1px;stroke-opacity:0.8" d="M400,-5 v9 c4,10 -5,12 -5,18 0,8 5,8 3,13 0,12 2,5 2,15 C392,70 392,65 395,71 404,82 390,105 395,118 375,140 377,130 375,160 Q377,186 355,183 C350,186 343,183 335,185 327,183 323,192 324,200 Q325,215 310,210 C304,198 277,203 269,184 260,186 246,180 245,187 233,218 218,205 218,235 219,240 215,240 216,250 v7 C223,267 211,282 220,295 231,303 226,332 243,343 244,392 265,362 271,375 280,385 292,376 303,380 307,372 314,373 315,365 320,345 324,365 333,354 L350,340 C356,328 369,322 370,300 370,281 379,271 395,293 399,304 412,296 416,299 h4 C430,292 430,315 450,310 470,310 468,303 475,300 496,297 505,270 510,270 519,266 506,240 523,228 538,195 580,205 600,200 h5 v200 h-9 q-3,4 -5,0 c-23,5 -23,5 -27,15 -3,20 2,15 -18,25 -16,8 -10,2 -20,2 h-25 c-7,5 -10,0 -12,1 -6,2 -10,-5 -13,-3 -8,4 -15,-3 -21,0 q-14,5 -20,15 c-6,8 1,18 -5,26 q-10,10 -20,14 c-14,4 -12,2 -12,12 q-3,30 -35,43 -7,7 -12,0 c-9,0 -25,-12 -40,-5 -4,5 -15,-3 -20,0 q-15,4 -25,15 c-3,7 -6,-2 -15,11 c-5,14 -15,10 -30,4 -20,0 -10,-6 -25,-6 -6,4 -15,-4 -20,0 -25,1 -15,-8 -30,-8 -10,0 -5,-5 -12,-6 -10,0 -10,-15 -33,-20 -25,-8 -21,0 -20,-15 0,-15 -20,-20 -24,-45 0,-13 5,-10 4,-25 q0,-15 9,-17 v-20 c4,-10 -3,-20 -4,-27 -14,-10 -6,-30 -10,-35 -7,-9 4,-30 1,-35 v-15 c2,-10 -12,-22 -6,-30 0,-20 -10,-10 -10,-25 v-17 q4,-3 2,-15 7,-3 8,-23 c4,-6 -3,-14 10,-20 -8,-20 30,-14 22,-33 -4,-5 5,-12 3,-22 4,-10 17,-18 15,-21 0,-13 10,-15 25,-15 7,-7 12,-1 20,-5 18,-5 8,-15 18,-20 q20,0 20,-15 15,-8 16,-40 v-5 Z"/>
</svg>
