<svg xmlns="http://www.w3.org/2000/svg" viewBox="0 0 600 600">
	<path style="fill:white;fill-opacity:0.75;stroke:black;stroke-width:1px;stroke-opacity:0.8" d="M400,-5 v5 C400,24 405,15 405,25 405,38 416,44 416,50 L425,60 C425,65 430,80 431,88 434,96 447,104 451,120 455,130 455,150 465,155 L485,190 C491,196 481,206 500,223 511,234 519,252 525,249 530,245 535,251 540,248 545,245 557,246 560,240 583,225 585,199 600,200 h5 v200 h-5 C577,400 584,405 570,405 564,410 536,412 526,425 510,430 487,462 450,469 425,469 425,476 390,476 370,483 330,474 300,475 Q290,473 283,469 C272,457 288,450 240,460 Q230,465 200,445 C196,440 186,438 185,430 179,412 151,403 150,390 Q147,380 149,360 133,352 135,335 v-30 C135,285 130,305 130,275 125,255 128,235 135,225 145,215 144,220 140,200 139,185 145,178 145,150 160,130 160,134 158,130 160,104 180,100 180,90 181,80 194,72 195,50 L199,45 C195,35 207,13 200,0 v-5 Z"/>
</svg>
