<svg xmlns="http://www.w3.org/2000/svg" viewBox="0 0 600 600">
	<path style="fill:white;fill-opacity:0.75;stroke:black;stroke-width:1px;stroke-opacity:0.8" d="M400,-5 v5 Q400,14 394,21 C397,38 381,51 385,59 400,95 370,85 376,135 383,145 373,149 385,155 391,160 393,170 407,174 450,205 505,181 512,187 525,199 551,186 570,195 585,195 580,200 600,200 h5 v200 h-5 C587,393 567,409 550,399 540,395 515,402 510,410 490,445 465,440 450,450 438,460 425,450 400,456 375,465 365,460 350,467 328,485 327,461 300,456 290,456 287,443 270,440 255,438 246,408 230,400 205,377 232,350 210,335 188,308 213,275 195,245 188,240 207,199 190,180 178,168 198,125 195,96 214,48 198,8 200,0 v-5 Z"/>
</svg>
