<svg xmlns="http://www.w3.org/2000/svg" viewBox="0 0 600 600">
	<path style="fill:white;fill-opacity:0.75;stroke:black;stroke-width:1px;stroke-opacity:0.8" d="M200,-5 v9 c-5,5 0,10 -1,21 0,10 -8,25 -4,35 v15 c8,30 -7,40 -5,45 5,15 -15,30 -15,60 -8,18 23,50 0,75 -5,9 3,15 -2,30 h2 c0,25 5,20 5,35 0,20 10,30 9,50 -5,18 45,34 45,51 8,25 40,14 63,20 24,-15 36,9 83,6 22,-12 45,-2 65,-7 h40 c35,0 45,-25 55,-25 10,0 22,-5 28,-12 15,0 25,-6 32,-3 h5 v-200 h-5 c-10,2 -14,-6 -23,-5 -8,-8 -25,-10 -27,-25 0,-20 -30,-40 -25,-50 2,-6 -10,-13 -25,-20 -20,-5 -45,-20 -47,-35 0,-8 -15,-15 -18,-15 -10,-4 -18,-18 -30,-25 -4,-8 0,-12 -5,-20 v-10 Z"/>
</svg>
