<svg xmlns="http://www.w3.org/2000/svg" viewBox="0 0 600 600">
	<path style="fill:white;fill-opacity:0.75;stroke:black;stroke-width:1px;stroke-opacity:0.8" d="M200,-5 v5 c0,45 -25,40 -25,65 0,25 -45,55 20,85 5,5 10,3 15,5 10,8 22,8 25,15 q5,5 35,5 c30,0 45,18 55,17 40,5 42,40 50,43 5,13 0,30 10,30 58,37 0,70 25,85 8,8 12,18 20,23 39,50 55,10 110,27 h65 v-200 h-5 c-15,0 -32,-10 -35,-20 0,-9 -20,-20 -20,-30 0,-15 -23,-40 -23,-50 0,-9 -18,-18 -22,-25 -12,-17 -40,-18 -48,-25 -6,-7 -25,-10 -32,-20 -5,-14 -20,-10 -20,-35 Z"/>
</svg>
