<svg xmlns="http://www.w3.org/2000/svg" viewBox="0 0 600 600">
	<path style="fill:white;fill-opacity:0.75;stroke:black;stroke-width:1px;stroke-opacity:0.8" d="M200,-5 v12 c-1,3 -5,10 0,13 v5 c-6,5 -8,13 -15,15 -18,7 -4,27 -7,40 h3 c14,10 7,35 5,40 -4,25 13,8 18,10 18,0 22,20 22,25 -5,25 15,25 15,30 0,19 18,30 14,45 8,24 0,45 -15,47 q-10,0 -10,8 c-8,19 -8,15 5,27 5,9 19,-2 30,18 10,17 24,8 28,21 q12,0 15,-3 h5 q10,17 21,8 c19,0 20,-15 25,-7 6,8 9,3 25,3 3,6 16,9 8,23 -3,5 7,26 13,15 8,0 10,-9 18,0 5,5 12,0 17,1 5,2 11,-3 15,-1 5,5 15,0 20,-5 8,-5 6,-5 15,0 25,13 37,2 45,15 8,5 30,-5 65,0 h5 v-200 h-5 q-10,6 -20,0 -20,-23 -30,-40 -5,-15 -5,-30 c0,-12 -10,-25 -15,-20 -5,5 -17,-3 -25,0 -15,0 -15,-12 -25,-10 -18,-15 -18,-10 -15,-35 -55,-27 -45,-5 -65,-65 v-5 Z"/>
</svg>
