<svg xmlns="http://www.w3.org/2000/svg" viewBox="0 0 600 600">
	<path style="fill:white;fill-opacity:0.75;stroke:black;stroke-width:1px;stroke-opacity:0.8" d="M200-5 v5 c3,8 -3,30 0,40 2,12 10,20 12,25 1,5 10,8 13,15 0,5 30,25 24,32 14,24 -7,38 -10,37 -15,9 -24,15 -24,35 q-6,14 -4,29 c-22,28 -22,26 -20,37 2,15 -2,35 0,50 12,21 9,13 9,35 -4,7 6,40 20,45 24,7 32,30 55,28 25,0 25,8 32,8 17,0 13,15 43,15 13,5 40,-3 60,-1 23,-8 35,-2 40,-5 q32,-10 39,-8 l30,-15 c30,8 73,-5 81,-2 h5 v-200 h-15 q-7,-3 -15,0 h-20 c-10,0 -15,-12 -30,-12 -15,0 -33,-12 -33,-18 -3,-8 -15,-19 -35,-18 -10,-3 -20,-15 -20,-20 q-10,-12 -12,-32 c0,-10 -15,-25 -13,-35 2,-13 -15,-30 -12,-45 q4,-8 0,-20 v-5 Z"/>
</svg>
