<svg xmlns="http://www.w3.org/2000/svg" viewBox="0 0 600 600">
	<path style="fill:white;fill-opacity:0.75;stroke:black;stroke-width:1px;stroke-opacity:0.8" d="M200,-5 v5 q-3,5 0,10 c5,8 0,15 5,20 8,12 -3,31 5,40 q1,7 5,10 c0,30 10,15 20,35 l15,25 c15,18 8,40 5,60 0,34 -25,52 -15,58 5,9 -8,22 -10,37 -15,20 -25,50 -34,55 -5,0 -10,20 -15,25 -8,14 -20,18 -20,35 0,30 -15,45 -5,55 14,10 5,45 15,45 -8,40 22,37 25,55 0,10 4,15 3,20 0,5 4,10 1,15 v5 h200 v-10 q-5,-10 0,-25 v-25 c0,-25 -15,-40 -15,-50 0,-20 5,-15 5,-45 q0,-22 16,-39 c0,-20 22,-20 -5,-85 0,-10 -15,-25 -9,-35 q0,-38 10,-50 c-3,-4 7,-13 -1,-20 -19,-25 -15,-35 -10,-50 8,-19 -7,-28 2,-40 2,-15 -7,-18 3,-35 0,-10 10,-10 10,-30 0,-25 -12,-5 -9,-40 0,-15 5,-18 4,-25 v-5 Z"/>
</svg>
