<svg xmlns="http://www.w3.org/2000/svg" viewBox="0 0 600 600">
	<path style="fill:white;fill-opacity:0.75;stroke:black;stroke-width:1px;stroke-opacity:0.8" d="M200,-5 v5 c4,5 0,22 -10,29 -18,12 4,28 -9,45 -4,24 15,31 18,45 0,15 25,25 31,45 0,15 10,20 15,36 q0,10 11,25 v10 c8,13 -4,28 5,40 4,8 -2,18 4,30 v35 c-10,10 -5,10 -5,20 0,25 2,15 -9,35 -5,12 -10,30 -20,50 -15,20 -13,40 -20,45 0,25 -25,30 -13,55 0,25 6,35 2,55 v5 h200 v-20 c2,-10 6,-10 6,-15 0,-8 14,0 13,-25 17,-10 25,-30 36,-40 0,-20 40,-50 40,-85 10,-33 -3,-5 -3,-35 0,-35 -22,-60 -2,-85 13,-27 -5,-30 -10,-50 -5,-10 -10,-35 -35,-58 0,-40 -15,-40 -14,-60 -10,-4 -18,-20 -25,-25 -6,-2 -11,-4 -11,-25 0,-23 -15,-16 -15,-32 q0,-15 6,-18 c0,-12 14,-15 14,-32 v-5 Z"/>
</svg>
