<svg xmlns="http://www.w3.org/2000/svg" viewBox="0 0 600 600">
	<path style="fill:white;fill-opacity:0.75;stroke:black;stroke-width:1px;stroke-opacity:0.8" d="M200,-5 v14 c-5,0 0,15 -8,25 -11,10 -14,27 -41,40 -20,10 -13,25 -25,35 -9,30 0,20 -25,41 -13,7 -6,33 -22,40 q-10,5 -14,20 0,8 -5,10 -20,15 -15,30 c9,8 -7,35 5,55 5,45 20,40 20,70 0,15 25,30 30,50 1,15 25,20 35,40 1,15 12,15 15,30 25,10 20,45 30,50 11,10 8,25 15,30 1,10 7,18 5,25 v5 h200 v-10 q-4,-7 0,-20 c0,-10 -10,-10 -10,-35 0,-25 -25,-45 -25,-60 0,-20 -30,-25 -29,-65 -20,-20 -15,0 -18,-50 -20,-24 -38,-20 -40,-55 -5,-24 10,-37 5,-45 18,-15 -4,-30 17,-50 25,-20 20,-55 50,-85 15,-25 13,-20 20,-20 30,-25 40,-67 30,-80 0,-15 4,-20 0,-30 v-5 Z"/>
</svg>
