<svg xmlns="http://www.w3.org/2000/svg" viewBox="0 0 600 600">
	<path style="fill:white;fill-opacity:0.75;stroke:black;stroke-width:1px;stroke-opacity:0.8" d="M200,-5 v5 c0,20 -3,10 10,30 15,20 10,16 20,20 9,5 14,12 20,17 5,3 5,13 10,13 q10,5 10,15 5,9 0,20 c-2,6 0,20 -4,35 -6,8 -10,18 -15,17 q-12,8 -32,-2 c-20,-10 -32,0 -48,14 -6,21 -28,40 -33,62 -14,9 -29,36 -23,41 2,6 -6,25 0,38 31,8 20,80 35,76 15,5 24,11 24,38 1,25 8,20 8,35 2,9 0,10 0,20 0,10 -5,16 -2,26 12,20 9,12 9,30 1,11 12,15 11,55 v5 h200 v-5 c0,-30 -2,-15 10,-40 13,-40 10,-25 10,-35 0,-14 -4,-8 10,-25 20,-15 56,-90 40,-100 -20,-28 15,-65 -20,-75 -15,-5 -18,-25 0,-50 q15,-20 21,-39 0,-12 4,-20 4,-7 0,-11 c-9,-15 0,-10 -15,-45 l-10,-20 c0,-22 -16,-19 -13,-40 0,-15 -2,-5 -2,-15 -5,-30 -30,-48 -29,-55 0,-12 -6,-5 -6,-30 v-5 Z"/>
</svg>
