<svg xmlns="http://www.w3.org/2000/svg" viewBox="0 0 600 600">
	<path style="fill:white;fill-opacity:0.75;stroke:black;stroke-width:1px;stroke-opacity:0.8" d="M200,-5 v5 c5,21 -4,37 0,45 0,15 -15,30 -15,47 0,10 6,5 0,25 -21,16 -24,57 -43,83 -28,27 -4,70 -12,80 -4,10 3,50 14,65 q0,7 5,12 -8,18 1,25 c0,30 10,30 13,43 5,5 3,13 9,17 0,20 3,5 3,18 0,12 9,10 10,40 5,45 10,30 10,45 4,40 5,20 5,40 v20 h200 v-5 c-2,-6 2,-15 0,-20 3,-25 -4,-32 0,-38 0,-20 -10,-9 0,-42 0,-25 5,-10 5,-20 -9,-25 5,-37 -4,-43 0,-12 5,-6 -6,-29 0,-15 -7,-12 -10,-32 -5,-5 2,-12 -1,-20 v-15 c5,-16 -3,-22 0,-35 0,-25 5,-15 6,-36 v-15 q4,-5 0,-10 v-20 c12,-15 5,-24 7,-35 0,-15 8,-20 3,-25 -9,-20 8,-32 1,-44 0,-10 10,-18 8,-30 -5,-7 3,-15 -4,-25 0,-40 -5,-15 -5,-65 v-5 Z"/>
</svg>
