<svg xmlns="http://www.w3.org/2000/svg" viewBox="0 0 600 600">
	<path style="fill:white;fill-opacity:0.75;stroke:black;stroke-width:1px;stroke-opacity:0.8" d="M200,-5 v5 c0,30 10,20 10,40 0,10 6,8 6,20 0,9 5,12 2,20 0,9 4,10 -3,25 0,18 -14,0 -15,25 0,20 -14,30 -6,44 0,50 -8,10 -9,40 -5,60 -35,5 -33,69 l-35,44 q-4,0 -7,8 l-10,10 c-10,30 20,45 -3,60 l44,40 q1,5 25,8 c0,8 20,20 19,37 0,28 14,15 15,60 0,45 -4,40 0,50 v5 h200 v-5 c0,-20 0,-20 15,-24 18,-17 10,-25 12,-30 0,-13 -6,-5 -7,-26 0,-12 -6,-8 -6,-23 -7,-4 -3,-15 -14,-22 -10,-25 -7,-10 -7,-30 -1,-20 4,-30 7,-35 0,-15 10,-15 10,-25 0,-25 10,-27 -2,-35 0,-30 -7,-30 -8,-50 -2,-12 -12,-14 0,-40 20,-30 15,-15 15,-35 0,-35 -20,-30 -20,-40 0,-13 8,-20 0,-35 -15,-15 -15,-35 0,-60 q5,0 5,-20 3,-15 0,-25 -2,-5 0,-10 v-15 q2,-8 0,-15 v-10 Z"/>
</svg>
