<svg xmlns="http://www.w3.org/2000/svg" viewBox="0 0 600 600">
	<path style="fill:white;fill-opacity:0.75;stroke:black;stroke-width:1px;stroke-opacity:0.8" d="M200,-5 v5 c3,12 -1,30 0,39 9,12 6,40 18,45 10,10 10,31 17,36 10,28 0,50 -20,55 -9,1 -12,10 -20,15 -19,7 -17,35 -30,55 0,30 20,35 20,60 0,15 5,5 5,25 0,10 3,0 3,20 q2,5 2,25 c9,25 1,52 5,60 9,14 -8,55 0,90 9,17 -2,50 0,75 v5 h200 v-5 c-2,-10 5,-28 0,-40 -5,-10 -2,-20 -5,-25 q-3,-10 0,-20 v-20 c-4,-9 4,-15 5,-40 0,-8 5,-5 5,-23 21,-35 30,-70 30,-100 9,0 2,-35 15,-65 q0,-11 13,-18 c-3,-30 35,-55 0,-108 -25,-10 -18,-75 -33,-80 -12,-9 -9,-30 -25,-35 q-5,0 -5,-25 v-5 Z"/>
</svg>
