<svg xmlns="http://www.w3.org/2000/svg" viewBox="0 0 600 600">
	<path style="fill:white;fill-opacity:0.75;stroke:black;stroke-width:1px;stroke-opacity:0.8" d="M200,-5 v5 c-2,5 7,20 0,30 -2,4 7,15 -4,25 -7,12 -13,-5 -30,12 -28,0 -15,18 -40,18 -15,0 -25,10 -15,30 q9,25 -1,39 c-3,55 25,25 6,80 -5,14 5,30 5,35 0,19 18,37 20,50 q0,20 11,20 c4,25 22,45 24,61 0,35 25,15 25,40 8,18 -7,60 9,75 19,13 0,32 2,50 q-12,15 -12,35 v5 h200 v-10 c-5,-8 2,-20 0,-25 -5,-4 5,-15 5,-30 q15,-12 15,-17 20,-10 24,-50 c0,-20 -5,-10 22,-40 50,-12 68,-60 73,-66 0,-25 -5,-15 -5,-27 0,-10 -7,-18 -3,-25 7,-10 -20,-50 -43,-27 q-40,0 -61,-3 -15,-29 -25,-25 c-22,0 -35,-3 -38,-15 -3,-10 -10,-5 -15,-15 q-5,-10 -4,-21 c20,-16 8,-38 20,-44 5,0 0,-15 5,-27 3,-5 20,-16 20,-25 0,-45 10,-20 10,-52 q-6,-10 0,-25 -5,-10 0,-20 v-20 Z"/>
</svg>
