<svg xmlns="http://www.w3.org/2000/svg" viewBox="0 0 600 600">
	<path style="fill:white;fill-opacity:0.75;stroke:black;stroke-width:1px;stroke-opacity:0.8" d="M200,-5 v5 c-2,8 5,22 10,20 q3,8 10,8 c3,5 9,1 11,7 3,3 9,1 10,5 1,10 10,10 10,20 0,15 10,15 15,25 5,19 -10,2 -20,20 -10,15 -21,17 -23,17 -25,15 -20,10 -21,17 -43,28 0,20 -32,45 -14,10 -9,3 -9,10 6,8 -5,8 -5,50 v25 q6,10 0,25 c0,15 -3,12 25,10 15,35 15,25 5,40 -4,4 5,10 5,15 2,14 30,27 40,24 q15,2 19,15 c16,18 16,19 6,35 -2,15 -10,4 -9,16 q-14,12 -17,26 c-7,1 -6,-1 -6,10 -2,15 -15,25 -15,45 q-10,0 -8,10 3,10 0,20 8,9 0,20 v25 h200 v-15 c-7,-14 -8,-9 0,-16 q4,-5 2,-13 c-9,0 -9,-30 -3,-40 0,-10 -7,-13 0,-15 10,-15 7,-15 7,-43 -14,-13 -15,-5 3,-47 0,-8 5,-10 5,-27 -15,-15 0,-36 12,-33 7,-7 18,-9 23,-16 q4,-5 8,0 12,0 12,-15 6,-6 0,-15 2,-18 -20,-30 c-18,-15 -22,-38 -36,-32 -10,-4 -8,-15 -15,-13 -12,3 -12,-20 -25,-20 -5,-2 -9,-10 -15,-13 -11,-12 9,-27 22,-32 -2,-66 -10,-26 -10,-54 4,-17 -9,-13 0,-23 4,-7 -8,-15 4,-23 l10,-14 c5,0 5,-15 5,-15 3,-5 3,-20 3,-20 q7,-9 7,-21 v-5 Z"/>
</svg>
