<svg xmlns="http://www.w3.org/2000/svg" viewBox="0 0 600 600">
	<path style="fill:white;fill-opacity:0.75;stroke:black;stroke-width:1px;stroke-opacity:0.8" d="M200,-5 v5 c0,50 -6,25 -6,40 0,30 -14,15 -14,60 -30,75 0,99 -17,115 v20 c9,40 -5,80 7,100 2,9 5,5 5,15 0,22 9,25 15,65 0,15 13,20 13,60 0,20 8,10 8,35 6,20 -3,25 -2,40 2,10 -15,20 -8,30 q5,10 -1,20 v5 h200 v-5 c0,-40 -5,-20 -6,-50 0,-15 -14,-30 -14,-50 0,-5 -8,-5 -8,-15 0,-15 -13,-20 -11,-60 l10,-9 c5,-8 12,2 17,-6 15,-10 50,-15 48,-40 3,-5 -3,-15 -1,-25 -2,-15 2,-40 0,-45 -3,-18 -27,-30 -8,-50 22,-26 -2,-30 -2,-45 -10,-25 -30,-8 -35,-25 q-5,-7 -10,-9 c-3,-17 -25,-45 -5,-85 q10,-15 10,-34 c10,-12 5,-32 15,-37 v-20 Z"/>
</svg>
