<svg xmlns="http://www.w3.org/2000/svg" viewBox="0 0 600 600">
	<path style="fill:white;fill-opacity:0.75;stroke:black;stroke-width:1px;stroke-opacity:0.8" d="M200,-5 v5 c4,10 -2,20 5,30 4,12 18,22 25,35 10,17 25,28 30,36 0,10 25,35 25,50 9,30 -2,45 -5,50 -15,15 -22,12 -25,20 -15,20 -22,0 -35,7 -10,0 -8,-6 -20,-6 -15,0 -12,-18 -35,4 -13,9 -35,8 -42,25 -1,20 -15,4 -23,49 q-3,8 0,15 v35 c10,50 28,40 28,55 5,25 13,25 18,40 7,37 23,28 28,40 2,7 10,3 10,15 0,10 8,5 8,20 0,13 3,5 3,20 0,18 5,10 5,20 0,10 -3,5 -3,11 0,12 8,2 3,30 v5 h200 v-5 c0,-20 -12,-20 -12,-35 0,-14 -13,-25 -15,-35 q-3,-18 -18,-21 c-13,-15 -5,-38 -25,-43 0,0 -21,-5 -20,-43 q0,-17 15,-17 c15,-8 10,3 26,-7 10,7 3,6 15,6 34,16 55,-8 78,-14 q5,3 16,-2 c0,-9 35,-25 40,-55 0,-15 10,0 10,-30 0,-15 3,-5 3,-20 q2,-5 2,-20 c0,-20 -3,-5 -3,-22 q1,-11 -5,-12 c2,-15 -3,0 0,-20 1,-15 -5,-5 -5,-20 q1,-15 -6,-20 c0,-18 -10,-2 -12,-25 q0,-4 -2,-5 c-35,-70 -73,-43 -71,-84 -3,-10 -17,-30 -11,-38 q3,-10 0,-19 v-5 Z"/>
</svg>
