<svg xmlns="http://www.w3.org/2000/svg" viewBox="0 0 600 600">
	<path style="fill:white;fill-opacity:0.75;stroke:black;stroke-width:1px;stroke-opacity:0.8" d="M200,-5 v5 c-3,10 5,18 -5,30 -8,8 -20,8 -22,25 -32,25 -27,24 -28,28 q-10,3 -16,11 -3,4 -8,5 -7,0 -5,15 -13,10 -25,22 c-13,8 -22,10 -24,25 0,25 -6,10 -8,30 -5,18 0,12 4,24 0,18 10,0 10,20 0,55 15,30 18,50 2,15 15,32 25,32 30,0 15,12 29,13 q10,2 17,7 c35,3 28,10 50,18 h15 c18,7 10,15 18,20 0,19 32,20 33,30 2,18 28,27 37,50 q1,13 -10,25 c-40,38 4,25 -28,50 -13,24 -50,18 -50,35 q-15,10 -16,15 -10,5 -11,20 v5 h200 v-5 q-5,-25 8,-35 c0,-10 14,-25 22,-55 15,-16 0,-18 20,-45 13,-12 -9,-22 15,-50 5,-8 0,-17 5,-25 q10,-35 7,-54 c-13,-7 12,-15 2,-85 -9,-6 -8,-27 -14,-31 -14,-20 6,-50 -5,-71 -22,-29 -3,-20 -20,-53 -13,-25 0,-24 -20,-35 -13,-9 -5,-10 -10,-15 q-13,-20 -10,-45 v-5 Z"/>
</svg>
