<svg xmlns="http://www.w3.org/2000/svg" viewBox="0 0 600 600">
	<path style="fill:white;fill-opacity:0.75;stroke:black;stroke-width:1px;stroke-opacity:0.8" d="M605,200 h-5 c-15,-4 -45,9 -53,0 -7,-7 0,-5 -12,-20 -8,-10 -20,-10 -18,-20 1,-20 3,-10 -7,-20 -3,-11 -12,-10 -14,-20 q1,-10 -20,-10 -10,-14 -25,-13 c-25,-1 -18,4 -22,4 -15,0 -3,-8 -33,-10 -9,-4 -20,0 -30,0 q0,-3 -20,-2 c-8,-7 -30,-8 -45,0 q-8,10 -27,11 c-9,20 -49,40 -49,65 -1,30 -30,30 -30,60 -12,22 -8,50 -20,55 -5,0 -5,30 0,45 20,29 -4,30 -3,65 0,25 -4,5 -4,30 q6,18 21,27 c5,5 -4,22 1,33 15,30 0,70 10,120 v5 h200 v-5 c-4,-5 1,-13 -3,-23 v-20 c0,-15 -5,-15 -6,-33 0,-28 4,-13 4,-29 0,-18 -8,-20 -8,-50 q20,-15 31,-33 -7,-33 27,-37 q7,-2 13,-6 c4,3 12,-2 17,0 13,-8 20,0 25,-4 10,0 10,10 20,10 q24,5 23,10 15,10 57,15 h5 Z"/>
</svg>
