<svg xmlns="http://www.w3.org/2000/svg" viewBox="0 0 600 600">
	<path style="fill:white;fill-opacity:0.75;stroke:black;stroke-width:1px;stroke-opacity:0.8" d="M200,605 v-5 c2,-5 -2,-30 5,-40 18,-20 -6,-40 -6,-50 0,-18 -10,-20 -5,-33 0,-25 -4,-9 -4,-28 0,-30 -40,-21 -34,-48 17,-14 7,-49 35,-57 6,0 5,1 5,-4 10,-15 -4,-33 4,-40 33,-25 3,-50 15,-60 q4,-1 5,-10 c1,-13 22,-13 20,-40 -2,-16 5,-38 15,-40 q9,-8 14,-16 c15,-4 42,-20 63,-10 h39 q23,-8 42,0 c26,7 30,25 37,27 5,10 29,18 33,30 15,20 50,12 57,19 23,9 35,0 60,0 h5 v200 h-20 c-10,5 -25,-3 -30,0 -10,-5 -18,-1 -25,-5 q-9,4 -19,0 c-17,5 -25,20 -50,30 -24,9 -19,30 -40,40 -5,12 -23,3 -25,40 3,40 11,15 11,50 0,30 -6,10 -7,45 v5 Z"/>
</svg>
