<svg xmlns="http://www.w3.org/2000/svg" viewBox="0 0 600 600">
	<path style="fill:white;fill-opacity:0.75;stroke:black;stroke-width:1px;stroke-opacity:0.8" d="M200,605 v-33 c-4,-7 2,-21 0,-26 0,-25 -12,-15 -12,-60 0,-15 3,-5, 3,-31 q3,-9 0,-20 c0,-25 -9,-15 -9,-30 0,-22 -5,-5 -5,-29 -12,0 -17,-40 -7,-51 20,-25 -5,-50 10,-69 30,-40 5,-15 15,-40 q3,-20 17,-33 c2,3 13,-5 19,-12 10,-24 25,-28 44,-30 30,8 48,-4 55,0 q18,3 26,10 c13,15 5,11 25,12 12,0 7,-2 12,3 7,9 25,5 26,20 7,20 33,13 37,29 3,13 15,3 34,5 l40,-8 c20,-10 -6,10 30,-7 q10,2 24,-4 5,7 16,-1 h5 v200 h-5 q-5,2 -10,-3 -8,3 -15,-2 c-35,-3 -20,-10 -65,-25 -33,-5 -14,-25 -40,-17 -5,4 -20,-4 -30,0 -5,3 -7,-8 -22,1 -18,7 0,5 -28,20 -5,2 -3,10 -6,12 v17 q-4,6 0,20 v12 c3,24 7,8 16,20 -3,10 3,20 3,25 0,5 7,10 9,21 0,5 -5,5 -4,15 7,32 -8,32 -8,62 q-4,10 0,22 v5 Z"/>
</svg>
