<svg xmlns="http://www.w3.org/2000/svg" viewBox="0 0 600 600">
	<path style="fill:white;fill-opacity:0.75;stroke:black;stroke-width:1px;stroke-opacity:0.8" d="M200,605 v-25 c12,-10 -4,-26 -2,-28 0,-10 -19,-34 -19,-62 -40,-35 0,-45 -28,-68 -30,-38 -3,-44 -11,-72 -5,-15 0,-5 0,-20 2,-8 0,-3 15,-15 10,-4 -4,-30 10,-40 16,-9 10,-50 5,-65 q5,-10 18,-13 c23,-44 50,-36 57,-52 q10,-14 24,-11 c10,9 30,-4 55,6 10,6 15,-3 32,10 22,3 15,20 45,23 30,4 0,22 58,17 10,10 15,0 46,0 q12,-4 25,0 c30,0 5,10 55,10 q8,4 15,0 h5 v200 h-5 c-35,0 -25,10 -50,10 -10,5 -30,-3 -50,2 -32,23 -29,12 -29,33 0,18 -8,10 -10,55 q0,10 -2,11 c-3,5 0,15 -24,24 -15,5 -25,20 -25,30 0,15 -10,5 -10,35 v5 h-200 M285,300 c2,-32 20,-25 25,-35 52,-39 65,-5 50,10 -10,8 12,25 -10,50 -7,4 -10,15 -15,25 l-10,20 q0,18 -25,11 c-22,-12 -6,-23 -13,-35 1,-25 -5,-10 -2,-46"/>
</svg>
