<svg xmlns="http://www.w3.org/2000/svg" viewBox="0 0 600 600">
	<path style="fill:white;fill-opacity:0.75;stroke:black;stroke-width:1px;stroke-opacity:0.8" d="M605,200 h-5 q-16,7 -30,3 h-40 c-20,0 -40,-12 -60,-6 q-5,3 -13,1 c-15,8 -25,14 -26,28 0,34 -25,24 -26,65 -5,27 -23,25 -30,39 -5,10 -15,25 -25,25 -30,5 -75,15 -70,45 v5 c9,10 -5,35 -20,40 -30,13 -35,55 -35,75 0,40 -25,10 -25,67 q3,6 0,14 v5 h200 v-9 q5,0 5,-6 c15,-5 22,-19 50,-19 q25,-10 50,-24 c10,0 2,2 15,-5 l20,-12 c15,-9 0,-3 15,-30 7,-22 1,-10 2,-25 0,-10 -9,-10 8,-35 l9,-13 c-15,-35 15,-23 22,-28 h10 Z"/>
</svg>
