<svg xmlns="http://www.w3.org/2000/svg" viewBox="0 0 600 600">
	<path style="fill:white;fill-opacity:0.75;stroke:black;stroke-width:1px;stroke-opacity:0.8" d="M605,200 h-5 q-5,4 -20,0 h-25 c-30,9 -68,-3 -95,0 -5,0 -20,-6 -35,0 -15,7 -50,5 -50,10 -10,19 -18,3 -55,10 -25,5 -35,25 -50,30 -15,25 -50,35 -45,60 0,15 12,15 0,35 -10,10 -23,33 -15,45 v25 q0,18 -15,30 c0,18 -5,10 -5,28 0,15 7,10 8,27 0,50 -10,15 -5,50 q1,20 5,23 -3,8 2,13 v20 h200 v-5 c0,-20 5,-10 7,-25 7,-20 25,-15 30,-25 5,-10 15,-8 23,-16 45,-25 22,-90 53,-88 17,-79 50,-45 87,-47 h5 Z"/>
</svg>
