<svg xmlns="http://www.w3.org/2000/svg" viewBox="0 0 600 600">
	<path style="fill:white;fill-opacity:0.75;stroke:black;stroke-width:1px;stroke-opacity:0.8" d="M605,200 h-5 c-9,0 -1,-3 -10,-3 q-7,0 -15,-9 c-30,-2 -19,-8 -60,-9 -15,0 -9,-2 -20,-2 -10,0 0,2 -15,2 q-18,-2 -29,3 c-19,1 -30,20 -50,23 c-20,8 -25,7 -55,-4 -35,-6 -53,7 -72,14 -26,8 -30,60 -49,65 -8,13 -25,30 -20,45 9,45 -4,37 4,43 q-23,30 25,67 c0,22 8,16 8,45 0,20 -5,15 -7,35 -4,25 -35,10 -35,85 v5 h200 v-10 c-4,-14 5,-5 7,-15 0,-18 45,-19 43,-50 0,-25 -15,-35 0,-50 0,-20 5,-10 5,-25 8,-19 35,-22 43,-35 20,-20 0,-15 102,-20 h5 Z"/>
</svg>
