<svg xmlns="http://www.w3.org/2000/svg" viewBox="0 0 600 600">
	<path style="fill:white;fill-opacity:0.75;stroke:black;stroke-width:1px;stroke-opacity:0.8" d="M605,200 h-20 l-5,4 h-20 c-15,0 -13,-15 -20,-17 q-17,-28 -43,1 c-10,0 -14,11 -32,3 -25,0 -25,-14 -39,-11 q-5,0 -5,-5 -7,0 -6,-8 -10,-50 -45,-37 c-9,4 -17,-10 -30,-20 -28,-3 -16,-25 -30,-25 q-35,-22 -65,-10 -15,10 -30,10 c-45,10 -9,20 -55,40 -24,0 -15,-6 -28,-6 q-35,5 -37,46 c-3,20 -10,5 -15,35 q0,20 -10,35 -6,8 0,20 5,5 5,20 c5,20 20,10 20,30 -1,35 -20,25 -20,50 v25 c20,7 21,23 30,25 5,3 0,15 5,20 0,10 7,12 10,25 0,5 13,3 15,10 0,10 18,20 0,35 0,10 5,18 13,18 l22,20 c13,13 0,18 15,21 17,5 5,20 15,23 3,8 -2,15 0,23 v5 h200 v-5 c0,-15 5,-10 5,-20 3,-7 -1,-25 0,-29 8,0 10,-10 11,-27 -20,-8 0,-16 -20,-25 q-5,0 -7,-7 v-20 q0,-12 5,-14 c-8,-18 15,-33 6,-43 q-7,-15 -5,-25 10,-7 15,-18 c10,3 45,-9 55,3 5,5 12,5 15,10 9,4 5,13 20,15 10,0 5,10 25,10 h20 c35,0 20,-10 55,-10 h5 Z"/>
</svg>
