<svg xmlns="http://www.w3.org/2000/svg" viewBox="0 0 600 600">
	<path style="fill:white;fill-opacity:0.75;stroke:black;stroke-width:1px;stroke-opacity:0.8" d="M605,200 h-5 q-10,0 -20,-5 -15,4 -30,3 c-6,6 -15,0 -25,15 -19,0 -45,47 -71,39 q-10,5 -18,23 l-25,30 c-20,60 -105,30 -120,85 q-4,10 -5,25 -13,20 -11,25 -10,12 -9,18 c-5,10 -23,23 -26,32 -18,17 -20,45-25,55 -8,0 -18,35 -15,55 v5 h200 v-5 q4,-20 12,-32 c8,-2 20,-14 38,-18 q14,-4 20,-15 c8,-9 30,-9 40,-40 q-2,-10 5,-25 c-5,-40 25,-65 55,-65 10,0 5,-5 30,-5 h5 Z"/>
</svg>
