<svg xmlns="http://www.w3.org/2000/svg" viewBox="0 0 600 600">
	<path style="fill:white;fill-opacity:0.75;stroke:black;stroke-width:1px;stroke-opacity:0.8" d="M605,200 h-25 c-10,-2 -25,2 -50,0 -45,-2 0,8 -70,8 -10,0 -2,-3 -15,-3 -15,0 -28,19 -47,23 -5,5 -18,5 -23,23 -20,20 0,35 -17,50 -5,5 -2,22 -28,25 -25,5 -15,14 -40,13 -43,0 -63,12 -63,61 0,26 -17,30 -16,50 v30 q5,5 -5,40 c0,35 -2,20 -6,50 1,4 -3,18 0,30 v5 h200 v-5 c-3,-5 3,-15 0,-22 l10,-17 c7,-25 35,-23 40,-45 q6,-12 14,-14 l8,-10 q5,-11 15,-20 5,-21 18,-39 c13,-1 32,-26 55,-26 15,0 17,-13 40,-7 h5 Z"/>
</svg>
