<svg xmlns="http://www.w3.org/2000/svg" viewBox="0 0 600 600">
	<path style="fill:white;fill-opacity:0.75;stroke:black;stroke-width:1px;stroke-opacity:0.8" d="M605,200 h-5 q-10,3 -20,-1 h-15 c-18,0 -10,-5 -25,-5 -10,0 0,-4 -15,-4 -25,0 -15,-15 -50,-15 -45,2 -20,-10 -75,-25 q-10,-4 -35,-3 c-13,0 -5,-6 -20,-6 q-20,8 -40,-2 -25,2 -35,-8 -20,-3 -40,0 c-25,0 -40,22 -30,55 v14 c-6,15 3,30 -5,50 -15,40 -5,50 10,50 q5,0 5,5 v18 q-4,8 0,17 0,43 25,55 c5,5 0,20 -15,40 -25,50 -15,30 -14,50 7,35 0,25 3,55 0,20 -8,7 -9,35 q-4,7 0,14 v15 h200 v-5 c0,-30 17,-20 10,-50 q-5,-10 5,-25 v-25 c0,-8 5,-12 0,-25 -7,-12 7,-32 0,-35 -15,-10 5,-30 20,-40 10,-5 25,-9 30,-16 50,-6 56,0 70,2 15,1 25,8 37,6 q5,7 28,9 h5 Z"/>
</svg>
