<svg xmlns="http://www.w3.org/2000/svg" viewBox="0 0 600 600">
	<path style="fill:white;fill-opacity:0.75;stroke:black;stroke-width:1px;stroke-opacity:0.8" d="M605,200 h-5 q-18,0 -20,-2 -18,-2 -18,-10 c-34,-6 -5,-28 -77,-37 q-15,-5 -40,4 c-24,13 -24,30 -35,40 -12,10 -9,25 -15,35 0,15 2,7 -5,20 q-15,25 -35,50 c8,34 -5,53 -45,48 -9,0 -23,4 -40,0 -7,0 -5,2 -20,1 q-25,5 -35,16 -3,5 -10,4 c-80,80 26,115 -5,161 -6,10 6,36 0,50 v25 h200 v-5 c-3,-7 5,-17 5,-25 3,-12 13,-13 20,-33 8,-5 5,-22 30,-32 25,-12 28,-48 40,-53 2,0 35,-32 38,-25 15,-5 25,-18 53,-32 h19 Z"/>
</svg>
