<svg xmlns="http://www.w3.org/2000/svg" viewBox="0 0 600 600">
	<path style="fill:white;fill-opacity:0.75;stroke:black;stroke-width:1px;stroke-opacity:0.8" d="M605,200 h-5 c-5,2 -15,-2 -30,0 -15,0 -24,-13 -36,-11 -30,0 -15,-10 -44,-14 -30,-15 -15,5 -58,-15 h-35 c-25,9 -30,2 -50,8 l-18,13 c-10,5 -5,12 -14,29 -9,4 -13,20 -15,21 -8,10 0,40 -25,43 -73,25 -65,50 -86,70 q-2,2 0,4 c36,72 -40,45 -1,123 0,18 5,5 5,35 0,20 20,45 7,70 v29 h200 v-22 c9,-8 10,-25 20,-38 q3,-5 2,-22 c6,-20 -8,-33 3,-48 q4,-12 11,-14 10,-10 20,-15 8,-8 19,-11 20,-14 40,-15 c20,0 20,-21 45,-21 12,-2 25,8 35,1 h10 Z"/>
</svg>
