<svg xmlns="http://www.w3.org/2000/svg" viewBox="0 0 600 600">
	<path style="fill:white;fill-opacity:0.75;stroke:black;stroke-width:1px;stroke-opacity:0.8" d="M605,200 h-8 q-7,-4 -12,-1 h-15 c-15,0 -5,-5 -45,-14 -15,0 -13,-15 -30,-20 -5,-1 -12,-9 -20,-10 -14,0 -22,-18 -40,-20 -10,-1 -15,-10 -35,-10 -10,0 -5,3 -15,3 -12,0 -17,10 -35,10 q-40,-5 -80,15 c-9,12 -26,6 -33,22 -15,25 -45,40 -45,50 0,25 -50,80 -51,105 0,20 5,10 9,60 3,10 -5,25 -1,35 1,5 -5,15 1,27 q5,10 5,48 l9,19 q-1,10 9,15 v18 c34,25 8,20 27,35 v18 h200 v-5 q0,-20 5,-20 c4,-1 5,-9 10,-12 5,0 5,-5 16,-7 5,-6 20,-10 20,-16 2,-9 13,-12 12,-20 1,-10 12,-10 14,-20 1,-8 5,-8 6,-15 q0,-8 4,-10 1,-6 8,-13 c5,-12 20,-8 26,-19 0,-12 5,-4 9,-13 0,-6 9,-3 9,-10 0,-10 30,-25 61,-25 h5 Z"/>
</svg>
