<svg xmlns="http://www.w3.org/2000/svg" viewBox="0 0 600 600">
	<path style="fill:white;fill-opacity:0.75;stroke:black;stroke-width:1px;stroke-opacity:0.8" d="M605,200 h-5 c-5,3 -10,-2 -25,-2 -2,-3 -12,-3 -25,-11 -14,-4 -22,-20 -26,-25 -9,-15 -18,-15 -18,-28 0,-16 -12,-20 -20,-35 -15,-18 -25,-10 -36,-24 -15,-10 -10,-3 -35,-15 -12,-5 -42,0 -65,23 -19,18 -34,30 -33,50 0,35 -6,17 -17,37 -9,10 -2,30 0,45 23,55 -23,70 -5,98 21,49 -26,60 -26,92 -11,13 -25,25 -24,50 q-20,20 -20,35 c-7,10 -5,35 -16,60 -9,20 5,13 -9,45 v10 h200 v-5 c3,-7 -9,-17 5,-43 14,-28 0,-18 11,-47 8,-15 20,-17 20,-35 0,-15 8,-10 8,-18 0,-5 6,-5 6,-12 7,-3 -4,-7 6,-15 q15,-15 30,-22 c9,0 13,-5 30,-4 6,5 18,-2 20,0 6,2 18,-3 21,1 5,3 20,-9 35,-5 h13 Z"/>
</svg>
