<svg xmlns="http://www.w3.org/2000/svg" viewBox="0 0 600 600">
	<path style="fill:white;fill-opacity:0.75;stroke:black;stroke-width:1px;stroke-opacity:0.8" d="M605,200 h-8 c-4,0 -2,5 -7,5 -4,0 -8,20 -20,23 -10,1 -15,14 -35,15 -43,0 -15,-15 -40,-4 -21,-2 -17,3 -18,-8 0,-15 13,-30 13,-46 0,-10 -16,-12 -16,-23 q0,-7 1,-13 c-8,-5 -9,-24 -18,-24 -8,-1 -6,-14 -17,-15 -38,-21 -27,12 -80,-17 h-40 c-22,26 -27,-2 -50,24 -17,10 -21,31 -30,33 -7,5 -18,7 -24,15 l-10,15 q-7,10 -6,20 c0,19 -13,18 -15,30 0,23 -42,34 -10,70 41,49 -11,70 9,88 v7 q8,20 1,42 c-8,20 0,50 10,68 9,15 -3,35 5,57 3,8 -3,20 0,38 v5 h200 v-12 c-9,-20 8,-41 0,-51 -18,-30 3,-35 -5,-45 -6,-5 -2,-12 -5,-17 -1,-8 -8,-10 -8,-25 0,-11 6,-2 8,-10 2,-11 15,-20 25,-30 10,-10 30,-17 45,-10 28,11 48,-7 75,5 20,7 40,-15 50,-7 5,1 10,-3 15,-3 h5 Z"/>
</svg>
