<svg xmlns="http://www.w3.org/2000/svg" viewBox="0 0 600 600">
	<path style="fill:white;fill-opacity:0.75;stroke:black;stroke-width:1px;stroke-opacity:0.8" d="M605,200 h-9 c-25,6 -9,-5 -30,-5 -25,-2 -10,-19 -40,-20 q-6,0 -7,-5 c-9,0 -15,-18 -48,-18 -8,7 -15,-5 -22,2 -21,2 -12,38 -54,43 -15,23 -5,15 -25,23 -16,8 -35,-17 -40,-15 -8,-3 -8,-28 -40,-23 -30,2 10,-17 -65,-24 q-15,12 -30,17 c-20,5 -5,5 -15,20 -3,5 -14,10 -16,30 0,45 -20,10 -14,75 0,15 18,5 0,55 l-15,35 c-13,24 5,10 10,50 q7,24 -3,27 4,15 -2,18 c10,35 34,20 35,54 23,25 16,16 18,30 2,20 8,30 7,31 v5 h200 v-5 l1,-17 c-15,-14 -13,-7 -1,-38 12,-16 -3,-29 10,-35 8,-5 -14,-33 25,-60 q8,-6 15,-17 c-11,-14 5,-15 15,-18 3,-4 3,-4 7,0 20,0 10,-10 43,-10 l20,-1 c7,-5 15,3 25,-4 q10,-2 20,0 h25 Z"/>
</svg>
