<svg xmlns="http://www.w3.org/2000/svg" viewBox="0 0 600 600">
	<path style="fill:white;fill-opacity:0.75;stroke:black;stroke-width:1px;stroke-opacity:0.8" d="M200,-5 v5 c0,10 3,18 10,20 l8,10 c8,0 7,17 12,17 2,8 -2,15 0,24 -8,9 0,31 -15,34 -10,9 -6,7 -16,7 -17,10 -9,8 -26,8 -12,0 -6,4 -18,4 -10,0 -25,16 -25,32 q-6,12 -18,21 -8,-2 -14,3 -14,-2 -27,5 -8,-3 -21,-2 -15,7 -25,17 h-30 v200 h5 c13,-5 30,5 60,0 10,-5 20,-13 23,-8 4,2 20,-3 27,-1 q25,5 50,18 h15 c13,-3 35,-15 50,-9 10,3 22,0 25,-5 14,-11 35,-8 48,-8 72,0 45,-27 77,-27 21,5 61,-20 61,-50 -2,-10 3,-20 1,-30 c-18,-21 -17,-30 -12,-35 l1,-30 c-5,-5 -4,-15 -10,-20 -1,-18 -15,-13 -15,-25 -6,-3 -18,-20 0,-26 39,-10 25,-30 24,-55 0,-15 -16,-9 -16,-35 -1,-20 -9,-9 -9,-54 v-5 Z"/>
</svg>
