<svg xmlns="http://www.w3.org/2000/svg" viewBox="0 0 600 600">
	<path style="fill:white;fill-opacity:0.75;stroke:black;stroke-width:1px;stroke-opacity:0.8" d="M200,-5 v5 c-2,8 5,11 5,20 5,20 15,12 15,35 0,39 20,10 20,60 0,20 20,20 5,40 l-15,24 c-3,10 -15,3 -27,9 -35,0 -16,10 -40,10 -5,-2 -10,8 -35,7 -20,0 -25,-4 -40,1 -35,0 -15,-10 -53,-7 q-11,2 -23,-1 -6,4 -12,2 h-5 v200 h5 c50,-7 32,16 70,15 75,5 38,40 115,45 25,7 38,0 50,10 8,12 20,2 27,10 12,4 25,-8 35,-4 l30,14 c8,4 24,-5 38,5 15,11 25,10 35,10 20,0 40,-14 60,-15 15,0 20,-12 32,-22 10,-35 35,-40 35,-63 q8,-22 18,-38 c-1,-17 2,-10 2,-35 0,-35 -17,-10 -15,-40 q1,-12 -1,-20 c-1,-7 -7,-7 -8,-17 q-5,-18 -17,-27 c-35,-7 -6,-36 -51,-36 -9,-25 -25,-35 -35,-42 -8,-14 -26,0 -25,-45 1,-15 5,-8 5,-20 -9,-25 0,-40 0,-50 -6,-13 3,-25 0,-35 v-5 Z"/>
</svg>
