<svg xmlns="http://www.w3.org/2000/svg" viewBox="0 0 600 600">
	<path style="fill:white;fill-opacity:0.75;stroke:black;stroke-width:1px;stroke-opacity:0.8" d="M200,-5 v20 c-2,5 2,19 5,20 0,9 18,13 17,41 12,10 9,25 13,26 v20 c6,2 2,15 10,18 q5,2 5,40 -5,10 0,20 v3 c-6,15 -15,15 -10,28 3,6 -2,14 -7,16 -5,0 -10,8 -16,1 -7,7 -10,2 -17,7 -7,8 -15,0 -20,0 -12,-4 -19,-15 -30,-13 q-15,5 -35,-1 -15,-1 -20,-16 c-3,-18 -17,4 -25,-20 q-14,-5 -27,0 c-4,2 -12,-5 -23,-1 -3,1 -10,-6 -20,-4 h-5 v200 h5 q11,0 13,-3 h15 c9,-9 50,5 77,-12 35,0 50,-20 75,-20 20,0 15,5 30,5 q15,0 35,-11 c5,3 11,-5 20,-4 10,0 15,-9 27,-9 24,-20 18,-19 40,-12 35,0 39,-25 43,-29 12,-15 0,-12 15,-15 25,-10 18,-40 26,-45 0,-20 -2,-8 15,-32 v-3 c5,-2 2,-8 10,-12 4,-1 0,-5 14,-23 8,-11 1,-20 0,-27 -6,-10 5,-25 0,-31 -4,-13 -17,-15 -18,-22 0,-23 -19,-21 -20,-35 q-1,-14 -12,-15 c0,-30 -5,-10 -5,-30 v-20 Z"/>
</svg>
