<svg xmlns="http://www.w3.org/2000/svg" viewBox="0 0 600 600">
	<path style="fill:white;fill-opacity:0.75;stroke:black;stroke-width:1px;stroke-opacity:0.8" d="M200,-5 v5 c0,25 9,15 8,30 -8,25 9,50 -3,65 -6,8 -6,12 0,27 0,20 5,17 0,25 -5,1 4,33 -5,38 -20,13 -11,30 -18,27 -16,9 -20,4 -22,8 -5,4 -18,-5 -28,0 -9,4 -15,-3 -27,4 -25,8 -20,-13 -45,-11 -16,0 -6,-13 -25,-13 -12,-5 -25,2 -35,0 h-5 v200 h5 c20,-5 45,4 63,0 14,-13 20,-3 34,-9 22,-2 23,-9 28,-4 q8,5 31,7 0,6 14,7 c10,3 6,0 20,19 4,8 10,0 12,15 q5,15 16,13 c15,9 9,42 52,42 20,-5 8,22 50,15 20,0 15,4 27,4 8,0 8,5 20,5 15,0 12,8 27,-4 7,-10 0,6 12,-2 30,-14 53,-4 63,-13 15,-6 40,20 51,-5 17,-20 4,-40 5,-65 0,-5 -9,-12 0,-20 10,-8 26,-40 0,-40 q-15,-2 -23,-5 c-17,0 -8,-20 -37,-20 q-10,-5 -25,2 c-30,-13 -20,-11 -35,-6 -10,1 -7,2 -7,-5 -1,-18 -14,-12 -33,-23 -18,0 -32,-15 -45,-15 -4,0 -21,-15 -5,-26 10,-10 22,-15 27,-26 0,-30 15,-45 15,-56 0,-11 10,-7 15,-7 q33,-5 30,-40 c0,-15 6,-20 6,-45 0,-14 -5,-5 -5,-20 0,-15 -3,-15 -3,-30 0,-15 9,-2 0,-25 v-23 Z"/>
</svg>
