<svg xmlns="http://www.w3.org/2000/svg" viewBox="0 0 600 600">
	<path style="fill:white;fill-opacity:0.75;stroke:black;stroke-width:1px;stroke-opacity:0.8" d="M200,-5 v23 c-5,2 -8,14 -15,20 -14,11 -5,33 -7,45 -1,5 4,18 -3,27 -3,3 8,22 -6,28 -15,15 -5,13 -34,13 -19,0 -5,7 -20,7 -10,0 -10,-5 -20,-4 -10,0 -25,5 -25,16 0,20 20,22 0,35 -8,4 -30,-2 -35,0 -6,6 -20,-5 -35,-5 h-5 v200 h5 q10,-2 17,1 h15 c12,0 0,6 25,6 8,1 14,6 25,6 20,0 43,2 68,30 25,-6 45,1 55,-3 10,-4 25,2 42,-1 10,15 63,10 78,-1 15,0 30,-3 35,-10 5,-3 20,-8 25,-23 3,-5 12,-20 7,-30 0,-14 -23,-19 -21,-35 -9,-5 -10,-15 -21,-30 -12,-14 4,-18 2,-25 3,-11 15,-10 18,-20 15,-25 45,-22 45,-45 0,-5 5,-10 5,-20 0,-20 18,-20 18,-45 0,-15 -6,-15 -8,-25 -3,-9 -8,-6 -10,-25 -4,-5 3,-13 -5,-30 -25,-50 -12,-65 -15,-75 v-5 Z"/>
</svg>
