<svg xmlns="http://www.w3.org/2000/svg" viewBox="0 0 600 600">
	<path style="fill:white;fill-opacity:0.75;stroke:black;stroke-width:1px;stroke-opacity:0.8" d="M200,-5 v5 c3,20 -2,35 0,45 q-5,15 -18,23 c-5,-5 -9,1 -22,1 -5,4 -25,-2 -35,-10 -5,0 -16,-6 -25,-3 q-13,1 -20,7 c-22,-2 -5,40 -27,56 0,20 7,27 -3,41 -25,25 -10,20 -22,32 -10,13 -22,5 -28,8 h-5 v200 h10 c25,-8 40,3 70,3 55,0 34,20 75,17 20,-2 35,-14 50,-14 5,0 35,-21 50,-21 10,4 20,-3 32,-5 25,-8 44,-23 55,-23 15,0 9,6 23,3 25,-10 40,-20 40,-50 0,-15 -9,-25 -9,-50 0,-24 19,-25 19,-60 3,-9 -1,-20 0,-45 -5,-10 -3,-30 -10,-35 -6,-30 2,-50 0,-55 -6,-15 4,-45 0,-65 v-5 Z"/>
</svg>
