<svg xmlns="http://www.w3.org/2000/svg" viewBox="0 0 600 600">
	<path style="fill:white;fill-opacity:0.75;stroke:black;stroke-width:1px;stroke-opacity:0.8" d="M200,-5 v11 c4,5 4,3 0,9 v15 c0,20 -18,25 -18,45 0,15 3,9 3,20 0,20 -5,15 -10,40 0,5 -10,19 -40,19 -8,0 -20,16 -48,32 q-12,1 -22,9 c-10,0 -22,8 -35,5 q-15,-3 -30,0 h-5 v200 h5 c5,-3 9,0 20,0 15,0 10,5 20,5 20,2 15,20 35,20 10,0 30,11 40,11 10,0 10,-8 25,-8 10,-2 25,-1 35,-3 8,0 10,-10 20,-10 13,-2 10,5 20,5 10,1 20,10 30,10 24,0 2,26 30,26 20,0 25,15 35,14 q15,5 28,15 c0,32 20,20 26,30 v8 c18,3 25,-8 36,-23 2,-14 30,-7 40,-15 v-10 c-10,-15 -17,-31 5,-55 9,-7 9,-20 15,-30 4,-5 -4,-12 15,-30 6,-8 6,-5 0,-15 l-19,-31 c-8,-2 3,-23 -31,-16 -14,3 -9,-13 -12,-25 v-20 q0,-8 -3,-8 -2,-15 -17,-25 -3,-20 -13,-26 c-8,-11 -10,-10 10,-44 15,-10 -5,-45 5,-65 q4,-5 3,-10 c1,-10 17,-10 17,-25 0,-20 -15,-20 -15,-50 v-5 Z"/>
</svg>
