<svg xmlns="http://www.w3.org/2000/svg" viewBox="0 0 600 600">
	<path style="fill:white;fill-opacity:0.75;stroke:black;stroke-width:1px;stroke-opacity:0.8" d="M200,-5 v5 c0,20 -5,17 -1,25 q0,5 -4,11 c-10,1 -15,20 -30,20 q-8,0 -15,12 l-13,17 c3,10 -5,17 -2,25 q7,20 -5,30 -3,8 -7,10 c-5,5 -7,2 -10,2 -6,0 -13,5 -20,-2 q-13,-8 -24,0 -5,7 -12,15 v6 c15,5 -8,28 -17,25 q-25,9 -35,4 h-10 v200 h10 q9,-4 30,-3 12,-5 41,-4 l25,11 c18,2 36,20 59,21 15,2 30,10 55,10 9,-7 25,-4 30,-10 8,-9 20,-5 27,-15 10,-9 28,-10 30,-13 3,-12 23,-22 29,-35 v-14 l32,-45 c3,-24 30,-35 30,-55 0,-30 23,-45 26,-80 0,-35 20,-27 26,-48 8,-25 -5,-25 -5,-45 0,-23 -13,-16 -17,-30 -3,-13 -15,-12 -15,-20 0,-4 -5,-5 -5,-15 3,0 -3,-5 -3,-10 v-5 Z"/>
</svg>
