<svg xmlns="http://www.w3.org/2000/svg" viewBox="0 0 600 600">
	<path style="fill:white;fill-opacity:0.75;stroke:black;stroke-width:1px;stroke-opacity:0.8" d="M-6,200 h5 c45,-6 47,14 70,15 14,2 14,10 30,10 h25 c15,-4 20,0 35,0 5,0 18,8 35,-4 q6,-4 12,-13 18,-12 41,-18 c12,-13 26,-15 40,-30 7,-6 18,-42 38,-43 18,-2 25,-19 39,-19 15,0 5,3 20,3 15,0 10,5 22,5 q12,0 28,9 c13,27 39,17 43,35 1,13 33,21 53,45 2,14 25,6 39,8 32,-10 12,4 30,-3 h5 v200 h-5 c-8,2 -15,-1 -28,-1 -9,0 0,-4 -22,-4 -15,0 -20,-10,-50,-10 -15,0 -14,-4 -20,-4 -12,0 -11,-12 -30,-12 -15,0 -5,-8 -50,-8 -20,0 -10,-3 -25,-3 -10,0 -25,10 -38,10 q-13,4 -28,7 c-15,15 -30,20 -45,33 q-18,10 -43,12 -5,3 -12,0 c-15,-2 -24,-15 -38,-18 -7,2 -11,-10 -20,-12 -30,-10 -25,-8 -45,-8 q-12,0 -12,5 c-5,-4 -25,0 -43,9 0,4 -22,0 -25,4 h-30 Z"/>
</svg>
