<svg xmlns="http://www.w3.org/2000/svg" viewBox="0 0 600 600">
	<path style="fill:white;fill-opacity:0.75;stroke:black;stroke-width:1px;stroke-opacity:0.8" d="M-5,200 h5 q10,0 22,-6 c63,-8 83,-40 96,-33 30,8 38,-20 72,-21 15,-5 20,5 45,-5 40,-15 15,3 50,-10 q20,-8 35,-6 5,6 25,5 0,2 20,2 c30,0 15,14 45,14 20,0 17,8 25,10 22,13 30,29 35,29 q5,10 20,11 c14,42 70,10 110,10 h5 v200 h-5 c-20,0 -15,-8 -30,-8 q-5,-8 -20,-6 c-70,-32 -30,-5 -75,-26 -13,0 -18,-13 -25,-13 -10,0 -7,-7 -20,-9 -25,-3 0,-12 -50,-12 -25,0 -30,10 -38,10 -5,0 -15,9 -42,9 -40,0 -10,-2 -40,-2 -25,0 -10,6 -35,6 q-30,1 -50,16 h-20 c-8,-8 -50,2 -72,18 -10,0 -25,12 -33,12 -10,0 -5,3 -20,3 -10,0 -15,-6 -25,2 h-10 Z"/>
</svg>
