<svg xmlns="http://www.w3.org/2000/svg" viewBox="0 0 600 600">
	<path style="fill:white;fill-opacity:0.75;stroke:black;stroke-width:1px;stroke-opacity:0.8" d="M-5,200 h5 c30,0 35,-5 40,-5 5,0 12,-9 25,-12 28,11 35,-15 49,-15 q4,-12 36,-13 10,8 27,6 c10,-9 40,-5 48,-11 q15,-10 29,-11 c5,-3 15,-1 45,-4 19,-5 17,5 30,5 15,1 15,13 30,13 10,0 5,3 30,5 q19,0 21,12 0,5 10,5 19,5 25,11 3,12 15,10 c25,-1 15,3 35,3 48,-1 8,11 55,10 h21 q7,-9 29,-9 h5 v200 h-12 c-5,-3 -30,6 -50,1 -40,1 -10,9 -55,9 -30,0 -40,8 -78,8 -20,0 -35,9 -46,-7 -1,-4 -15,-4 -20,-9 -12,-1 -22,-12 -44,-12 -25,0 -16,-46 -45,-29 -10,6 -30,4 -35,18 q-1,5 -20,4 c-10,1 -15,5 -25,5 -27,19 -14,17 -40,17 -30,0 -20,11 -40,11 -15,0 -10,-6 -25,-8 -15,0 0,-4 -30,-4 -20,0 -10,-6 -40,-4 h-5 Z"/>
</svg>
