<svg xmlns="http://www.w3.org/2000/svg" viewBox="0 0 600 600">
	<path style="fill:white;fill-opacity:0.75;stroke:black;stroke-width:1px;stroke-opacity:0.8" d="M-5,200 h5 c15,0 15,-4 25,-4 17,-17 11,-15 36,-15 1,-5 7,-4 10,-8 4,-4 11,2 29,-6 10,0 10,-4 25,-4 q21,0 20,-13 c25,-25 55,-20 60,-40 9,-13 30,-7 43,-8 q30,12 33,7 c4,-2 3,6 19,4 9,0 6,3 15,4 6,1 8,13 12,14 4,0 5,9 23,12 h11 q12,10 25,12 2,9 10,14 0,9 10,8 l16,7 c19,1 13,5 28,6 q8,2 15,1 c10,10 10,5 25,9 10,6 45,-3 50,0 q10,5 25,3 c13,12 6,12 32,-3 h8 v200 h-5 c-7,-3 -12,2 -20,1 -8,-2 -20,4 -25,0 q-25,-3 -48,-1 c-8,-8 -17,-8 -22,-15 -2,-2 -10,0 -15,-6 -13,0 -15,-6 -20,-8 -5,0 -13,-16 -25,-6 -10,8 -25,-2 -34,0 q-9,15 -14,15 c-13,13 -30,16 -52,27 h-7 c-9,15 -35,25 -45,15 h-6 c-7,4 -8,0 -22,0 -6,-5 -4,-5 -8,-1 -6,4 -25,-11 -32,-13 q-5,-1 -10,-7 c-7,-2 -27,8 -35,-11 -4,-13 -10,-2 -15,-6 -20,-2 -25,3 -40,3 -10,2 -5,7 -20,7 -15,0 -15,4 -30,4 -10,0 -5,2 -19,2 -11,-4 -28,3 -36,0 h-5 Z"/>
</svg>
