<svg xmlns="http://www.w3.org/2000/svg" viewBox="0 0 600 600">
	<path style="fill:white;fill-opacity:0.75;stroke:black;stroke-width:1px;stroke-opacity:0.8" d="M-5,200 h5 c40,0 45,-25 65,-30 18,-9 33,-25 46,-30 100,-44 46,-10 100,-25 19,-5 15,-8 59,-8 10,4 20,0 70,1 q21,12 38,6 h20 c42,6 37,21 57,21 50,5 43,40 95,50 5,8 16,5 24,11 q15,1 15,4 h16 v200 h-5 c-25,0 -55,11 -121,-10 q1,-5 -9,-5 c-20,0 -15,-9 -50,-9 -48,0 -25,3 -47,3 q-9,-6 -23,1 c-15,5 -35,25 -80,25 -25,-20 -65,-13 -67,-23 q-10,-3 -16,-1 c-8,3 -15,10 -32,11 -8,1 -25,6 -40,6 -15,10 -65,20 -77,5 -10,1 -20,-8 -38,-3 h-5 Z"/>
</svg>
