<svg xmlns="http://www.w3.org/2000/svg" viewBox="0 0 600 600">
	<path style="fill:white;fill-opacity:0.75;stroke:black;stroke-width:1px;stroke-opacity:0.8" d="M-5,200 h5 c9,0 10,-5 15,-5 12,-4 14,-20 30,-30 0,-5 9,-3 9,-15 1,-10 8,-13 16,-27 50,-10 15,-40 95,-37 8,8 30,-3 40,3 h6 q15,-18 39,-17 c22,1 30,13 40,13 12,4 18,14 30,13 35,-9 32,15 50,17 28,7 22,20 30,25 0,13 15,8 25,11 10,7 25,6 34,20 20,27 57,20 60,29 q7,7 25,6 15,4 28,0 c10,4 20,-7 28,-6 h5 v200 h-5 c-5,-3 -10,2 -15,1 -4,3 -8,-4 -15,4 q-3,3 -20,2 c-27,0 -40,20 -50,23 -10,2 -10,15 -15,20 -5,6 -14,7 -17,15 q-8,8 -15,13 -1,4 -7,7 c-15,8 -40,12 -51,24 -9,12 -25,8 -40,16 h-10 c-5,-4 -25,5 -50,5 -24,-1 -18,-15 -35,-21 -7,-2 -15,-18 -25,-20 -8,0 -17,-20 -25,-24 -18,-5 4,-10 -20,-18 -21,-8 -4,-13 -19,-27 q-4,-2 -6,-10 c-7,-2 -15,-25 -25,-23 -15,0 -10,-15 -45,-15 -28,0 -30,8 -40,11 q-8,8 -45,12 0,5 -10,5 h-5 Z"/>
</svg>
