<svg xmlns="http://www.w3.org/2000/svg" viewBox="0 0 600 600">
	<path style="fill:white;fill-opacity:0.75;stroke:black;stroke-width:1px;stroke-opacity:0.8" d="M-5,200 h5 c30,2 35,-5 50,-5 20,0 20,14 50,14 18,0 40,-10 50,-10 15,0 20,-6 35,-6 20,0 25,5 45,5 20,8 60,-4 70,1 3,3 10,-2 15,-1 5,1 10,-2 15,2 4,3 15,-5 20,-4 15,0 35,-9 40,-6 q10,2 21,0 c8,13 30,-6 64,-5 38,-7 25,13 50,16 22,6 15,6 38,-1 7,-3 22,3 37,0 h5 v200 h-5 c-10,0 -5,5 -20,5 -20,0 -20,8 -35,8 -10,0 -10,-5 -20,-6 -48,6 -15,-25 -75,-2 -20,7 -15,-10 -50,15 -17,9 -25,-4 -50,1 -45,8 -48,-7 -70,-6 -35,3 -20,-9 -57,-9 -5,-4 -10,2 -23,-6 -3,-2 -16,6 -21,2 h-24 c-7,3 -20,-5 -40,3 -15,8 -32,-2 -38,2 -12,8 -55,-18 -62,-7 h-20 Z"/>
</svg>
