<svg xmlns="http://www.w3.org/2000/svg" viewBox="0 0 600 600">
	<path style="fill:white;fill-opacity:0.75;stroke:black;stroke-width:1px;stroke-opacity:0.8" d="M-5,200 h18 c45,-7 20,8 67,-5 18,0 15,-7 36,-7 8,6 25,-5 50,7 20,8 30,1 40,5 q20,7 44,5 c57,9 50,-10 67,-9 10,0 20,10 50,10 12,4 28,-4 33,0 10,9 29,-12 35,-1 5,8 45,-7 65,-2 5,5 20,-5 30,0 h40 q5,-3 30,-3 h5 v200 h-5 c-20,0 -15,-5 -25,-5 -10,3 -10,0 -25,0 -30,-2 -20,-13 -50,-11 -16,-2 -9,-7 -30,-6 q-10,3 -20,0 c-15,0 -25,22 -50,22 -30,0 -40,20 -65,25 -10,0 -20,8 -50,8 -40,0 -15,6 -40,6 -20,0 -27,-17 -45,-18 -10,-1 -16,-10 -25,-11 -35,0 -19,-18 -40,-16 -15,0 -10,-3 -20,-3 -20,0 -20,5 -35,5 -25,0 -10,4 -50,4 -8,-3 -15,0 -30,0 h-5 Z"/>
</svg>
