<svg xmlns="http://www.w3.org/2000/svg" viewBox="0 0 600 600">
	<path style="fill:white;fill-opacity:0.75;stroke:black;stroke-width:1px;stroke-opacity:0.8" d="M-5,200 h20 q5,4 13,-1 l23,-1 c10,-8 12,-2 18,-6 7,0 14,-8 21,-7 5,0 6,-5 15,-5 5,0 15,-8 30,-10 19,-1 15,-15 35,-15 30,-7 26,-7 35,-5 23,10 42,-9 55,-5 25,4 20,2 30,8 40,0 15,3 45,3 q5,5 20,5 c48,0 45,22 60,22 q20,3 30,8 c50,0 30,5 60,5 22,3 2,4 25,7 60,5 40,-3 70,-3 h5 v200 h-5 c-8,0 -6,3 -15,3 -10,9 -30,10 -40,19 -10,12 -30,10 -40,18 q-31,9 -40,6 -13,5 -25,-1 h-10 c-5,-4 -15,-2 -25,-8 -35,0 -9,-13 -57,-16 l-25,13 q-3,7 -23,10 -10,5 -20,4 -15,5 -30,4 c-18,5 -15,-5 -35,-5 q-3,-2 -20,-2 c-5,-3 -25,3 -35,0 -15,-1 -35,-12 -50,-9 -23,9 -16,-16 -30,-16 -36,-6 -25,-20 -50,-20 -10,-3 -20,0 -30,0 h-5 Z"/>
</svg>
