<svg xmlns="http://www.w3.org/2000/svg" viewBox="0 0 600 600">
	<path style="fill:white;fill-opacity:0.75;stroke:black;stroke-width:1px;stroke-opacity:0.8" d="M-5,200 h5 c12,-2 65,12 77,0 8,-4 20,3 38,-5 20,-7 50,4 75,-3 35,0 20,7 50,7 18,0 20,-4 30,1 15,6 35,-2 42,1 10,7 15,1 30,0 18,0 15,4 32,4 40,20 45,-4 65,-4 15,0 25,-3 32,-2 20,0 0,-3 48,-4 20,7 35,0 41,3 h17 q12,6 23,2 h5 v200 h-5 c-15,0 -10,-5 -20,-5 -10,0 -5,-5 -20,-5 q-30,-1 -35,-5 c-10,0 -10,5 -25,5 -30,0 -50,25 -80,25 q-15,-3 -35,-2 c-8,-5 -25,-6 -35,-13 -40,0 -45,-3 -60,-3 -15,0 -20,7 -40,9 -35,9 -40,2 -75,2 -30,0 -35,6 -42,6 -8,0 -12,-4 -23,-4 -10,0 -15,-5 -30,-5 -10,0 -5,-3 -20,-3 -20,0 -5,-2 -35,-2 -7,1 -13,-3 -25,0 h-5 Z"/>
</svg>
