<svg xmlns="http://www.w3.org/2000/svg" viewBox="0 0 600 600">
	<path style="fill:white;fill-opacity:0.75;stroke:black;stroke-width:1px;stroke-opacity:0.8" d="M-5,200 h5 q5,0 8,-2 15,8 25,2 26,1 34,-6 13,1 20,-5 c22,0 15,-8 33,-8 5,4 28,4 35,0 50,-1 20,8 45,8 5,6 31,0 45,11 q15,15 71,14 c12,15 35,2 50,3 40,-9 10,-2 35,-2 15,0 10,-1 18,-1 8,0 0,1 10,1 10,0 5,-6 25,-6 q35,0 41,-9 c35,-14 45,4 105,0 h5 v200 h-10 c-10,-2 -35,2 -45,0 -15,-2 -35,1 -50,1 -15,0 -40,5 -41,11 l-19,8 c-10,3 -25,-2 -43,1 -8,8 -20,3 -54,2 -77,6 -20,-26 -93,-23 q-15,3 -25,0 c-5,-3 -12,-1 -20,-5 q-10,-3 -15,-2 -7,2 -15,0 -10,-4 -30,7 -17,0 -25,5 -50,11 -90,-5 h-35 Z"/>
</svg>
