<svg xmlns="http://www.w3.org/2000/svg" viewBox="0 0 600 600">
	<path style="fill:white;fill-opacity:0.75;stroke:black;stroke-width:1px;stroke-opacity:0.8" d="M-5,200 h5 c20,-2 19,4 35,4 15,0 10,-2 20,6 10,10 30,17 35,25 4,5 10,4 18,9 h15 q10,-6 17,-6 c11,-1 23,-13 30,-16 13,-5 8,-25 30,-28 6,0 15,-9 25,-9 10,0 0,3 25,3 20,0 35,-7 60,-7 15,0 5,2 20,2 15,1 20,7 55,7 10,5 20,3 25,5 22,1 24,21 35,10 12,-5 20,0 45,-1 10,0 35,8 60,2 20,0 20,-6 50,-6 h5 v200 h-25 c-10,3 -20,-1 -35,0 -25,2 -25,22 -50,30 q-10,5 -35,5 c-10,0 -10,-15 -25,-15 -15,-5 -30,4 -34,-15 -3,-11 -20,-7 -25,-17 q-7,-11 -26,-11 c-25,-1 -20,-10 -40,-10 -9,0 -4,-5 -20,-5 -15,0 -20,-4 -25,-1 q-9,5 -13,10 c-5,-2 -20,4 -27,4 -14,0 -19,5 -30,5 -8,0 -8,-9 -15,-5 -8,3 -14,17 -30,25 -5,3 -13,2 -15,10 -15,19 -57,15 -60,10 -11,-2 -2,-13 -25,-12 -10,0 -10,-17 -25,-9 -25,0 -15,1 -25,1 h-5 Z"/>
</svg>
