<svg xmlns="http://www.w3.org/2000/svg" viewBox="0 0 600 600">
	<path style="fill:white;fill-opacity:0.75;stroke:black;stroke-width:1px;stroke-opacity:0.8" d="M-5,200 h15 c5,-3 13,2 20,-1 6,-2 10,-8 15,-7 5,2 13,-16 20,-10 5,3 22,-18 47,-19 -1,-8 0,-13 7,-12 q10,-5 23,-7 c5,-7 15,-1 24,-1 10,0 3,-2 15,0 12,4 26,-17 39,-18 q7,-1 12,-7 7,6 12,2 c14,3 18,17 36,24 v5 c12,7 18,23 25,22 1,8 25,-7 20,19 -3,4 6,10 5,13 1,9 15,14 18,23 q1,6 7,6 c0,13 -2,12 10,12 4,5 2,4 10,4 q15,12 30,14 c3,-9 14,-13 16,-22 q2,-5 6,-7 0,-9 10,-11 8,-15 17,-20 15,0 18,4 3,-1 5,-3 9,3 18,1 c5,6 15,-2 17,8 45,0 25,-4 78,-12 h15 v200 h-5 c-10,0 -5,-5 -16,-5 -1,-4 -24,-4 -29,0 q-3,2 -7,-3 c-15,0 -25,4 -30,-4 -34,-1 -20,-27 -58,-27 q-10,0 -20,-2 c-7,2 -10,11 -28,9 q-12,-1 -22,7 c-6,-4 -9,-4 -15,0 q-13,5 -24,17 c-8,-6 -23,23 -16,23 -16,10 -16,24 -22,30 -18,30 -35,49 -45,48 -18,0 -15,15 -30,15 -14,0 -35,16 -45,16 -25,0 -18,-14 -50,-14 -10,0 -10,-3 -18,-3 q-6,0 -6,-7 c-10,-12 -30,-19 -23,-30 0,-7 -7,-8 -10,-15 -6,-9 -16,-9 -20,-16 -15,-20 -33,-22 -35,-28 0,-6 -15,-3 -17,-11 h-19 Z"/>
</svg>
