<svg xmlns="http://www.w3.org/2000/svg" viewBox="0 0 600 600">
	<path style="fill:white;fill-opacity:0.75;stroke:black;stroke-width:1px;stroke-opacity:0.8" d="M-5,200 h5 c20,0 20,-6 25,-3 8,6 30,-12 35,-5 10,6 20,-2 35,-2 12,0 22,-12 27,-6 2,2 23,-12 38,-14 12,-5 10,-5 20,0 8,3 35,3 42,0 15,-5 25,-22 35,-26 6,6 30,-30 40,-20 4,6 30,-5 43,-13 q10,-8 27,-9 15,5 33,0 c40,-9 20,10 35,9 10,0 17,10 17,15 0,5 -4,0 -4,7 0,8 -8,8 -9,17 0,20 -13,18 -13,25 q0,5 -6,9 -10,9 -15,10 c-15,2 -20,20 -30,25 -11,7 2,13 -5,19 -5,8 10,10 12,16 6,0 0,3 8,3 10,0 10,9 30,9 20,0 15,-9 25,-9 4,-4 7,-1 20,-7 5,-4 10,3 20,-5 8,-5 15,-2 25,-10 13,-4 22,-19 40,-21 5,0 10,-7 22,-7 15,-9 13,-7 28,-7 h5 v200 h-5 c-7,-3 -20,3 -35,0 -10,0 -25,5 -35,5 -10,8 -10,0 -30,1 -12,0 -20,8 -25,8 -5,0 0,-5 -10,-5 -20,0 -5,4 -25,2 -5,-1 -18,8 -25,1 -10,-2 -15,2 -40,2 q-15,1 -18,-6 c-20,0 -10,-2 -40,-2 q-20,-1 -30,-17 -5,-1 -19,0 c-20,-8 -24,-19 -43,-19 -35,0 -20,11 -50,11 -25,2 -30,-5 -45,-5 -10,0 -20,6 -30,6 -10,0 -15,7 -24,7 -6,7 -26,-3 -36,3 -5,3 -11,1 -15,4 -20,0 -10,4 -25,4 h-5 Z"/>
</svg>
