<svg xmlns="http://www.w3.org/2000/svg" viewBox="0 0 600 600">
	<path style="fill:white;fill-opacity:0.75;stroke:black;stroke-width:1px;stroke-opacity:0.8" d="M-5,200 h5 c15,0 6,-3 30,0 12,0 8,-4 17,-4 8,0 30,-10 42,-10 4,0 25,-18 43,-18 20,-3 30,-15 53,-8 15,5 28,-3 40,-3 h8 q10,8 22,8 c5,5 15,1 22,5 21,1 34,25 58,30 q18,10 37,9 c11,18 28,12 43,16 q18,8 30,1 10,0 20,-2 c33,2 29,-6 45,-6 10,0 13,4 20,-2 10,-6 20,-4 25,-8 14,0 10,-6 25,-6 12,0 5,-2 20,-2 h5 v200 h-5 c-30,0 -35,13 -50,15 -15,2 -35,23 -50,30 -30,13 -20,-3 -63,22 q-40,-4 -77,-1 c-20,-20 -12,-16 -30,-18 q-15,0 -20,-5 -10,0 -20,1 l-30,-25 c-27,-3 -21,-14 -30,-14 -10,0 -18,-25 -65,-22 q-25,8 -45,7 q-13,-2 -15,5 -25,1 -40,5 c-23,9 -35,-2 -65,0 h-5 Z"/>
</svg>
