<svg xmlns="http://www.w3.org/2000/svg" viewBox="0 0 600 600">
	<path style="fill:white;fill-opacity:0.75;stroke:black;stroke-width:1px;stroke-opacity:0.8" d="M-5,200 h10 c12,4 30,-2 35,1 17,1 15,-1 20,4 9,6 10,9 40,9 20,0 30,-6 37,0 18,0 20,-4 50,-4 13,0 15,-3 19,0 q10,5 21,-1 c8,0 14,-5 23,-1 34,6 52,-15 66,-3 25,0 20,6 49,6 9,11 40,8 50,4 q15,-3 35,-2 c30,0 25,-8 50,-6 55,6 80,-7 100,-7 h5 v200 h-5 c-15,0 -30,8 -50,7 -25,0 -10,8 -50,8 -12,-1 -40,-14 -70,-20 -20,2 -40,0 -43,-4 h-35 c-20,0 -23,6 -40,6 -10,0 0,-3 -50,-3 -12,-1 -37,3 -47,1 q-13,-6 -40,3 -29,-2 -45,9 h-7 q-8,8 -30,8 c-25,0 -25,-10 -58,-10 q-10,-5 -35,-5 h-5 Z"/>
</svg>
