<svg xmlns="http://www.w3.org/2000/svg" viewBox="0 0 600 600">
	<path style="fill:white;fill-opacity:0.75;stroke:black;stroke-width:1px;stroke-opacity:0.8" d="M-5,200 h5 c8,-1 23,10 41,-4 15,0 10,-3 30,-2 20,0 23,-6 29,-8 5,-4 15,-6 23,-16 7,-8 18,-9 27,-15 5,-1 10,-7 60,-6 25,16 57,17 60,22 8,11 37,10 40,18 9,9 41,3 60,22 27,12 1,27 40,22 38,-5 60,12 80,-2 10,-4 25,-3 30,-10 q30,-18 80,-21 h5 v200 h-5 q-11,0 -12,-5 h-23 q-10,0 -20,-6 -8,-2 -16,-8 -8,-1 -15,-5 c-8,-5 -9,-6 -15,4 -10,25 -57,10 -76,42 -9,4 -15,16 -23,18 -10,3 -33,19 -41,10 q-13,-12 -25,5 c-15,10 -17,27 -30,35 -9,5 -28,12 -39,23 q-25,6 -50,19 c-62,-7 -53,8 -65,0 -38,0 -30,5 -50,-7 -32,-21 -27,-40 -40,-50 -15,-10 0,-78 -60,-75 h-5 Z"/>
</svg>
