<svg xmlns="http://www.w3.org/2000/svg" viewBox="0 0 600 600">
	<path style="fill:white;fill-opacity:0.75;stroke:black;stroke-width:1px;stroke-opacity:0.8" d="M-5,200 h5 c38,0 25,-9 50,-4 35,9 60,-3 70,-2 15,-1 20,-10 30,-12 8,-2 20,-17 35,-17 18,0 20,-8 35,-8 25,0 30,-15 60,-17 20,-9 40,7 50,-1 10,-5 25,-5 35,-9 22,-6 17,-6 21,-5 14,9 20,3 43,15 20,6 30,20 37,22 11,1 9,18 34,19 15,2 20,9 30,9 35,0 5,9 55,8 q3,3 15,2 h5 v200 h-5 c-20,0 -10,1 -35,1 -15,7 -35,-4 -65,4 -25,7 -50,25 -60,25 -12,0 -30,20 -40,24 -25,17 -45,26 -65,26 -23,0 -5,14 -50,12 -26,-1 -40,8 -55,-2 -15,-18 -55,-7 -70,-30 -10,-15 -45,-15 -60,-28 -10,-14 -30,-13 -40,-25 -6,-8 -20,-3 -24,-7 -7,-3 -3,-3 -12,0 h-29 v-200 M176,255 c0,-15 10,-14 24,-20 7,-7 25,2 50,-2 14,-1 29,-14 50,-9 12,6 35,-2 36,27 -3,28 -20,20 -20,45 0,10 -5,22 -16,29 q-10,5 -16,13 c2,4 -12,19 -24,19 -6,0 -3,2 -10,2 -10,1 -15,7 -22,11 -9,4 -7,4 -20,-3 -20,0 -10,-7 -33,-8 q-15,-1 -15,-9 c0,-5 -25,-22 -40,-22 -8,0 -13,-3 -13,-13 0,-10 8,-18 18,-22 11,-5 -3,-3 15,-15 15,-7 36,-18 36,-23"/>
</svg>
