<svg xmlns="http://www.w3.org/2000/svg" viewBox="0 0 600 600">
	<path style="fill:white;fill-opacity:0.75;stroke:black;stroke-width:1px;stroke-opacity:0.8" d="M-5,200 h5 q10,-1 20,0 3,8 24,6 c4,3 17,-3 30,-3 20,-6 15,0 54,1 63,-5 53,25 72,27 18,7 22,23 35,25 10,9 23,16 25,29 0,9 7,6 10,15 9,18 37,15 40,20 2,9 20,8 50,0 9,-1 14,-13 25,-15 20,-2 38,-6 41,-25 1,-9 32,-35 65,-34 18,0 15,-3 29,-5 q25,-23 53,-39 c14,0 9,4 20,-2 h12 v200 h-5 c-25,0 -16,-2 -30,-2 -25,4 -35,0 -55,0 -9,-4 -25,-2 -24,-4 -8,-5 -16,3 -31,2 q-10,5 -25,5 c-7,4 -20,1 -25,4 -5,2 -15,-6 -25,1 -5,3 -15,0 -25,7 -40,0 -30,6 -60,6 -18,9 -11,6 -35,8 -3,3 -18,3 -23,-2 q-12,-15 -57,-13 c-20,-1 -4,-7 -35,-7 -15,0 -15,-9 -50,-8 -10,0 -5,-4 -25,-4 -25,0 -20,4 -50,3 q-5,4 -25,4 h-5 Z"/>
</svg>
