<svg xmlns="http://www.w3.org/2000/svg" viewBox="0 0 600 600">
	<path style="fill:white;fill-opacity:0.75;stroke:black;stroke-width:1px;stroke-opacity:0.8" d="M-5,200 h5 c24,0 13,-5 30,-5 20,0 33,-11 35,-20 10,-5 18,-18 27,-22 5,-9 12,-11 38,-11 q7,-3 15,-2 c5,7 15,10 20,20 0,7 13,14 10,20 -6,11 -6,8 0,15 20,10 25,16 45,17 39,0 7,27 50,33 36,5 33,23 41,25 14,5 7,18 40,18 10,0 5,-3 20,-3 q26,-4 43,-15 0,-12 20,-17 c15,-9 45,-12 65,-24 q25,-20 51,-21 c15,0 10,-8 50,-8 h5 v200 h-5 c-5,-2 -20,3 -25,0 -10,0 -15,5 -32,5 -40,0 -35,-21 -93,-20 -50,0 -75,5 -78,0 q-7,-6 -20,7 l-52,23 c-15,13 -30,-8 -50,6 -10,6 -19,16 -17,19 q1,8 -8,18 -10,13 -25,22 c-15,4 -38,15 -50,5 -2,-9 -45,-6 -50,-8 -27,-2 -23,-25 -28,-27 0,-7 -10,-16 -10,-20 -3,-6 -8,-22 -22,-25 -9,0 -5,-7 -40,-5 h-5 Z"/>
</svg>
