<svg xmlns="http://www.w3.org/2000/svg" viewBox="0 0 600 600">
	<path style="fill:white;fill-opacity:0.75;stroke:black;stroke-width:1px;stroke-opacity:0.8" d="M-5,200 h5 c13,0 7,-5, 15,-5 1,-15 35,-5 40,-20 q2,-8 13,-13 c15,-33 25,-12 37,-27 18,-12 22,0 45,0 25,0 20,10 50,17 5,20 30,28 42,41 0,9 3,4 3,15 0,8 2,11 20,14 q20,2 22,7 0,15 15,15 10,5 21,7 c1,6 22,19 40,9 35,0 20,-10 50,-10 5,0 18,-6 29,-6 q10,-8 57,-9 25,-15 57,-20 5,-15 44,-15 h5 v200 h-5 c-15,-2 -10,-3,-23,-3 -8,0 -2,-4 -20,-4 -18,0 -9,-13 -37,-13 q-15,0 -19,-5 -3,-3 -6,-1 c-10,3 -22,11 -22,17 0,4 -20,30 -23,30 q-5,8 -13,13 c-29,-2 -25,7 -34,9 q-8,7 -13,15 c-10,-5 -24,4 -35,-8 -14,5 -21,-53 -55,-53 q-16,0 -16,-13 c-9,-1 -9,-13 -38,-13 q-5,5 -26,4 -8,5 -7,8 -13,20 -18,20 -15,12 -30,27 h-15 c0,8 -20,15 -25,25 0,7 -13,9 -25,3 -7,-1 -10,-17 -20,-18 -11,-2 -1,-7 -10,-12 -3,-9 -20,-12 -30,-30 -25,-4 -15,3 -20,3 -5,-3 -10,-1 -20,-1 h-5 Z"/>
</svg>
