<svg xmlns="http://www.w3.org/2000/svg" viewBox="0 0 600 600">
	<path style="fill:white;fill-opacity:0.75;stroke:black;stroke-width:1px;stroke-opacity:0.8" d="M-5,200 h5 c8,-2 15,2 20,0 8,0 5,4 12,4 6,0 2,2 14,2 l5,7 q20,2 44,0 7,-10 20,-15 c15,0 10,-1 25,-1 10,7 15,0 30,13 18,13 40,2 55,2 20,0 20,-13 26,-13 6,0 0,4 24,4 15,-2 15,8 25,-7 q12,-14 27,-20 c0,-20 -2,-10 -1,-34 q20,-15 36,-19 c9,-8 -6,-22 23,-19 20,-10 15,-38 36,-26 32,0 10,14 39,12 15,0 15,3 25,3 6,0 3,4 15,4 13,2 2,15 15,18 2,3 0,8 5,16 7,12 -12,18 5,31 10,25 20,40 38,35 3,3 15,0 14,6 q12,-3 23,-3 h5 v200 h-5 c-10,0 -5,3 -15,3 -10,0 -5,2 -30,2 -6,3 -15,-1 -30,-1 -10,0 -5,-2 -15,-2 -13,0 -7,-3 -15,-3 -9,0 -6,-6 -20,-6 -15,-1 -10,-4 -25,-4 -10,-1 -15,4 -25,4 -6,0 -8,2 -25,2 -6,5 -7,14 -20,17 -15,3 -30,12 -45,12 -5,1 -20,12 -40,12 -30,0 -20,3 -40,3 -5,-8 -30,-2 -40,-12 -10,-11 -30,-1 -82,-2 -6,-3 0,-15 -18,-3 -20,-4 -50,2 -54,-8 0,-3 -6,-6 -15,-6 -13,0 5,-11 -46,-8 h-5 Z"/>
</svg>
