<svg xmlns="http://www.w3.org/2000/svg" viewBox="0 0 600 600">
	<path style="fill:white;fill-opacity:0.75;stroke:black;stroke-width:1px;stroke-opacity:0.8" d="M-5,200 h5 c25,0 20,-5 30,-5 q9,-1 14,-9 c10,0 14,-20 22,-24 v-12 q2,-13 7,-15 c9,-4 -6,-6 7,-13 5,-9 20,-1 25,-8 7,0 10,-8 20,4 5,8 36,0 40,12 2,6 18,8 24,20 q5,7 11,10 c-3,12 15,17 30,20 0,7 -1,5 10,7 32,1 10,11 40,11 l35,10 c10,6 -4,4 10,13 20,8 50,10 60,14 12,6 10,6 40,-7 3,8 15,-6 50,-6 h18 q4,5 10,-2 c7,-7 18,-10 23,-15 4,-6 10,2 24,1 40,0 25,-6 50,-6 h5 v200 h-5 c-20,1 -35,-3 -50,-3 -15,0 -15,-3 -20,0 -3,4 -9,0 -18,-7 -13,-5 -28 0 -42,-5 q-8,-3 -20,3 c-8,4 -17,15 -25,17 -10,5 -22,3 -17,17 -16,5 -28,30 -38,20 -3,-5 -10,4 -18,8 -10,8 -20,8 -20,19 l-32,14 c-64,0 -20,-16 -65,-28 -10,-4 -25,0 -26,-12 0,-8 -4,-6 -5,-12 -2,-4 -8,-2 -9,-7 q0,-6 -30,-4 c-30,0 -11,-10 -40,-16 -20,-6 -20,0 -35,-8 h-25 q-35,15 -50,4 h-20 Z"/>
</svg>
