<svg xmlns="http://www.w3.org/2000/svg" viewBox="0 0 600 600">
	<path style="fill:white;fill-opacity:0.75;stroke:black;stroke-width:1px;stroke-opacity:0.8" d="M-5,200 h5 c5,2 12,-2 18,0 8,6 17,1 22,3 10,5 15,-4 35,-4 15,0 15,-3 25,-7 6,-1 12,-8 25,-12 h8 q8,-9 20,-9 c4,-5 9,0 16,-3 6,-2 18,2 26,-1 13,15 30,2 45,8 q10,1 20,8 c35,2 30,17 50,17 30,0 -4,12 40,20 15,4 32,-2 38,4 28,1 23,-1 32,7 5,4 15,-1 30,2 12,4 15,-3 30,-3 30,0 50,-15 70,-20 q7,-2 13,-6 c8,3 20,-4 37,-4 h5 v200 h-5 c-20,0 -35,8 -45,5 q-15,-3 -30,0 c-15,2 0,-10 -25,-8 -8,0 -6,-2 -15,-2 -5,0 -3,-2 -11,-2 q-4,-5 -13,-3 c-10,-2 -23,3 -31,-1 -13,-4 -15,3 -20,3 -15,1 -15,24 -35,33 -23,17 -2,22 -25,29 -28,10 -40,20 -50,21 -24,11 -32,-11 -70,-5 -24,1 -7,-16 -30,-16 -11,-1 -7,-15 -25,-15 -9,0 -11,-4 -20,-4 -8,0 -15,-9 -30,-16 -12,-10 -9,-9 -25,-9 -15,0 -5,-5 -20,-5 -10,-4 -43,0 -50,-5 h-35 Z"/>
</svg>
