<svg xmlns="http://www.w3.org/2000/svg" viewBox="0 0 600 600">
	<path style="fill:white;fill-opacity:0.75;stroke:black;stroke-width:1px;stroke-opacity:0.8" d="M-5,200 h9 c12,6 7,6 15,4 q16,-3 31,0 l27,-10 c25,0 20,-8 35,-6 10,1 25,-2 33,7 7,5 10,7 30,7 20,-2 15,9 25,17 10,6 19,11 20,20 q-1,14 15,11 c15,-3 30,0 40,-4 5,-2 18,-1 18,-12 0,-15 28,-30 28,-39 0,-10 -6,-10 0,-15 10,-12 25,-20 25,-26 0,-8 8,-10 15,-19 5,-8 30,8 37,-5 10,-13 33,6 43,-10 q15,-19 44,-11 c0,17 30,15 30,26 0,8 24,16 -5,42 v9 c-7,7 -5,10 -10,14 v13 c-4,4 1,11 0,16 2,4 9,8 10,11 8,8 11,4 18,10 15,3 35,-3 37,-15 0,-8 10,-6 10,-20 q15,-15 25,-15 h5 v200 h-5 c-30,0 -17,-7 -30,-3 -10,3 -35,6 -35,-7 0,-22 -25,-35 -35,-35 -6,-2 -10,-12 -19,-14 -11,0 -34,2 -22,24 3,5 3,11 -9,17 q-20,8 -40,28 c-20,0 -37,5 -60,-15 -24,-25 -35,-13 -50,-13 -9,0 -9,-6 -30,-6 -20,0 -20,-8 -35,4 -3,7 -20,16 -35,16 -17,0 -30,20 -38,19 -30,0 -22,7 -42,7 -15,0 -30,6 -40,6 -10,-6 -25,-8 -30,-23 -3,-5 -22,-1 -22,-5 q-5,-3 -14,0 h-19 Z"/>
</svg>
