<svg xmlns="http://www.w3.org/2000/svg" viewBox="0 0 600 600">
	<path style="fill:white;fill-opacity:0.75;stroke:black;stroke-width:1px;stroke-opacity:0.8" d="M-5,200 h10 c5,5 15,-4 20,0 5,4 25,-13 30,-7 5,3 10,-3 20,-5 q3,-8 9,-10 c0,-8 13,-9 13,-20 0,-9 19,-16 19,-23 q1,-3 3,-6 c0,-8 8,-9 12,-19 q2,-8 13,-8 c4,-4 7,3 11,5 5,0 3,9 10,13 10,4 15,0 20,-3 3,-14 10,0 14,-12 3,-5 14,-8 14,-13 l8,-9 c6,0 10,-13 20,-11 7,3 9,-4 25,-4 20,7 35,-8 40,6 9,8 5,7 25,7 4,-8 5,-5 19,-5 9,0 15,-4 25,-4 18,1 5,-11 25,-10 13,0 9,-5 25,-5 5,7 15,8 15,13 3,8 17,11 22,15 12,4 -4,3 18,15 9,4 -7,3 15,17 11,3 -11,12 5,26 q5,7 1,12 4,5 1,10 c7,5 0,15 1,27 q5,3 14,16 h36 l9,-9 q1,3 20,1 c0,8 13,-3 15,0 h8 v200 h-5 c-30,0 -35,8 -50,2 -15,-2 -17,-9 -24,-5 -6,2 -13,-5 -20,2 -4,4 0,-2 -20,-2 -6,-9 -23,-8 -25,-22 -6,-5 -9,-19 -15,-14 -4,3 -11,-5 -14,-12 -7,-4 -9,-18 -32,-18 -23,1 -2,-6 -25,-21 -8,-7 -4,-6 -25,-6 -15,0 -8,-3 -17,-3 -7,0 -4,2 -21,2 -9,12 -6,26 3,30 17,8 -3,13 10,27 4,5 2,15 7,20 q-17,5 -23,20 c-1,9 -8,16 -2,25 -2,5 -14,19 -10,27 -2,5 2,8 -9,18 -15,15 -15,10 -7,31 -4,7 -15,14 -22,22 q-4,4 -4,12 -4,14 -36,13 -4,5 -21,4 -5,4 -12,-3 c-7,-1 -7,-9 -16,-12 -7,-3 -13,-13 -20,-15 q-3,-1 -5,-10 -15,-5 -23,-15 c-21,-9 0,-15 -22,-23 -19,-10 -9,-16 -20,-24 -20,-9 -3,-18 -30,-26 -15,-2 -8,-8 -20,-14 -18,-6 -10,-10 -30,-10 h-5 Z"/>
</svg>
