<svg xmlns="http://www.w3.org/2000/svg" viewBox="0 0 600 600">
	<path style="fill:white;fill-opacity:0.75;stroke:black;stroke-width:1px;stroke-opacity:0.8" d="M-5,200 h5 c40,2 40,-4 50,-4 6,0 10,-5 20,-5 10,2 35,-3 45,-1 20,9 40,-5 44,10 5,9 24,-5 42,-5 9,-20 45,0 39,-45 -5,-20 24,-20 32,-50 q8,-11 31,-13 13,-30 57,-29 c15,14 45,10 73,32 12,22 42,-14 63,27 v15 c9,4 10,15 19,23 8,11 -6,28 5,31 10,4 15,16 30,16 8,0 3,2 12,2 6,0 10,-6 18,-2 q10,1 20,-2 h5 v200 h-5 c-40,0 -30,-5 -60,-7 q-23,0 -40,-15 c-20,-23 -15,0 -30,-23 -8,-17 -49,-20 -60,0 -8,12 -18,23 -25,23 -16,0 -10,13 -35,13 -20,0 -23,-10 -50,11 -17,21 -60,16 -72,4 -9,-12 -18,-13 -28,-16 -13,-2 -18,-13 -30,-13 l-15,-9 c-25,0 -25,-6 -45,2 -9,1 -20,13 -50,13 q-25,15 -60,17 h-5 Z"/>
</svg>
