<svg xmlns="http://www.w3.org/2000/svg" viewBox="0 0 600 600">
	<path style="fill:white;fill-opacity:0.75;stroke:black;stroke-width:1px;stroke-opacity:0.8" d="M-5,200 h5 c7,1 16,-1 30,0 2,-5 7,-7 8,-12 20,-3 20,-19 42,-19 24,0 27,18 35,21 8,5 4,14 15,16 20,8 30,2 49,2 l17,-8 c14,0 37,-40 36,-77 12,-1 10,-22 24,-22 15,0 10,5 22,5 45,-2 25,-15 50,-15 18,0 25,8 32,19 9,3 3,15 15,14 20,5 35,26 65,18 85,-13 54,2 70,-2 9,11 19,13 20,18 1,6 14,15 15,22 0,9 12,17 25,17 q10,5 30,3 h5 v200 h-5 q-15,-1 -32,-8 c-15,4 -25,2 -44,2 -7,3 -19,-4 -30,2 q-14,4 -21,-13 c-24,-6 -22,-6 -43,-1 -14,4 -9,7 -9,18 0,24 -17,13 -16,50 0,15 -40,57 -45,57 -9,0 -7,9 -20,15 0,10 -20,23 -35,12 -19,-9 -6,-9 -20,-14 -12,-6 -14,-6 -25,0 q-10,2 -16,2 -15,12 -33,-4 h-5 c-20,-65 -20,-18 -31,-63 -47,-55 -35,-30 -45,-45 q-10,-10 -20,-14 c-10,-6 -15,-2 -35,-2 -24,0 5,8 -55,6 q-7,-3 -15,0 h-10 Z"/>
</svg>
