<svg xmlns="http://www.w3.org/2000/svg" viewBox="0 0 600 600">
	<path style="fill:white;fill-opacity:0.75;stroke:black;stroke-width:1px;stroke-opacity:0.8" d="M-5,200 h5 c20,0 10,6 26,6 13,8 15,3 38,3 q5,-3 6,-9 c5,-9 10,1 45,0 8,5 16,4 25,10 9,2 3,2 12,0 9,-4 25,-7 34,-20 4,-7 6,-2 14,-11 21,-15 0,-14 16,-45 8,0 24,-14 28,-5 8,6 27,-12 46,2 9,18 30,10 30,30 0,12 10,9 15,13 30,12 22,20 30,20 9,0 4,-2 13,-2 8,0 12,-6 19,-9 6,-15 18,-18 23,-26 4,-7 10,-3 15,-7 35,-12 39,1 46,3 q2,14 14,14 c10,0 5,-2 15,4 25,15 5,9 20,21 10,6 5,6 25,6 15,0 5,2 45,2 h5 v200 h-5 c-4,-4 -8,4 -12,0 -4,-4 -13,2 -13,10 0,7 -5,20 -20,23 -10,1 -17,15 -17,19 l-15,17 -23,16 c-9,5 -5,4 -15,4 -10,0 -8,3 -15,3 -10,0 -10,-10 -20,-11 q-10,0 -25,-9 c-9,1 -5,5 -20,5 -6,-1 -9,0 -9,-7 0,-14 -12,-20 -12,-30 1,-17 -10,-17 -14,-18 -20,-6 -10,-26 -30,-28 -14,4 -48,-18 -70,6 q-3,2 -8,2 v3 c-12,2 -39,21 -69,-4 -15,-1 -10,-4 -33,-4 -37,-1 11,-27 -60,-3 -10,4 -23,-1 -30,6 h-5 c-7,-5 -20,2 -25,-3 -5,-3 -25,8 -40,3 h-5 Z"/>
</svg>
