<svg xmlns="http://www.w3.org/2000/svg" viewBox="0 0 600 600">
	<path style="fill:white;fill-opacity:0.75;stroke:black;stroke-width:1px;stroke-opacity:0.8" d="M-5,200 h30 c15,0 10,-10 40,-6 11,2 15,-3 35,-3 20,-10 20,1 50,-12 14,-4 24,-15 50,-15 9,0 45,9 50,5 35,-6 40,0 50,0 9,0 25,-13 50,-14 9,0 30,-19 50,-19 30,2 26,-1 32,5 7,5 27,16 28,20 4,18 31,30 31,45 0,8 -2,8 -2,25 0,30 6,25 6,40 0,51 -56,81 -56,120 0,35 -8,30 -12,60 0,50 -34,58 -32,85 0,30 5,25 5,64 v5 h-200 v-5 c0,-35 -3,-30 -3,-40 0,-15 -8,-5 -12,-20 -22,-40 -5,-35 -37,-35 -20,-28 -68,-12 -48,-45 q0,-12 -5,-20 c-2,-21 -25,-13 -24,-27 l-20,-9 c-5,-2 -20,-2 -20,-4 -15,0 -18,4 -25,0 h-11 Z"/>
</svg>
