<svg xmlns="http://www.w3.org/2000/svg" viewBox="0 0 600 600">
	<path style="fill:white;fill-opacity:0.75;stroke:black;stroke-width:1px;stroke-opacity:0.8" d="M-5,200 h5 c9,0 5,-2 28,-2 q3,-4 72,-7 c25,-9 25,-1 50,-13 25,-15 23,-13 50,-7 19,0 35,14 50,14 25,0 43,-9 51,3 4,4 20,3 49,18 16,5 23,24 50,40 12,18 6,30 6,54 0,17 22,24 13,50 -6,15 -5,35 -14,50 -5,7 8,20 3,50 -5,30 -23,50 -23,65 0,9 3,5 3,20 0,20 12,25 12,65 v5 h-200 v-5 c0,-20 -2,-10 -2,-25 0,-15 -2,-10 -2,-56 6,-26 -6,-50 0,-69 2,-9 -1,-15 2,-25 2,-5 -5,-15 -7,-25 -15,-25 -6,-23 -41,-24 -15,0 -15,4 -50,-6 -20,-3 -30,-5 -50,6 l-15,7 c-13,1 -10,14 -35,17 h-5 Z"/>
</svg>
