<svg xmlns="http://www.w3.org/2000/svg" viewBox="0 0 600 600">
	<path style="fill:white;fill-opacity:0.75;stroke:black;stroke-width:1px;stroke-opacity:0.8" d="M-5,200 h5 q5,2 21,2 c9,11 30,-4 39,4 15,1 20,5 30,0 12,-2 25,9 40,0 45,-13 30,6 60,6 h18 c15,-20 28,-15 35,-21 18,0 6,-3 23,-3 4,9 1,7 25,8 42,1 30,9 45,13 2,8 7,2 20,2 19,0 25,-8 34,-1 q12,8 25,12 c2,8 13,7 15,11 2,8 21,-1 32,14 q15,15 13,32 c23,23 15,22 20,25 4,2 -5,4 10,15 25,18 15,15 15,25 0,17 -24,35 -9,45 q3,12 -1,23 c-5,19 -2,13 -15,20 -13,5 -7,1 -13,13 v5 q-14,33 -34,30 c-12,-11 -20,13 -35,13 -7,0 -15,13 -29,19 v17 q2,3 2,5 c0,9 4,4 4,13 0,6 6,8 3,15 0,9 2,4 2,20 0,5 6,7 5,18 v5 h-200 v-5 c0,-30 5,-10 5,-29 13,-9 0,-27 10,-31 7,-10 15,-12 21,-24 5,-8 10,-7 14,-15 0,-14 12,-15 13,-30 0,-7 6,-10 2,-21 q-3,-10 -2,-20 c-15,-17 -6,-15 -23,-15 q-20,0 -22,-10 -30,0 -40,-7 c-20,6 -25,1 -31,3 0,-8 2,-8 -17,-7 -8,2 -20,-2 -32,0 -12,0 -7,6 -23,2 -30,0 -20,9 -75,4 h-5 Z"/>
</svg>
