<svg xmlns="http://www.w3.org/2000/svg" viewBox="0 0 600 600">
	<path style="fill:white;fill-opacity:0.75;stroke:black;stroke-width:1px;stroke-opacity:0.8" d="M-5,200 h5 c25,0 20,6 39,6 6,4 15,-4 26,2 10,8 20,0 30,7 q12,3 26,-1 c20,0 10,-7 29,-7 9,0 10,-3 25,-3 19,-2 19,-10 40,-13 15,-2 13,-16 45,-8 19,1 17,20 40,22 25,0 51,18 51,40 0,9 10,15 9,55 q-4,15 -5,35 c8,19 22,26 30,55 5,15 15,18 15,45 0,20 5,10 5,40 0,14 -2,10 -2,40 0,20 -3,10 -3,85 v5 h-200 v-5 c-5,-20 -17,-35 -17,-40 0,-9 -13,-16 -15,-25 -5,-21 -24,-30 -23,-35 0,-9 -4,-15 -6,-30 -1,-9 -7,-10 -7,-25 -2,-28 -30,-20 -42,-45 -35,-22 -40,8 -90,0 h-5 Z"/>
</svg>
