<svg xmlns="http://www.w3.org/2000/svg" viewBox="0 0 600 600">
	<path style="fill:white;fill-opacity:0.75;stroke:black;stroke-width:1px;stroke-opacity:0.8" d="M-5,200 h5 c8,2 15,-4 22,0 11,7 25,2 48,2 18,-12 43,-15 55,-27 15,-5 30,6 50,-4 q10,-3 27,-5 10,-12 28,-16 c38,1 26,-19 60,-10 17,0 15,8 40,9 18,1 15,14 45,14 15,0 10,-2 25,11 35,24 5,15 40,34 18,7 12,28 28,43 13,22 -2,47 5,55 16,26 -6,80 2,84 14,35 -30,63 -30,100 v18 q-5,13 -15,20 c-5,18 -24,40 -25,47 0,9 -5,5,-5,25 v5 h-200 v-5 c3,-5 -1,-12 2,-20 q1,-3 -2,-11 c-15,-20 3,-14 -20,-33 -25,-19 -20,-4 -35,-24 -3,-7 -20,-24 -45,-22 -10,0 -4,0 -15,-7 -27,-10 -11,-35 -35,-46 -11,-2 -10,-25 -25,-27 -9,0 -7,-10 -25,-10 h-5 Z"/>
</svg>
