<svg xmlns="http://www.w3.org/2000/svg" viewBox="0 0 600 600">
	<path style="fill:white;fill-opacity:0.75;stroke:black;stroke-width:1px;stroke-opacity:0.8" d="M-5,200 h5 c7,-2 17,5 28,0 h22 q15,8 30,8 3,3 6,1 c30,0 36,-15 49,-19 17,-5 3,-19 30,-21 15,-1 23,-22 27,-15 9,-16 44,-10 58,-33 25,0 22,-11 50,-1 19,5 10,5 30,20 11,8 7,8 20,8 10,0 20,7 20,20 0,14 10,22 40,32 -4,5 22,-6 40,20 20,17 -11,19 20,40 q15,8 26,25 v10 q-5,18 -1,25 c-8,13 -8,6 0,20 q5,12 0,26 -8,15 -23,32 c3,32 8,28 8,44 q-15,20 -30,33 c-8,7 -17,0 -27,25 -9,20 18,2 -23,60 v45 h-200 v-5 c0,-24 -15,-10 -15,-25 -5,0 -7,-9 -15,-10 q-10,-1 -16,-9 c-13,0 -9,4 -24,-6 -15,-10 -37,-10 -36,-34 -5,-1 -11,-8 -18,-9 8,-19 -11,-25 -21,-42 0,-15 -15,-5 -15,-20 -1,-14 -10,-20 -13,-30 -18,-2 -16,-15 -27,-15 h-5 Z"/>
</svg>
