<svg xmlns="http://www.w3.org/2000/svg" viewBox="0 0 600 600">
	<path style="fill:white;fill-opacity:0.75;stroke:black;stroke-width:1px;stroke-opacity:0.8" d="M-5,200 h5 q7,2 15,-2 c3,3 15,-2 25,4 5,11 16,2 25,8 5,11 30,0 45,12 20,12 28,-2 50,-2 14,0 10,-6 25,-6 9,0 20,12 35,0 25,-6 40,-2 43,3 2,5 9,6 10,11 2,7 7,9 9,15 q8,1 12,6 c75,3 50,-9 61,-9 5,8 35,-9 45,-3 15,1 18,9 30,13 q5,10 10,15 v15 c20,15 15,40 9,70 -15,24 -44,39 -36,50 3,6 -18,20 7,50 5,15 0,30 2,45 -5,28 -35,49 -25,60 q3,15 3,45 v5 h-200 v-5 c0,-12 -2,-10 -1,-20 q-1,-20 -5,-24 1,-11 6,-17 c3,-18 -5,-40 -15,-39 -3,-3 2,-20 -20,-20 -5,0 -2,-3 -15,-3 -9,0 -5,-12 -25,-2 -15,0 -27,-5 -27,-10 -1,-6 -5,-6 -11,-15 -12,-5 -17,-14 -22,-17 -12,-3 5,-11 -15,-16 -35,1 -5,-20 -50,-17 h-5 Z"/>
</svg>
