<svg xmlns="http://www.w3.org/2000/svg" viewBox="0 0 600 600">
	<path style="fill:white;fill-opacity:0.75;stroke:black;stroke-width:1px;stroke-opacity:0.8" d="M-5,200 h5 c9,5 30,-5 40,-2 5,2 18,-4 27,1 h9 l28,10 h16 c24,3 30,20 50,12 5,-1 20,-4 25,-12 5,-8 35,-12 55,-12 19,0 30,-6 50,-6 37,-10 20,3 50,3 h16 c14,8 38,8 44,16 9,11 25,13 30,23 10,16 30,20 30,37 0,9 4,9 4,30 0,7 -9,25 -9,42 q5,8 5,40 c-12,23 -13,53 -30,68 -12,10 -1,20 -18,50 -5,18 -16,15 -16,30 -22,40 -5,60 -6,70 v5 h-200 v-55 c1,-20 -1,-10 -1,-35 0,-9 -8,-30 -9,-40 -2,-20 -3,-2 -9,-25 -6,-10 -13,-17 -31,-17 -25,0 -30,10 -50,6 -30,0 -17,-24 -50,-37 -25,-6 -35,-2 -50,-2 h-5 Z"/>
</svg>
