<svg xmlns="http://www.w3.org/2000/svg" viewBox="0 0 600 600">
	<path style="fill:white;fill-opacity:0.75;stroke:black;stroke-width:1px;stroke-opacity:0.8" d="M-5,200 h5 c5,3 10,-2 20,0 19,-7 30,3 45,10 q10,5 30,5 c38,-2 21,-15 55,-16 44,-1 25,-5 35,-5 11,0 1,1 20,4 19,-3 17,18 45,20 20,5 22,-2 42,0 6,4 25,12 33,24 20,47 65,12 61,58 -1,8 9,15 14,30 4,11 13,17 12,40 0,13 8,20 11,30 2,12 23,10 23,68 -23,33 -22,48 -30,57 -20,20 -4,25 -18,43 -3,12 2,20 2,32 v5 h-200 v-5 c-4,-27 12,-30 0 -41 q-17,-8 -24,-34 c-4,-13 -1,-11 -21,-11 q-5,-5 -10,-4 -46,-16 -31,-26 -1,-35 -14,-40 -34,-2 -32,-17 -9,-22 -27,-22 c-25,0 -10,-9 -41,-5 h-5 Z"/>
</svg>
