<svg xmlns="http://www.w3.org/2000/svg" viewBox="0 0 600 600">
	<path style="fill:white;fill-opacity:0.75;stroke:black;stroke-width:1px;stroke-opacity:0.8" d="M-5,40 h5 C10,38 20,36 32,36 Q40,32 48,34 74,48 80,43 83,40 86,43 110,56 129,43 142,30 154,30 166,28 178,23 184,18 188,18 202,9 200,0 v-5 h200 v5 Q399,5 410,10 414,12 417,19 421,24 430,25 436,24 440,26 450,28 460,27 464,26 468,27 472,28 480,27 506,23 510,26 516,30 520,32 530,32 536,40 538,43 550,43 570,43 574,41 590,39 600,40 h5 v565 h-610 Z"/>
</svg>
