<svg xmlns="http://www.w3.org/2000/svg" viewBox="0 0 600 600">
	<path style="fill:white;fill-opacity:0.75;stroke:black;stroke-width:1px;stroke-opacity:0.8" d="M0,605 L3,595 Q5,593 4,587 T7,575 C8,572 7,569 8,565 S7,559 9,553 11,550 12.5,523 C11,521 11,519 14,513 S17,503 14,493 S14,483 14,473 S13,471 24,443 Q34,433 32,423 v-18 Q31,402 33,398 48,378 43,358 T53,330 Q54,330 53,325 v-15 Q54,305 52,300 50,272 68,260 69,259 70,258 C70,238 68,240 88,218 S92,208 99,178 Q99,158 118,148 T138,103 C139,101 138,101 142,101 Q146,101 148,95 L158,75 C164,63 164,63 170,61 C184,41 184,46 185,35 S194,20 196,15 Q203,5 200,-5 h200 v5 Q399,3 402,5 406,8 407,11 408,13 413,14 C423,15 425,17 433,28 Q439,38 473,35 489,31 497,39 Q503,41 509,40 513,39 517,41 547,47 577,41 582,39 587,41 T600,40 h5 v565 Z"/>
</svg>
