<svg xmlns="http://www.w3.org/2000/svg" viewBox="0 0 600 600">
	<path style="fill:white;fill-opacity:0.75;stroke:black;stroke-width:1px;stroke-opacity:0.8" d="M-5,40 h5 Q5,39 8,39 14,39 18,37 24,32 36,34 38,36 44,34 60,28 78,29 84,29 90,28 100,26 110,27 116,28 124,28 128,27 132,29 140,33 151,30 172,14 176,16 182,16 186,14 190,8 196,6 200,5 200,0 v-5 h200 v5 Q402,5 404,5 408,5 413,11 417,14 422,14 426,17 430,22 433,24 434,28 436,33 442,35 450,35 451,41 454,48 458,49 464,53 466,57 478,68 506,58 510,54 514,54 518,52 520,49 524,40 528,41 540,38 548,34 560,27 574,31 580,34 588,37 590,37 592,39 596,40 600,40 h5 v565 h-610 Z"/>
</svg>
