<svg xmlns="http://www.w3.org/2000/svg" viewBox="0 0 600 600">
	<path style="fill:white;fill-opacity:0.75;stroke:black;stroke-width:1px;stroke-opacity:0.8" d="M-5,40 h7 Q15,36 18,37 22,39 26,38 34,38 40,43 60,56 83,44 96,36 100,42 116,48 158,28 166,20 174,20 180,20 188,14 192,10 199,6 201,4 200,0 v-5 h200 v5 Q401,6 405,10 407,10 410,18 416,30 430,31 440,31 440,38 442,42 450,46 460,50 470,57 474,60 478,62 486,64 486,70 486,74 487,78 495,90 494,116 490,128 496,138 500,150 499,164 482,196 523,223 542,227 536,276 533,282 536,288 540,304 539,312 534,328 542,354 550,370 550,379 550,390 555,408 560,430 559,444 554,460 567,510 572,525 572,535 572,540 578,546 586,551 586,560 588,575 593,585 596,590 596,592 596,599 600,600 v5 h-605 Z"/>
</svg>
