<svg xmlns="http://www.w3.org/2000/svg" viewBox="0 0 600 600">
	<path style="fill:white;fill-opacity:0.75;stroke:black;stroke-width:1px;stroke-opacity:0.8" d="M-5,40 h5 Q5,39 10,40 20,41 30,40 35,39 40,40 48,44 56,42 62,41 66,43 74,46 82,43 85,41 88,43 96,44 104,40 112,36 120,36 132,34 138,30 146,24 156,26 180,34 188,23 192,12 196,6 200,5 200,0 v-5 h200 v5 Q401,12 408,14 412,14 414,18 420,28 432,27 437,27 438,31 440,40 446,42 452,42 454,48 460,66 478,66 492,68 506,62 520,54 530,55 560,58 572,48 584,42 588,43 L600,40 h5 v565 h-610 Z"/>
</svg>
