<svg xmlns="http://www.w3.org/2000/svg" viewBox="0 0 600 600">
	<path style="fill:white;fill-opacity:0.75;stroke:black;stroke-width:1px;stroke-opacity:0.8" d="M-5,40 h5 Q16,38 21,40 28,44 38,44 47,41 54,46 58,50 64,48 76,47 88,50 94,52 104,50 120,46 126,48 132,50 136,49 144,48 150,49 154,51 166,48 170,45 174,47 200,50 206,20 206,4 200,2 200,1 200,0 v-5 h200 v5 Q404,12 420,8 428,6 430,10 434,13 440,12 444,11 448,13 454,18 466,18 475,14 480,20 500,28 520,29 530,27 534,32 538,38 546,37 560,36 570,37 574,39 578,38 588,37 592,39 594,41 600,40 h5 v565 h-610 Z"/>
</svg>
