<svg xmlns="http://www.w3.org/2000/svg" viewBox="0 0 600 600">
	<path style="fill:white;fill-opacity:0.75;stroke:black;stroke-width:1px;stroke-opacity:0.8" d="M-5,40 h5 Q5,41 8,40 10,38 12,40 24,43 32,42 36,40 39,42 56,52 88,42 104,38 106,36 110,32 116,33 136,33 143,30 152,24 159,24 170,24 176,20 180,17 185,17 194,15 200,0 v-5 h200 v5 Q402,8 408,9 418,8 418,14 418,22 428,26 434,26 436,32 438,38 444,43 448,45 448,48 C448,52 456,60 468,60 Q474,58 480,60 494,63 505,59 524,52 532,54 544,55 562,48 570,46 580,44 590,42 600,40 h5 v565 h-610 Z"/>
</svg>
