<svg xmlns="http://www.w3.org/2000/svg" viewBox="0 0 600 600">
	<path style="fill:white;fill-opacity:0.75;stroke:black;stroke-width:1px;stroke-opacity:0.8" d="M-5,200 h5 q6,3 12,0 7,3 18,-1 15,4 25,1 c10,-6 22,-6 23,-11 q7,-3 12,-4 v-4 c25,-10 20,-45 30,-45 28,-19 5,-47 40,-50 q12,-3 22,0 c44,-28 10,-65 18,-86 v-5 h200 v5 q-1,20 5,22 c1,22 9,24 11,33 5,12 25,0 40,16 9,-5 19,2 16,7 18,23 3,40 9,57 -10,18 8,35 9,50 3,18 38,30 82,15 12,3 20,-1 28,0 h5 v200 h-5 c-20,0 -20,2 -30,2 -9,0 -9,2 -20,2 -10,6 -18,7 -25,14 -10,8 -30,11 -45,27 q-10,12 -22,15 c-10,8 -13,27 -28,39 -5,10 -18,5 -22,22 v25 c3,5 -3,13 -2,19 q-6,5 -6,35 v5 h-200 v-35 q2,-12 1,-23 c15,-30 -6,-85 -11,-92 -17,-10 -1,-40 -10,-50 -4,-5 2,-20 -20,-24 -10,0 -22,3 -25,1 -35,0 -68,28 -95,18 q-13,-4 -30,0 h-15 Z"/>
</svg>
