<svg xmlns="http://www.w3.org/2000/svg" viewBox="0 0 600 600">
	<path style="fill:white;fill-opacity:0.75;stroke:black;stroke-width:1px;stroke-opacity:0.8" d="M-5,200 h5 c7,3 20,-5 35,0 15,2 48,4 65,-7 15,4 31,-6 32,-20 6,-13 -9,-33 8,-39 18,-1 15,-9 35,-11 q9,-1 20,1 c2,-6 10,-6 10,-24 0,-10 -4,-13 0,-20 8,-20 -4,-50,-3,-55 0,-9 -2,-9 -2,-25 v-5 h200 v15 c0,9 8,30 7,35 -1,5 3,24 8,30 10,20 24,25 23,30 0,10 8,18 12,21 8,2 11,12 25,15 16,2 6,10 20,23 20,32 55,20 75,38 q15,1 30,-2 h5 v200 h-5 q-18,0 -18,4 h-10 q-12,6 -20,15 v10 c-40,29 -20,25 -32,45 -5,8 3,18 3,32 q-25,22 -56,26 c-9,9 -12,23 -20,33 q-12,5 -22,15 -25,0 -25,20 v5 h-200 v-5 c0,-40 15,-57 5,-70 -5,-5 10,-33 15,-65 5,-12 -3,-50 -30,-30 -18,7 -30,-6 -45,0 -16,7 -25,-15 -45,-16 -34,-4 -10,-15 -50,-19 q-24,8 -30,0 h-25 Z"/>
</svg>
