<svg xmlns="http://www.w3.org/2000/svg" viewBox="0 0 600 600">
	<path style="fill:white;fill-opacity:0.75;stroke:black;stroke-width:1px;stroke-opacity:0.8" d="M-5,200 h25 c7,10 10,6 30,6 l39,-2 q6,6 13,0 c39,-20 13,-23 43,-35 8,2 28,1 28,-8 l20,-18 q3,-10 9,-20 c0,-15 6,-10 6,-25 q0,-20 -2,-27 c-9,-18 -1,-15 0,-35 0,-9 -6,-20 -6,-36 v-5 h200 v5 c-5,28 -19,25 -19,40 0,8 -9,20 -6,35 -2,9 -10,10 -10,25 -9,25 5,38 -1,45 -2,5 4,30 16,45 q12,33 70,32 c15,3 35,-5 40,0 30,7 25,-6 50,-6 9,0 25,-12 40,-12 15,0 5,-4 20,-4 h5 v200 h-35 c-35,-7 -60,-7 -62,20 -2,8 -10,9 -13,15 -15,15 2,16 -20,30 -13,14 -32,12 -38,25 -7,7 2,20 -11,45 -6,10 -16,11 -18,25 -1,15 -8,20 -8,40 v5 h-200 v-5 q4,-15 -7,-35 c1,-34 -20,-35 -23,-55 -6,-25 -35,-12 -45,-35 -10,-7 -25,-5 -35,-10 q-10,-2 -21,0 c-21,-9 -15,-40 -33,-45 -4,-3 -6,-11 -11,-12 -3,0 -5,-8 -25,-8 h-5 Z"/>
</svg>
