<svg xmlns="http://www.w3.org/2000/svg" viewBox="0 0 600 600">
	<path style="fill:white;fill-opacity:0.75;stroke:black;stroke-width:1px;stroke-opacity:0.8" d="M-5,200 h5 q15,2 20,8 l17,1 8,7 c39,-4 68,24 75,20 16,-9 35,14 70,-10 25,-20 19,-14 30,-14 7,1 6,-8 15,-12 14,-9 8,-12 15,-30 3,-19 -6,-35 -2,-43 1,-50 -23,-50 -23,-67 -5,-20 -30,-40 -25,-60 v-5 h200 v35 c9,14 2,20 10,35 15,5 0,40 20,48 18,15 -7,25 20,62 18,19 70,30 80,25 25,-5 50,5 70,0 h5 v200 h-5 q-15,0 -37,20 c-2,14 -25,27 -38,50 -25,31 -33,9 -48,25 -18,19 0,22 -17,35 -8,6 -11,22 -25,25 q-33,15 -35,45 v5 h-200 v-43 c4,-11 -1,-19 3,-23 v-13 c7,-12 -7,-32 -33,-36 q-12,-2 -17,-13 -14,-5 -25,-17 c-15,-5 -17,-25 -33,-30 -13,-7 -30,3 -45,-10 -15,-3 -15,-15 -31,-15 -10,0 -7,-5 -19,-5 h-5 Z"/>
</svg>
