<svg xmlns="http://www.w3.org/2000/svg" viewBox="0 0 600 600">
	<path style="fill:white;fill-opacity:0.75;stroke:black;stroke-width:1px;stroke-opacity:0.8" d="M-5,200 h37 c15,-6 35,-7 43,-12 10,-5 30,-5 44,-23 -1,-12 6,-29 16,-29 19,0 15,-10 35,-11 15,-5 25,-11 23,-15 0,-9 28,-38 11,-75 -5,-10 -2,-20 -4,-30 v-10 h200 v25 c0,6 6,8 5,35 0,15 5,15 4,45 -2,26 8,23 10,39 24,45 55,30 81,52 40,0 25,3 81,5 q9,9 19,4 h5 v200 h-5 c-20,3 -30,-3 -50,15 -35,38 -32,30 -32,43 -18,43 -43,45 -43,64 -40,23 -52,34 -60,43 -5,0 -8,22 -15,25 v15 h-200 v-5 c0,-20 11,-35 8,-40 q-4,-10 -3,-23 l-26,-26 c0,-15 -3,-30 0,-60 2,-10 -2,-20 -4,-35 -10,-16 -30,-15 -35,-20 -10,-9 -20,-7 -30,-11 h-12 c-13,4 -30,-7 -58,10 q-20,7 -40,5 h-5 Z"/>
</svg>
