<svg xmlns="http://www.w3.org/2000/svg" viewBox="0 0 600 600">
	<path style="fill:white;fill-opacity:0.75;stroke:black;stroke-width:1px;stroke-opacity:0.8" d="M-5,200 h5 c8,5 15,-2 20,0 l7,3 c28,-1 32,9 46,9 11,0 3,2 12,2 15,0 10,3 25,1 28,-1 12,16 50,11 11,-4 24,1 30,-7 5,-5 15,-5 20,-17 2,-15 10,-28 10,-42 0,-15 2,-5 2,-23 -9,-15 0,-10 -7,-23 -14,-30 -2,-40 -9,-75 -7,-15 -6,-25 -6,-39 v-5 h200 v5 q0,20 2,20 -2,18 7,30 3,20 1,39 c5,6 2,11 5,16 4,17 -5,25 5,50 14,21 2,35 10,45 17,33 30,15 70,15 20,13 30,-10 50,-10 5,-3 17,3 22,-4 q15,3 28,-1 h5 v200 h-9 c-11,3 -18,0 -31,0 -5,0 -12,4 -20,0 h-20 c-16,-2 -27,11 -27,22 q-5,3 -6,10 -8,0 -10,3 -8,0 -14,4 -11,-7 -12,2 c-17,10 -6,17 -7,28 0,8 9,10 9,17 0,9 -7,11 -7,19 0,4 4,11 -1,20 -7,7 -16,9 -17,18 -6,8 -33,0 -33,57 v5 h-200 v-5 c-2,-13 -5,-14 -6,-22 -3,-18 -11,-8 -13,-28 -3,-10 -7,-12 -11,-19 -5,-6 -17,-13 -20,-21 -7,-20 -24,-17 -35,-26 l-15,-13 c-15,-11 3,-7 -15,-23 -12,-8 -14,-23 -35,-26 -15,-7 -20,-22 -50,-22 h-5 Z"/>
</svg>
