<svg xmlns="http://www.w3.org/2000/svg" viewBox="0 0 600 600">
	<path style="fill:white;fill-opacity:0.75;stroke:black;stroke-width:1px;stroke-opacity:0.8" d="M-5,200 h5 c25,0 35,16 60,16 28,-3 24,-3 30,5 20,0 15,-3 30,-3 10,0 5,-3 25,-3 32,-11 57,-32 60,-65 0,-45 8,-50 0,-75 -2,-15 0,-27 -4,-35 -3,-20 5,-30 -1,-40 v-5 h200 v5 c0,30 8,15 -3,40 -2,25 -23,35 -6 50 0,20 -7,20 -7,55 -38,45 3,105 66,77 25,-25 45,-15 73,-34 h40 l22,12 h20 v200 h-5 c-15,0 -11,8 -20,8 -20,55 -49,30 -66,44 -65,28 -36,-7 -64,12 q-15,8 -30,6 -25,10 -35,25 c-11,15 4,10 4,55 -2,16 20,21 11,37 v18 h-200 v-5 c0,-17 -8,-20 -10,-32 -3,-16 -17,-11 -24,-28 -9,-27 -25,-18 -31,-32 -5,-2 -9,-12 -20,-13 -4,2 -13,-34 -45,-40 -28,-5 -27,-53 -70,-55 h-5 Z"/>
</svg>
