<svg xmlns="http://www.w3.org/2000/svg" viewBox="0 0 600 600">
	<path style="fill:white;fill-opacity:0.75;stroke:black;stroke-width:1px;stroke-opacity:0.8" d="M-5,200 h5 c85,0 95,15 122,0 h18 c25,6 30,-2 40,-2 20,0 25,-12 35,-15 l10,-12 c8,-24 0,-45 1,-71 0,-18 -8,-30 -9,-50 -1,-22 -17,-30 -17,-50 v-5 h200 v5 c1,30 -11,44 0,80 2,44 35,25 45,70 6,36 40,43 55,50 15,4 35,-2 50,-1 10,0 25,2 50,1 h5 v200 h-5 c-44,0 -45,25 -53,30 -22,20 -8,35 -27,70 -15,35 -35,23 -53,46 h-11 c-41,18 -34,12 -46,29 -6,14 -10,10 -10,25 v5 h-200 v-5 c0,-40 -10,-45 -10,-60 -8,-17 -20,-25 -21,-40 -5,-5 0,-36 -7,-36 -1,-15 1,-14 -4,-14 -7,0 -5,3 -5,-15 -9,-22 -20,-18 -25,-28 -13,-5 -29,-5 -33,3 -10,8 -28,11 -35,4 -43,-16 -30,-14 -60,-14 h-5 Z"/>
</svg>
