<svg xmlns="http://www.w3.org/2000/svg" viewBox="0 0 600 600">
	<path style="fill:white;fill-opacity:0.75;stroke:black;stroke-width:1px;stroke-opacity:0.8" d="M-5,200 h5 c8,10 14,-8 25,3 15,12 62,2 69,8 7,6 21,-3 32,-5 15,-2 8,-17 24,-26 20,-7 -4,-30 15,-50 34,-20 15,-50 35,-85 0,-30 9,-35 0,-45 v-5 h200 v5 c0,20 -3,15 -3,30 q0,15 -8,25 c0,23 -8,15 -9,40 -1,18 -20,25 -23,45 -4,20 -30,21 -32,70 q-13,15 -15,35 c-6,20 -3,40 10,44 15,10 10,9 22,9 8,2 15,0 23,0 11,-2 25,-16 35,-16 35,-25 70,-21 113,-63 23,-15 35,0 50,-8 23,-12 18,-11 37,-11 h5 v200 h-5 q-6,0 -9,2 c-6,-12 -20,-3 -31,2 -9,5 -20,0 -30,7 q-15,2 -16,15 l-14,13 v3 c-22,22 -5,23 -15,41 -7,6 -8,20 -10,22 q-3,5 1,10 -5,5 -4,13 c-18,28 -47,21 -59,42 -3,9 -12,-3 -13,30 v5 h-200 v-5 c3,-65 -25,-60 -50,-68 -65,-24 -15,-25 -50,-33 -50,-25 -67,-37 -67,-54 0,-20 -4,-10 -5,-20 -2,-18 -15,-13 -18,-20 q-5,-5 -10,-5 h-5 Z"/>
</svg>
