<svg xmlns="http://www.w3.org/2000/svg" viewBox="0 0 600 600">
	<path style="fill:white;fill-opacity:0.75;stroke:black;stroke-width:1px;stroke-opacity:0.8" d="M-5,200 h5 q18,9 25,3 h20 c25,5 20,17 45,17 36,0 48,32 80,10 65,-32 40,-10 70,-18 18,-12 5,-7 15,-22 1,-20 8,-40 5,-50 -2,-5 7,-5 9,-40 -10,-34 -33,-25 -36,-50 0,-24 2,-15 -17,-28 -16,-5 -6,0 -16,-22 v-5 h200 v5 c0,6 6,9 7,15 4,21 24,2 43,35 l31,22 c25,16 20,9 21,22 0,12 -2,0 8,21 10,15 30,25 40,55 q7,35 50,30 h5 v200 h-5 c-25,0 0,10 -50,10 q-10,0 -20,5 c-5,5 -23,2 -30,18 -21,36 19,50 -23,69 h-7 c-10,5 -27,1 -35,15 -4,9 -20,15 -20,28 q-5,15 -15,18 c3,5 -8,20 0,33 v9 h-200 v-5 c0,-35 -20,-18 -30,-37 q-7,-2 -13,-9 c-20,2 -33,-28 -52,-34 -18,-10 -18,-31 -40,-35 -33,-20 -24,-55 -40,-68 -5,-11 -15,-8 -25,-17 h-5 Z"/>
</svg>
