<svg xmlns="http://www.w3.org/2000/svg" viewBox="0 0 600 600">
	<path style="fill:white;fill-opacity:0.75;stroke:black;stroke-width:1px;stroke-opacity:0.8" d="M-5,200 h5 q5,2 15,-1 8,2 17,3 8,8 18,11 c19,16 20,3 40,3 29,3 23,-20 55,-26 20,-6 13,-21 30,-30 17,-12 12,-25 8,-33 v-24 c25,-18 9,-30 22,-49 8,-13 -5,-20 -5,-54 v-5 h200 v15 c-9,10 9,34 -5,56 0,25 3,15 -16,36 0,30 -20,44 -7,44 q-7,30 3,59 c4,14 0,7 15,15 q10,4 15,10 -1,12 10,10 c12,5 15,-3 20,-5 q3,-4 4,-7 c7,0 16,-9 21,-5 4,4 8,-11 25,-13 q7,-4 12,-5 h9 c9,10 40,-3 44,2 8,7 28,4 30,-2 h8 q4,-5 12,-5 h5 v200 h-5 c-18,2 -27,14 -35,15 -17,2 -40,25 -58,40 -19,0 -35,11 -41,5 q-19,4 -36,19 c-8,9 -21,-7 -26,30 v14 c-20,25 2,25 -4,56 v26 h-200 v-5 c0,-10 -3,-10 -3,-20 q0,-5 -4,-9 c-7,-7 -4,-1 -16,-11 -7,-8 -19,6 -33,-5 -24,-3 -1,-18 -34,-21 q-43,-6 -40,-50 c-25,-7 -16,-36 -30,-44 0,-11 -12,-6 -15,-25 -2,-5 -9,-16 -25,-15 h-5 Z"/>
</svg>
