<svg xmlns="http://www.w3.org/2000/svg" viewBox="0 0 600 600">
	<path style="fill:white;fill-opacity:0.75;stroke:black;stroke-width:1px;stroke-opacity:0.8" d="M-5,200 h5 q25,0 29,-2 c21,14 60,3 81,-13 q4,-9 38,-19 c17,-43 6,-40 37,-50 16,-9 18,3 29,-16 12,-15 -13,-50 -14,-100 v-5 h200 v5 c0,15 -6,20 -4,30 q2,5 -10,32 c0,24 -5,20 -7,38 -3,10 2,25 -3,40 q-2,8 4,25 c3,5 -2,5 10,21 5,7 6,27 25,29 45,15 40,9 65,8 q10,6 17,1 c40,0 43,-9 53,-9 q10,-8 25,-8 10,-7 25,-7 h5 v200 h-5 c-10,1 -15,10 -22,12 l-17,16 v9 c-8,24 -50,3 -64,41 q0,8 -3,10 2,7 -3,14 c-5,38 -21,27 -28,43 -7,5 -12,17 -18,16 q-18,5 -30,20 h-5 q-9,5 -10,19 v5 h-200 v-20 q9,-35 5,-68 -12,-23 -23,-33 -9,-1 -12,-9 c-17,-15 -10,-13 -30,-14 -40,0 -5,-13 -40,-13 q-45,-3 -48,-18 c-7,-24 -27,-22 -32,-30 h-25 Z"/>
</svg>
