<svg xmlns="http://www.w3.org/2000/svg" viewBox="0 0 600 600">
	<path style="fill:white;fill-opacity:0.75;stroke:black;stroke-width:1px;stroke-opacity:0.8" d="M-5,200 h5 c30,0 13,-5 35,-5 20,0 27,-11 40,-11 25,-2 45,-29 63,-46 18,4 10,4 28,-15 23,-28 0,-28 19,-48 3,-17 15,-20 15,-35 0,-16 -4,-8 -4,-15 0,-15 4,-10 4,-25 v-5 h200 v5 c0,18 -7,15 -7,28 -20,17 -15,47 -38,62 q-18,7 -17,35 -3,5 -2,20 c-8,29 2,32 4,38 12,15 20,4 35,4 q20,-11 38,-25 c9,-15 40,-15 67,10 h20 c46,9 41,21 67,21 9,1 5,7 33,7 h5 v200 h-5 q-7,-3 -16,-4 -25,-13 -39,-15 c-20,-1 -10,-22 -25,-25 -5,-1 -14,-19 -50,-32 -21,-1 -20,-17 -35,-13 -44,-2 -44,22 -55,29 q-15,15 -25,39 v20 h1 v17 c0,20 8,20 9,34 2,9 11,25 7,40 10,18 15,30 15,40 -6,0 -6,25 0,28 5,20 13,28 13,42 v5 h-200 v-5 c9,-5 9,-51 -5,-59 l-42,-22 c-15,0 -23,-8 -28,-9 -9,-2 -20,-20 -25,-30 -12,-20 7,-35 0,-65 l-10,-15 c-7,-12 -20,-10 -30,-15 q-9,0 -10,2 c-25,0 -25,13 -50,13 h-5 Z"/>
</svg>
