<svg xmlns="http://www.w3.org/2000/svg" viewBox="0 0 600 600">
	<path style="fill:white;fill-opacity:0.75;stroke:black;stroke-width:1px;stroke-opacity:0.8" d="M-5,200 h5 c18,4 20,-2 30,-2 1,5 20,14 42,2 18,-13 35,-9 35,10 0,6 5,6 33,6 10,7 40,-7 49,6 30,2 25,-8 51,-5 l21,-19 c9,2 12,-5 13,-18 q-10,-28 -30,-37 -9,-13 -8,-36 c-32,-38 -13,-26 -21,-40 q-3,-10 -3,-16 c-12,-12 -6,-20 -12,-30 v-26 h200 v5 c0,15 2,10 2,17 -7,14 13,13 13,28 2,16 20,18 35,25 21,2 -5,20 45,28 15,0 7,-1 20,5 10,5 7,0 10,30 l7,11 q-2,27 18,41 c35,13 0,17 51,15 h5 v200 h-5 c-20,0 -10,7 -36,5 -8,4 -20,6 -25,15 -5,5 2,20 6,28 -9,9 0,6 -6,19 q-1,6 -15,6 c-20,0 0,-7 -25,-5 -25,3 -10,6 -28,16 -21,45 15,50 -10,66 h-12 c-12,14 -35,-2 -45,10 -4,8 -14,10 -14,15 0,11 9,10 9,25 v5 h-200 v-5 c-2,-30 11,-35 0,-46 -9,-15 7,-25 -10,-43 -8,-6 -9,-33 -5,-36 4,-5 -1,-15 -11,-25 -8,-10 -15,-4 -24,-29 -11,-12 -7,-8 -20,-14 -18,-8 -25,2 -55,2 -9,-7 -13,0 -20,-4 -5,-4 -20,6 -36,-5 h-24 Z"/>
</svg>
