<svg xmlns="http://www.w3.org/2000/svg" viewBox="0 0 600 600">
	<path style="fill:white;fill-opacity:0.75;stroke:black;stroke-width:1px;stroke-opacity:0.8" d="M-5,200 h5 Q14,202 20,197 23,194 26,194 46,193 58,178 62,175 64,170 67,164 70,162 74,156 74,150 78,134 86,130 97,125 107,100 125,81 145,82 153,81 160,78 175,70 194,80 216,97 240,93 270,94 294,120 336,174 360,178 400,198 401,238 400,264 430,276 470,292 485,305 500,334 520,335 536,336 542,350 545,356 546,362 547,368 552,374 561,384 552,391 510,416 497,430 476,463 430,483 401,495 389,515 361,538 310,529 280,520 250,524 225,531 188,520 185,517 136,517 128,517 110,500 60,466 60,449 58,440 48,430 30,400 0,400 h-5 Z"/>
</svg>
