<svg xmlns="http://www.w3.org/2000/svg" viewBox="0 0 600 600">
	<path style="fill:white;fill-opacity:0.75;stroke:black;stroke-width:1px;stroke-opacity:0.8" d="M200,605 v-5 Q200,590 196,584 192,580 193,576 193,565 191,550 189,540 191,535 194,529 190,502 175,465 165,460 144,445 139,403 147,375 125,348 97,320 104,296 109,282 109,270 107,224 114,210 122,185 120,175 119,165 120,155 121,147 121,142 119,133 123,125 125,123 126,120 138,80 175,70 225,50 250,60 275,75 278,85 305,120 365,119 424,120 420,160 420,175 430,188 466,230 457,250 455,260 459,273 463,285 463,300 463,330 473,340 504,400 485,440 475,445 468,470 466,485 457,500 452,520 441,530 440,540 425,557 420,563 420,568 420,570 416,574 414,576 413,580 400,590 400,600 v5 Z"/>
</svg>
