<svg xmlns="http://www.w3.org/2000/svg" viewBox="0 0 600 600">
	<path style="fill:white;fill-opacity:0.75;stroke:black;stroke-width:1px;stroke-opacity:0.8" d="M200,-5 v5 Q200,12 190,23 180,34 175,36 165,39 155,54 150,67 137,75 121,90 121,100 122,115 111,135 106,150 108,168 113,190 111,200 105,215 114,240 128,260 124,280 118,304 129,340 131,355 144,370 170,390 172,415 172,420 178,425 210,438 252,480 295,524 330,520 350,520 365,526 370,528 376,526 400,522 447,504 460,491 469,485 476,465 488,455 496,440 508,430 515,420 516,405 520,390 519,380 515,334 526,322 525,310 529,304 538,290 536,260 536,240 535,236 530,220 530,211 522,166 507,156 492,135 490,126 488,120 484,115 450,86 451,70 451,50 440,47 420,36 406,14 400,10 400,0 v-5 Z"/>
</svg>
