<svg xmlns="http://www.w3.org/2000/svg" viewBox="0 0 600 600">
	<path style="fill:white;fill-opacity:0.75;stroke:black;stroke-width:1px;stroke-opacity:0.8" d="M605,200 h-5 Q595,200 590,197 568,194 567,180 567,176 560,167 530,166 523,153 521,147 510,140 507,138 505,136 490,122 485,120 453,90 455,72 440,64 414,60 398,59 380,50 370,36 300,53 261,69 234,55 214,43 191,58 180,66 164,76 126,100 115,150 118,170 104,183 73,220 70,276 100,300 96,320 94,335 95,350 97,365 91,380 87,390 87,400 87,405 84,410 56,464 100,488 122,496 140,512 168,538 220,537 243,534 249,535 260,536 268,533 282,528 300,525 370,491 450,520 516,536 528,504 532,504 536,496 542,480 552,470 570,456 569,440 569,406 600,400 h5 Z"/>
</svg>
